<svg id="svg" version="1.1" xmlns="http://www.w3.org/2000/svg" xmlns:xlink="http://www.w3.org/1999/xlink" width="400" height="400" viewBox="0, 0, 400,400"><g id="svgg"><path id="path0" d="M101.597 234.100 C 101.595 292.835,101.684 297.863,102.804 302.400 C 102.994 303.170,103.358 304.700,103.612 305.800 C 103.866 306.900,104.220 308.160,104.398 308.600 C 104.576 309.040,105.128 310.480,105.623 311.800 C 106.119 313.120,106.677 314.371,106.862 314.580 C 107.048 314.789,107.200 315.186,107.200 315.462 C 107.200 315.739,107.765 316.918,108.456 318.082 C 109.147 319.247,110.058 320.810,110.480 321.556 C 112.376 324.899,117.366 330.766,121.444 334.445 C 123.430 336.236,127.832 339.600,128.190 339.600 C 128.336 339.600,129.208 340.103,130.128 340.717 C 131.048 341.332,133.060 342.434,134.600 343.166 C 137.169 344.388,137.840 344.683,140.200 345.627 C 140.640 345.803,141.720 346.164,142.600 346.429 C 143.480 346.695,144.650 347.053,145.200 347.226 C 146.176 347.532,148.711 347.983,154.033 348.797 C 155.721 349.056,180.816 349.200,224.000 349.200 C 267.184 349.200,292.279 349.056,293.967 348.797 C 301.543 347.638,302.032 347.530,306.800 345.963 C 322.572 340.777,336.650 327.252,342.464 311.700 C 342.649 311.205,342.959 310.395,343.154 309.900 C 343.490 309.047,344.131 306.853,344.819 304.200 C 344.991 303.540,345.358 302.190,345.636 301.200 C 346.031 299.795,346.174 285.602,346.288 236.500 L 346.435 173.600 224.017 173.600 L 101.600 173.600 101.597 234.100 M224.281 194.850 C 226.156 195.604,226.941 195.899,228.400 196.400 C 229.170 196.664,230.160 197.024,230.600 197.200 C 231.040 197.376,232.030 197.736,232.800 198.000 C 233.570 198.264,234.560 198.633,235.000 198.818 C 235.440 199.004,239.130 200.347,243.200 201.803 C 251.594 204.807,259.017 207.509,260.200 207.992 C 260.640 208.172,261.630 208.536,262.400 208.800 C 263.170 209.064,264.160 209.424,264.600 209.600 C 265.040 209.776,266.030 210.136,266.800 210.400 C 268.493 210.982,269.960 211.571,270.895 212.047 C 271.277 212.241,271.916 212.400,272.315 212.400 C 272.714 212.400,273.211 212.543,273.420 212.718 C 273.629 212.893,274.520 213.267,275.400 213.548 C 276.280 213.828,278.350 214.572,280.000 215.199 C 281.650 215.827,286.330 217.534,290.400 218.994 C 294.470 220.453,298.745 221.997,299.900 222.424 C 301.055 222.851,303.035 223.574,304.300 224.032 C 305.565 224.490,306.913 225.030,307.295 225.232 C 307.677 225.434,308.264 225.600,308.600 225.600 C 308.936 225.600,309.523 225.759,309.905 225.953 C 310.840 226.429,312.307 227.018,314.000 227.600 C 314.770 227.864,315.760 228.224,316.200 228.400 C 316.640 228.576,317.630 228.936,318.400 229.200 C 324.123 231.165,325.375 232.347,325.367 235.782 C 325.359 239.347,324.036 240.430,316.800 242.799 C 314.710 243.483,312.640 244.205,312.200 244.403 C 311.551 244.695,299.221 248.909,290.300 251.887 L 288.400 252.522 288.381 275.561 C 288.358 302.917,288.577 301.826,282.770 303.552 C 281.797 303.841,280.687 304.240,280.305 304.439 C 279.923 304.638,279.336 304.800,279.000 304.800 C 278.664 304.800,278.077 304.962,277.695 305.161 C 277.313 305.360,276.190 305.740,275.200 306.007 C 274.210 306.273,273.040 306.636,272.600 306.812 C 272.160 306.989,271.350 307.250,270.800 307.394 C 270.250 307.537,269.170 307.834,268.400 308.054 C 267.630 308.273,266.280 308.629,265.400 308.845 C 264.520 309.060,263.170 309.398,262.400 309.596 C 256.734 311.049,245.306 313.120,237.800 314.053 C 231.791 314.800,207.978 314.806,203.000 314.062 C 195.781 312.982,189.437 311.772,185.800 310.781 C 185.140 310.601,183.790 310.236,182.800 309.970 C 179.915 309.195,173.862 307.207,173.105 306.786 C 172.723 306.574,172.136 306.400,171.800 306.400 C 171.464 306.400,170.877 306.240,170.495 306.044 C 170.113 305.848,168.990 305.327,168.000 304.886 C 158.994 300.876,160.000 304.420,160.000 276.700 C 160.000 251.624,160.117 252.918,157.800 252.299 C 157.360 252.182,154.660 251.236,151.800 250.198 C 148.940 249.159,146.195 248.219,145.700 248.108 L 144.800 247.907 144.800 265.315 L 144.800 282.724 146.700 283.813 C 163.836 293.639,153.496 320.061,134.496 314.998 C 119.231 310.930,117.282 290.330,131.500 283.339 L 133.600 282.306 133.600 263.386 C 133.600 243.572,133.577 243.200,132.352 243.200 C 131.932 243.200,131.232 243.020,130.795 242.800 C 130.358 242.580,129.642 242.220,129.205 242.000 C 128.768 241.780,128.155 241.600,127.843 241.600 C 125.643 241.600,122.400 238.201,122.400 235.894 C 122.400 233.624,124.728 230.400,126.367 230.400 C 126.611 230.400,127.123 230.234,127.505 230.032 C 127.887 229.830,129.280 229.272,130.600 228.793 C 131.920 228.314,133.405 227.760,133.900 227.561 C 134.395 227.362,135.205 227.038,135.700 226.839 C 136.195 226.640,137.680 226.083,139.000 225.600 C 140.320 225.117,141.805 224.560,142.300 224.361 C 142.795 224.162,143.605 223.837,144.100 223.638 C 145.331 223.143,150.234 221.285,157.400 218.597 C 165.120 215.701,169.570 214.016,170.700 213.562 C 171.195 213.363,172.005 213.038,172.500 212.839 C 172.995 212.640,174.480 212.083,175.800 211.600 C 177.120 211.117,178.650 210.535,179.200 210.307 C 179.750 210.079,180.560 209.761,181.000 209.600 C 181.440 209.439,182.250 209.121,182.800 208.893 C 183.350 208.665,184.790 208.115,186.000 207.671 C 189.802 206.276,196.941 203.587,198.400 203.000 C 199.170 202.690,201.780 201.695,204.200 200.788 C 206.620 199.882,208.960 198.991,209.400 198.809 C 209.840 198.627,211.280 198.083,212.600 197.600 C 213.920 197.117,215.450 196.535,216.000 196.307 C 216.550 196.079,217.360 195.759,217.800 195.594 C 218.240 195.430,219.050 195.106,219.600 194.875 C 220.940 194.311,222.914 194.300,224.281 194.850 " stroke="none" fill="#fbcb53" fill-rule="evenodd"></path><path id="path1" d="M145.000 40.000 C 144.864 40.220,143.413 40.400,141.776 40.400 C 140.139 40.400,138.800 40.563,138.800 40.763 C 138.800 40.963,137.855 41.209,136.700 41.310 C 133.777 41.567,129.158 42.371,128.200 42.790 C 127.364 43.156,125.896 43.509,123.700 43.872 C 122.985 43.991,122.400 44.248,122.400 44.444 C 122.400 44.640,121.860 44.800,121.200 44.800 C 120.540 44.800,120.000 44.980,120.000 45.200 C 120.000 45.420,119.460 45.600,118.800 45.600 C 118.140 45.600,117.600 45.780,117.600 46.000 C 117.600 46.220,117.161 46.400,116.624 46.400 C 116.087 46.400,115.536 46.580,115.400 46.800 C 115.264 47.020,114.803 47.200,114.376 47.200 C 113.949 47.200,113.600 47.380,113.600 47.600 C 113.600 47.820,113.150 48.000,112.600 48.000 C 112.050 48.000,111.600 48.180,111.600 48.400 C 111.600 48.620,111.240 48.800,110.800 48.800 C 110.360 48.800,110.000 48.980,110.000 49.200 C 110.000 49.420,109.640 49.600,109.200 49.600 C 108.760 49.600,108.400 49.780,108.400 50.000 C 108.400 50.220,108.040 50.400,107.600 50.400 C 107.160 50.400,106.800 50.580,106.800 50.800 C 106.800 51.020,106.440 51.200,106.000 51.200 C 105.560 51.200,105.200 51.380,105.200 51.600 C 105.200 51.820,104.840 52.000,104.400 52.000 C 103.960 52.000,103.600 52.180,103.600 52.400 C 103.600 52.620,103.240 52.800,102.800 52.800 C 102.360 52.800,102.000 52.980,102.000 53.200 C 102.000 53.420,101.640 53.600,101.200 53.600 C 100.760 53.600,100.400 53.780,100.400 54.000 C 100.400 54.220,100.130 54.400,99.800 54.400 C 99.470 54.400,99.200 54.580,99.200 54.800 C 99.200 55.020,98.930 55.200,98.600 55.200 C 98.270 55.200,98.000 55.380,98.000 55.600 C 98.000 55.820,97.722 56.000,97.383 56.000 C 97.044 56.000,96.390 56.351,95.929 56.780 C 95.469 57.209,94.531 57.827,93.846 58.154 C 93.161 58.480,92.203 59.119,91.717 59.574 C 91.231 60.028,90.596 60.400,90.305 60.400 C 90.014 60.400,89.517 60.760,89.200 61.200 C 88.883 61.640,88.415 62.000,88.160 62.000 C 87.905 62.000,86.987 62.688,86.120 63.530 C 85.254 64.371,84.197 65.202,83.772 65.377 C 82.857 65.755,85.477 67.171,87.125 67.190 C 88.989 67.211,93.360 69.719,95.820 72.180 C 106.167 82.527,101.664 99.003,87.240 103.569 C 78.506 106.335,68.299 100.464,64.800 90.662 C 63.893 88.120,62.800 86.709,62.800 88.078 C 62.800 88.378,62.440 88.883,62.000 89.200 C 61.560 89.517,61.200 90.014,61.200 90.305 C 61.200 90.596,60.864 91.194,60.453 91.635 C 60.042 92.076,59.367 93.104,58.953 93.919 C 58.539 94.733,58.065 95.460,57.900 95.533 C 57.735 95.607,57.600 96.012,57.600 96.433 C 57.600 96.855,57.420 97.200,57.200 97.200 C 56.980 97.200,56.800 97.470,56.800 97.800 C 56.800 98.130,56.620 98.400,56.400 98.400 C 56.180 98.400,56.000 98.670,56.000 99.000 C 56.000 99.330,55.820 99.600,55.600 99.600 C 55.380 99.600,55.200 99.834,55.200 100.120 C 55.200 100.856,54.259 102.793,53.900 102.797 C 53.735 102.799,53.600 103.160,53.600 103.600 C 53.600 104.040,53.420 104.400,53.200 104.400 C 52.980 104.400,52.800 104.749,52.800 105.176 C 52.800 105.603,52.620 106.064,52.400 106.200 C 52.180 106.336,52.000 106.887,52.000 107.424 C 52.000 107.961,51.865 108.401,51.700 108.403 C 51.341 108.407,50.400 110.344,50.400 111.080 C 50.400 111.366,50.220 111.600,50.000 111.600 C 49.780 111.600,49.600 112.050,49.600 112.600 C 49.600 113.150,49.420 113.600,49.200 113.600 C 48.980 113.600,48.800 114.140,48.800 114.800 C 48.800 115.460,48.620 116.000,48.400 116.000 C 48.180 116.000,48.000 116.540,48.000 117.200 C 48.000 117.860,47.820 118.400,47.600 118.400 C 47.380 118.400,47.200 118.940,47.200 119.600 C 47.200 120.260,47.020 120.800,46.800 120.800 C 46.580 120.800,46.400 121.329,46.400 121.976 C 46.400 122.623,46.220 123.264,46.000 123.400 C 45.780 123.536,45.600 124.267,45.600 125.024 C 45.600 125.781,45.457 126.400,45.282 126.400 C 45.107 126.400,44.918 127.075,44.863 127.899 C 44.807 128.724,44.590 129.570,44.381 129.779 C 44.171 129.989,44.000 130.898,44.000 131.800 C 44.000 132.702,43.835 133.611,43.634 133.820 C 43.270 134.197,43.156 135.106,42.451 143.200 C 41.962 148.809,41.962 160.313,42.451 166.000 C 43.181 174.490,43.270 175.200,43.599 175.200 C 43.779 175.200,44.025 176.145,44.145 177.300 C 44.531 181.004,44.875 182.799,45.242 183.026 C 45.439 183.148,45.600 183.766,45.600 184.400 C 45.600 185.034,45.780 185.664,46.000 185.800 C 46.220 185.936,46.400 186.566,46.400 187.200 C 46.400 187.834,46.580 188.464,46.800 188.600 C 47.020 188.736,47.200 189.276,47.200 189.800 C 47.200 190.324,47.380 190.864,47.600 191.000 C 47.820 191.136,48.000 191.687,48.000 192.224 C 48.000 192.761,48.180 193.200,48.400 193.200 C 48.620 193.200,48.800 193.740,48.800 194.400 C 48.800 195.060,48.980 195.600,49.200 195.600 C 49.420 195.600,49.600 195.949,49.600 196.376 C 49.600 196.803,49.780 197.264,50.000 197.400 C 50.220 197.536,50.400 198.087,50.400 198.624 C 50.400 199.161,50.580 199.600,50.800 199.600 C 51.020 199.600,51.200 199.960,51.200 200.400 C 51.200 200.840,51.380 201.200,51.600 201.200 C 51.820 201.200,52.000 201.549,52.000 201.976 C 52.000 202.403,52.180 202.864,52.400 203.000 C 52.620 203.136,52.800 203.597,52.800 204.024 C 52.800 204.451,52.980 204.800,53.200 204.800 C 53.420 204.800,53.600 205.160,53.600 205.600 C 53.600 206.040,53.735 206.401,53.900 206.403 C 54.211 206.406,55.200 208.303,55.200 208.896 C 55.200 209.082,55.560 209.620,56.000 210.092 C 56.440 210.564,56.800 211.187,56.800 211.475 C 56.800 211.764,56.980 212.000,57.200 212.000 C 57.420 212.000,57.600 212.360,57.600 212.800 C 57.600 213.240,57.780 213.600,58.000 213.600 C 58.220 213.600,58.400 213.862,58.400 214.182 C 58.400 214.674,59.582 216.745,60.694 218.200 C 60.862 218.420,61.255 219.095,61.568 219.700 C 61.880 220.305,62.285 220.800,62.468 220.800 C 62.650 220.800,62.800 220.978,62.800 221.195 C 62.800 221.567,63.560 222.615,64.700 223.816 C 64.975 224.106,65.200 224.463,65.200 224.611 C 65.200 224.758,65.740 225.383,66.400 226.000 C 67.060 226.617,67.600 227.302,67.600 227.524 C 67.600 227.889,70.181 230.679,76.737 237.400 C 80.111 240.858,83.577 244.000,84.018 244.000 C 84.228 244.000,85.141 244.720,86.048 245.600 C 86.955 246.480,87.879 247.200,88.101 247.200 C 88.324 247.200,88.843 247.589,89.256 248.064 C 89.668 248.539,90.139 248.794,90.303 248.631 C 90.466 248.467,90.636 229.043,90.679 205.467 C 90.731 177.575,90.910 161.412,91.191 159.200 C 94.306 134.715,111.006 113.013,133.800 103.828 C 144.379 99.565,152.156 98.402,170.100 98.401 L 181.200 98.400 181.200 92.784 C 181.200 87.948,181.312 86.949,182.004 85.592 C 183.592 82.479,187.504 81.795,190.233 84.153 L 191.800 85.507 192.000 91.853 L 192.200 98.200 224.100 98.302 L 256.000 98.405 255.998 97.502 C 255.993 95.690,254.500 91.200,253.902 91.200 C 253.736 91.200,253.600 90.957,253.600 90.659 C 253.600 90.362,253.060 89.554,252.400 88.863 C 251.740 88.172,251.200 87.424,251.200 87.200 C 251.200 86.976,250.660 86.228,250.000 85.537 C 249.340 84.846,248.800 84.110,248.800 83.901 C 248.800 83.692,248.298 83.044,247.685 82.460 C 247.071 81.877,246.128 80.770,245.590 80.000 C 244.630 78.628,232.997 66.800,232.607 66.800 C 232.380 66.800,231.352 65.965,229.285 64.100 C 228.492 63.385,227.675 62.800,227.469 62.800 C 227.263 62.800,226.803 62.483,226.447 62.096 C 225.629 61.205,223.334 59.553,221.900 58.824 C 221.295 58.517,220.800 58.115,220.800 57.932 C 220.800 57.750,220.480 57.600,220.088 57.600 C 219.697 57.600,219.117 57.240,218.800 56.800 C 218.483 56.360,217.903 56.000,217.512 56.000 C 217.120 56.000,216.800 55.820,216.800 55.600 C 216.800 55.380,216.480 55.200,216.088 55.200 C 215.697 55.200,215.117 54.840,214.800 54.400 C 214.483 53.960,213.903 53.600,213.512 53.600 C 213.120 53.600,212.800 53.420,212.800 53.200 C 212.800 52.980,212.440 52.800,212.000 52.800 C 211.560 52.800,211.200 52.620,211.200 52.400 C 211.200 52.180,210.855 52.000,210.433 52.000 C 210.012 52.000,209.607 51.865,209.533 51.700 C 209.341 51.268,206.028 49.600,205.362 49.600 C 205.053 49.600,204.800 49.420,204.800 49.200 C 204.800 48.980,204.350 48.800,203.800 48.800 C 203.250 48.800,202.800 48.620,202.800 48.400 C 202.800 48.180,202.440 48.000,202.000 48.000 C 201.560 48.000,201.200 47.820,201.200 47.600 C 201.200 47.380,200.660 47.200,200.000 47.200 C 199.340 47.200,198.800 47.020,198.800 46.800 C 198.800 46.580,198.440 46.400,198.000 46.400 C 197.560 46.400,197.200 46.220,197.200 46.000 C 197.200 45.780,196.660 45.600,196.000 45.600 C 195.340 45.600,194.800 45.420,194.800 45.200 C 194.800 44.980,194.260 44.800,193.600 44.800 C 192.940 44.800,192.400 44.640,192.400 44.444 C 192.400 44.248,191.815 43.995,191.100 43.881 C 190.385 43.767,189.080 43.462,188.200 43.203 C 185.913 42.529,180.987 41.598,178.300 41.332 C 177.035 41.206,176.000 40.945,176.000 40.752 C 176.000 40.558,174.661 40.400,173.024 40.400 C 171.387 40.400,169.936 40.220,169.800 40.000 C 169.644 39.748,165.070 39.600,157.400 39.600 C 149.730 39.600,145.156 39.748,145.000 40.000 M147.463 50.221 C 149.949 52.117,150.581 54.538,149.281 57.186 C 146.118 63.624,136.258 59.287,138.808 52.579 C 140.075 49.247,144.577 48.020,147.463 50.221 M79.400 78.207 C 71.454 82.488,74.762 94.121,83.627 93.071 C 93.029 91.958,92.517 78.221,83.053 77.696 C 81.339 77.601,80.238 77.755,79.400 78.207 M152.200 110.089 C 139.747 112.026,129.917 116.732,119.942 125.532 C 116.927 128.192,109.600 137.553,109.600 138.745 C 109.600 138.958,109.464 139.193,109.298 139.267 C 109.013 139.393,106.706 143.963,105.951 145.900 C 105.758 146.395,105.438 147.205,105.240 147.700 C 104.488 149.582,103.994 151.269,102.865 155.800 C 102.645 156.680,102.344 158.525,102.194 159.900 L 101.921 162.400 224.010 162.400 L 346.099 162.400 345.864 160.300 C 345.734 159.145,345.451 157.390,345.236 156.400 C 345.020 155.410,344.730 154.060,344.591 153.400 C 344.453 152.740,344.198 151.840,344.025 151.400 C 343.852 150.960,343.491 149.880,343.222 149.000 C 339.908 138.146,330.331 125.829,320.000 119.130 C 315.504 116.215,310.163 113.741,305.200 112.274 C 297.225 109.918,294.192 109.600,279.654 109.600 L 266.800 109.600 266.800 117.950 L 266.800 126.300 268.540 128.116 C 274.346 134.175,272.604 143.159,265.085 145.943 C 253.982 150.053,245.575 135.916,254.345 127.884 L 256.000 126.368 256.000 117.984 L 256.000 109.600 224.200 109.600 L 192.400 109.600 192.400 118.201 L 192.400 126.802 193.952 128.204 C 198.487 132.301,198.376 139.888,193.722 143.985 C 183.485 152.996,169.517 138.032,179.255 128.487 L 181.179 126.600 181.190 118.100 L 181.200 109.600 167.900 109.658 C 160.585 109.690,153.520 109.884,152.200 110.089 " stroke="none" fill="#c4dae8" fill-rule="evenodd"></path><path id="path2" d="M141.557 50.199 C 138.851 51.670,138.285 56.521,140.579 58.592 C 142.021 59.893,146.000 60.633,146.000 59.600 C 146.000 59.380,146.239 59.200,146.530 59.200 C 147.656 59.200,148.912 57.258,149.108 55.212 C 149.518 50.953,145.309 48.159,141.557 50.199 M317.814 59.280 C 316.326 60.143,315.200 61.565,315.200 62.582 C 315.200 63.142,315.020 63.600,314.800 63.600 C 314.580 63.600,314.400 64.140,314.400 64.800 C 314.400 65.460,314.580 66.000,314.800 66.000 C 315.020 66.000,315.200 66.458,315.200 67.017 C 315.200 67.758,316.069 68.894,318.400 71.200 C 320.160 72.941,321.600 74.489,321.600 74.639 C 321.600 74.790,320.160 76.313,318.400 78.024 C 316.030 80.328,315.200 81.403,315.200 82.167 C 315.200 82.735,315.020 83.200,314.800 83.200 C 314.580 83.200,314.400 83.729,314.400 84.376 C 314.400 85.023,314.580 85.664,314.800 85.800 C 315.020 85.936,315.200 86.417,315.200 86.870 C 315.200 88.664,317.896 90.400,320.684 90.400 C 323.733 90.400,324.207 90.148,327.659 86.700 C 330.980 83.382,330.537 83.349,334.424 87.200 L 337.655 90.400 340.233 90.400 C 343.361 90.400,345.600 89.327,345.600 87.829 C 345.600 87.483,345.780 87.200,346.000 87.200 C 346.229 87.200,346.400 86.000,346.400 84.400 C 346.400 82.800,346.229 81.600,346.000 81.600 C 345.780 81.600,345.600 81.333,345.600 81.006 C 345.600 80.680,344.340 79.199,342.800 77.716 C 341.260 76.232,340.000 74.911,340.000 74.780 C 340.000 74.648,341.260 73.243,342.800 71.656 C 344.340 70.070,345.600 68.508,345.600 68.186 C 345.600 67.864,345.780 67.600,346.000 67.600 C 346.229 67.600,346.400 66.400,346.400 64.800 C 346.400 63.200,346.229 62.000,346.000 62.000 C 345.780 62.000,345.600 61.732,345.600 61.405 C 345.600 60.296,342.603 58.800,340.382 58.800 C 337.793 58.800,337.242 59.113,333.949 62.452 C 330.722 65.724,330.841 65.706,328.471 63.272 C 324.359 59.051,320.622 57.651,317.814 59.280 M77.800 66.400 C 77.664 66.620,77.113 66.800,76.576 66.800 C 76.039 66.800,75.600 66.980,75.600 67.200 C 75.600 67.420,75.366 67.600,75.080 67.600 C 74.344 67.600,72.407 68.541,72.403 68.900 C 72.401 69.065,72.126 69.200,71.791 69.200 C 71.049 69.200,67.217 72.994,66.432 74.506 C 66.120 75.108,65.715 75.600,65.532 75.600 C 65.350 75.600,65.200 75.960,65.200 76.400 C 65.200 76.840,65.020 77.200,64.800 77.200 C 64.580 77.200,64.400 77.650,64.400 78.200 C 64.400 78.750,64.220 79.200,64.000 79.200 C 63.778 79.200,63.600 80.259,63.600 81.576 C 63.600 82.883,63.420 84.064,63.200 84.200 C 62.434 84.673,62.808 86.230,64.000 87.536 C 64.660 88.258,65.200 89.291,65.200 89.830 C 65.200 90.370,65.357 91.123,65.550 91.505 C 65.742 91.887,66.306 93.010,66.803 94.000 C 70.267 100.896,79.203 104.941,86.680 102.997 C 106.220 97.916,104.985 70.459,85.079 67.390 C 84.242 67.261,83.458 66.896,83.336 66.578 C 83.075 65.897,78.207 65.741,77.800 66.400 M86.688 78.025 C 88.306 78.908,89.995 80.681,89.998 81.500 C 89.999 81.775,90.180 82.000,90.400 82.000 C 91.062 82.000,90.882 87.713,90.176 89.128 C 88.653 92.180,83.992 94.592,81.416 93.660 C 80.716 93.407,79.841 93.200,79.472 93.200 C 79.102 93.200,78.800 93.020,78.800 92.800 C 78.800 92.580,78.564 92.400,78.275 92.400 C 77.629 92.400,75.600 90.335,75.600 89.678 C 75.600 89.415,75.440 89.200,75.245 89.200 C 74.485 89.200,74.093 85.316,74.611 82.908 C 74.881 81.649,77.396 78.679,79.000 77.724 C 80.376 76.904,84.963 77.084,86.688 78.025 M259.800 82.000 C 259.664 82.220,259.195 82.400,258.758 82.400 C 257.829 82.400,256.000 84.096,256.000 84.958 C 256.000 85.285,255.820 85.664,255.600 85.800 C 254.946 86.204,255.115 92.899,255.822 94.590 C 256.164 95.409,256.389 96.736,256.322 97.539 L 256.200 99.000 224.108 99.102 L 192.016 99.205 191.824 98.302 C 191.718 97.806,191.575 94.811,191.506 91.646 L 191.380 85.891 189.823 84.546 C 187.650 82.667,185.107 82.747,183.180 84.754 C 182.033 85.949,181.838 86.976,181.619 93.000 L 181.400 99.000 166.600 99.237 C 157.350 99.385,150.900 99.660,149.400 99.969 C 145.645 100.743,143.533 101.216,141.800 101.671 C 139.134 102.370,132.300 104.870,130.895 105.659 C 130.169 106.067,129.311 106.400,128.988 106.400 C 128.665 106.400,128.399 106.535,128.397 106.700 C 128.395 106.865,127.990 107.187,127.497 107.417 C 126.095 108.068,123.022 109.776,122.800 110.026 C 122.690 110.151,121.700 110.859,120.600 111.600 C 119.500 112.341,118.510 113.049,118.400 113.174 C 118.290 113.298,117.300 114.120,116.200 115.000 C 108.107 121.475,99.789 132.864,95.898 142.800 C 95.683 143.350,95.348 144.113,95.153 144.495 C 94.959 144.877,94.800 145.541,94.800 145.971 C 94.800 146.401,94.620 146.864,94.400 147.000 C 94.180 147.136,94.000 147.766,94.000 148.400 C 94.000 149.034,93.820 149.664,93.600 149.800 C 93.380 149.936,93.200 150.656,93.200 151.400 C 93.200 152.144,93.020 152.864,92.800 153.000 C 92.580 153.136,92.400 154.011,92.400 154.944 C 92.400 155.877,92.233 156.811,92.028 157.020 C 91.163 157.904,89.881 300.629,90.733 301.161 C 90.944 301.292,91.209 302.390,91.321 303.600 C 91.598 306.573,92.352 310.445,92.818 311.295 C 93.028 311.677,93.200 312.341,93.200 312.771 C 93.200 313.201,93.380 313.664,93.600 313.800 C 93.820 313.936,94.000 314.487,94.000 315.024 C 94.000 315.561,94.180 316.000,94.400 316.000 C 94.620 316.000,94.800 316.355,94.800 316.788 C 94.800 317.221,95.160 318.217,95.600 319.000 C 96.040 319.783,96.400 320.689,96.400 321.012 C 96.400 321.335,96.535 321.601,96.700 321.601 C 96.865 321.602,97.450 322.592,98.000 323.800 C 98.550 325.008,99.113 325.998,99.251 325.999 C 99.390 325.999,99.727 326.540,100.000 327.200 C 100.273 327.860,100.655 328.400,100.849 328.400 C 101.042 328.400,101.200 328.672,101.200 329.004 C 101.200 329.336,101.740 330.172,102.400 330.863 C 103.060 331.554,103.600 332.290,103.600 332.499 C 103.600 332.708,104.140 333.383,104.800 334.000 C 105.460 334.617,106.000 335.330,106.000 335.586 C 106.000 336.183,114.632 344.800,115.230 344.800 C 115.477 344.800,116.183 345.340,116.800 346.000 C 117.417 346.660,118.120 347.200,118.364 347.200 C 118.608 347.200,119.372 347.740,120.063 348.400 C 120.754 349.060,121.562 349.600,121.859 349.600 C 122.157 349.600,122.400 349.780,122.400 350.000 C 122.400 350.220,122.694 350.400,123.053 350.400 C 123.412 350.400,123.997 350.720,124.353 351.111 C 124.922 351.736,130.433 354.591,133.200 355.695 C 133.750 355.914,134.513 356.252,134.895 356.447 C 135.277 356.641,135.941 356.800,136.371 356.800 C 136.801 356.800,137.264 356.980,137.400 357.200 C 137.536 357.420,138.051 357.600,138.544 357.600 C 139.037 357.600,139.624 357.784,139.848 358.008 C 140.073 358.233,141.459 358.529,142.928 358.666 C 144.398 358.803,145.600 359.070,145.600 359.258 C 145.600 359.446,146.680 359.600,148.000 359.600 C 149.333 359.600,150.400 359.778,150.400 360.000 C 150.400 360.554,297.057 360.554,297.400 360.000 C 297.536 359.780,298.706 359.600,300.000 359.600 C 301.294 359.600,302.448 359.446,302.565 359.257 C 302.681 359.069,303.748 358.814,304.936 358.691 C 307.175 358.460,312.500 356.828,312.733 356.301 C 312.807 356.135,313.291 356.000,313.810 356.000 C 314.328 356.000,314.864 355.820,315.000 355.600 C 315.136 355.380,315.597 355.200,316.024 355.200 C 316.451 355.200,316.800 355.020,316.800 354.800 C 316.800 354.580,317.160 354.400,317.600 354.400 C 318.040 354.400,318.400 354.220,318.400 354.000 C 318.400 353.780,318.760 353.600,319.200 353.600 C 319.640 353.600,320.000 353.420,320.000 353.200 C 320.000 352.980,320.360 352.800,320.800 352.800 C 321.240 352.800,321.600 352.664,321.600 352.498 C 321.600 352.331,322.185 351.940,322.900 351.628 C 323.615 351.316,324.491 350.732,324.847 350.330 C 325.203 349.929,325.788 349.600,326.147 349.600 C 326.506 349.600,326.800 349.450,326.800 349.268 C 326.800 349.085,327.295 348.681,327.900 348.370 C 328.505 348.060,329.291 347.489,329.647 347.103 C 330.003 346.716,330.498 346.400,330.747 346.400 C 330.996 346.400,331.200 346.220,331.200 346.000 C 331.200 345.780,331.384 345.600,331.608 345.600 C 332.043 345.600,334.843 343.028,339.010 338.800 C 342.707 335.049,343.200 334.481,343.200 333.975 C 343.200 333.725,343.740 333.017,344.400 332.400 C 345.060 331.783,345.600 331.031,345.600 330.728 C 345.600 330.425,345.960 329.917,346.400 329.600 C 346.840 329.283,347.200 328.786,347.200 328.495 C 347.200 328.204,347.560 327.580,348.000 327.108 C 348.440 326.636,348.800 326.013,348.800 325.725 C 348.800 325.436,348.946 325.200,349.125 325.200 C 349.304 325.200,349.698 324.570,350.000 323.800 C 350.302 323.030,350.696 322.400,350.875 322.400 C 351.054 322.400,351.200 322.040,351.200 321.600 C 351.200 321.160,351.380 320.800,351.600 320.800 C 351.820 320.800,352.000 320.451,352.000 320.024 C 352.000 319.597,352.180 319.136,352.400 319.000 C 352.620 318.864,352.800 318.313,352.800 317.776 C 352.800 317.239,352.980 316.800,353.200 316.800 C 353.420 316.800,353.600 316.451,353.600 316.024 C 353.600 315.597,353.780 315.136,354.000 315.000 C 354.220 314.864,354.400 314.324,354.400 313.800 C 354.400 313.276,354.580 312.736,354.800 312.600 C 355.020 312.464,355.200 311.834,355.200 311.200 C 355.200 310.566,355.360 309.948,355.556 309.827 C 355.751 309.706,356.014 309.021,356.139 308.304 C 356.264 307.587,356.565 306.010,356.808 304.800 C 357.051 303.590,357.442 301.250,357.677 299.600 C 358.278 295.384,358.267 163.434,357.665 159.000 C 356.824 152.797,356.715 152.196,356.359 151.820 C 356.162 151.611,356.000 150.846,356.000 150.120 C 356.000 149.394,355.820 148.800,355.600 148.800 C 355.380 148.800,355.200 148.258,355.200 147.595 C 355.200 146.932,354.992 145.987,354.738 145.495 C 353.767 143.618,353.600 143.193,353.600 142.605 C 353.600 142.272,353.420 142.000,353.200 142.000 C 352.980 142.000,352.800 141.460,352.800 140.800 C 352.800 140.140,352.620 139.600,352.400 139.600 C 352.180 139.600,352.000 139.240,352.000 138.800 C 352.000 138.360,351.820 138.000,351.600 138.000 C 351.380 138.000,351.200 137.640,351.200 137.200 C 351.200 136.760,351.020 136.400,350.800 136.400 C 350.580 136.400,350.400 136.040,350.400 135.600 C 350.400 135.160,350.220 134.800,350.000 134.800 C 349.780 134.800,349.600 134.522,349.600 134.183 C 349.600 133.844,349.240 133.180,348.800 132.708 C 348.360 132.236,348.000 131.613,348.000 131.325 C 348.000 131.036,347.820 130.800,347.600 130.800 C 347.380 130.800,347.200 130.564,347.200 130.275 C 347.200 129.987,346.840 129.364,346.400 128.892 C 345.960 128.420,345.600 127.846,345.600 127.617 C 345.600 127.388,345.420 127.200,345.200 127.200 C 344.980 127.200,344.800 126.973,344.800 126.696 C 344.800 126.419,344.440 125.968,344.000 125.693 C 343.560 125.418,343.200 125.008,343.200 124.782 C 343.200 124.072,332.266 112.800,331.577 112.800 C 331.366 112.800,330.628 112.260,329.937 111.600 C 329.246 110.940,328.438 110.400,328.141 110.400 C 327.843 110.400,327.600 110.247,327.600 110.061 C 327.600 109.874,326.880 109.397,326.000 109.000 C 325.120 108.603,324.400 108.126,324.400 107.939 C 324.400 107.753,324.130 107.600,323.800 107.600 C 323.470 107.600,323.200 107.420,323.200 107.200 C 323.200 106.980,322.840 106.800,322.400 106.800 C 321.960 106.800,321.600 106.620,321.600 106.400 C 321.600 106.180,321.240 106.000,320.800 106.000 C 320.360 106.000,320.000 105.820,320.000 105.600 C 320.000 105.380,319.640 105.200,319.200 105.200 C 318.760 105.200,318.400 105.020,318.400 104.800 C 318.400 104.580,318.040 104.400,317.600 104.400 C 317.160 104.400,316.800 104.220,316.800 104.000 C 316.800 103.780,316.440 103.600,316.000 103.600 C 315.560 103.600,315.200 103.420,315.200 103.200 C 315.200 102.980,314.660 102.800,314.000 102.800 C 313.340 102.800,312.800 102.620,312.800 102.400 C 312.800 102.180,312.260 102.000,311.600 102.000 C 310.940 102.000,310.400 101.820,310.400 101.600 C 310.400 101.380,309.961 101.200,309.424 101.200 C 308.887 101.200,308.336 101.020,308.200 100.800 C 308.064 100.580,307.423 100.400,306.776 100.400 C 306.129 100.400,305.600 100.220,305.600 100.000 C 305.600 99.780,304.790 99.600,303.800 99.600 C 302.810 99.600,302.000 99.420,302.000 99.200 C 302.000 98.978,300.941 98.800,299.624 98.800 C 298.317 98.800,297.136 98.620,297.000 98.400 C 296.843 98.145,291.463 98.000,282.176 98.000 L 267.600 98.000 267.600 92.024 C 267.600 88.471,267.438 85.947,267.200 85.800 C 266.980 85.664,266.800 85.285,266.800 84.958 C 266.800 84.006,264.928 82.400,263.818 82.400 C 263.258 82.400,262.800 82.220,262.800 82.000 C 262.800 81.780,262.181 81.600,261.424 81.600 C 260.667 81.600,259.936 81.780,259.800 82.000 M181.469 122.824 C 181.182 137.857,181.216 138.133,183.576 140.119 C 185.777 141.970,189.170 141.487,190.961 139.067 C 191.776 137.967,191.800 137.526,191.800 123.667 L 191.800 109.400 224.145 109.298 L 256.491 109.195 256.345 123.498 C 256.208 137.019,256.241 137.861,256.959 138.920 C 259.058 142.017,263.674 141.933,265.922 138.758 C 266.536 137.891,266.587 136.439,266.459 123.491 L 266.317 109.181 281.459 109.329 C 290.193 109.414,297.446 109.659,298.600 109.908 C 299.700 110.146,301.369 110.468,302.310 110.624 C 303.250 110.780,304.116 111.064,304.233 111.254 C 304.351 111.444,304.876 111.600,305.400 111.600 C 305.924 111.600,306.464 111.780,306.600 112.000 C 306.736 112.220,307.199 112.400,307.629 112.400 C 308.059 112.400,308.723 112.561,309.105 112.758 C 309.487 112.955,311.553 113.939,313.696 114.945 C 324.576 120.052,335.022 130.170,340.390 140.800 C 341.112 142.230,341.860 143.713,342.051 144.095 C 342.243 144.477,342.400 145.062,342.400 145.395 C 342.400 145.728,342.580 146.000,342.800 146.000 C 343.020 146.000,343.200 146.414,343.200 146.920 C 343.200 147.426,343.349 148.011,343.530 148.220 C 343.712 148.429,344.093 149.410,344.377 150.400 C 344.661 151.390,345.033 152.650,345.204 153.200 C 346.354 156.902,347.001 162.427,346.333 162.850 C 345.255 163.533,102.162 163.277,101.594 162.592 C 100.711 161.529,102.655 152.012,104.779 147.000 C 106.957 141.861,107.618 140.555,109.957 136.755 C 112.787 132.158,118.357 125.847,123.029 121.946 C 126.687 118.892,133.509 114.972,138.200 113.228 C 139.520 112.738,140.913 112.170,141.295 111.968 C 141.677 111.766,142.341 111.600,142.771 111.600 C 143.201 111.600,143.652 111.439,143.774 111.242 C 143.895 111.045,144.671 110.785,145.497 110.663 C 149.360 110.092,151.211 109.723,151.461 109.472 C 151.611 109.323,158.482 109.200,166.731 109.200 L 181.729 109.200 181.469 122.824 M347.126 232.600 C 347.251 291.103,347.174 295.668,345.961 301.800 C 345.284 305.218,343.523 311.143,342.781 312.495 C 342.571 312.877,342.400 313.462,342.400 313.795 C 342.400 314.128,342.220 314.400,342.000 314.400 C 341.780 314.400,341.600 314.664,341.600 314.986 C 341.600 315.695,337.886 322.441,336.308 324.600 C 334.489 327.088,329.345 332.918,327.965 334.055 C 326.994 334.856,325.809 335.855,325.331 336.275 C 322.693 338.597,317.453 342.030,314.400 343.438 C 308.756 346.040,307.382 346.571,303.800 347.540 C 295.941 349.663,298.961 349.586,224.000 349.586 C 153.098 349.586,152.724 349.579,146.800 348.191 C 144.815 347.725,142.584 347.103,141.800 346.795 C 141.360 346.622,140.370 346.265,139.600 346.000 C 138.069 345.475,130.044 341.621,129.400 341.102 C 129.180 340.924,128.100 340.205,127.000 339.504 C 125.900 338.803,124.910 338.133,124.800 338.015 C 124.690 337.897,123.430 336.828,122.000 335.640 C 119.211 333.324,115.804 329.868,114.073 327.600 C 113.485 326.830,112.902 326.110,112.776 326.000 C 112.223 325.517,110.000 322.015,110.000 321.628 C 110.000 321.393,109.865 321.199,109.700 321.197 C 109.535 321.195,109.202 320.790,108.960 320.297 C 108.717 319.804,108.137 318.680,107.670 317.800 C 103.835 310.572,101.917 303.611,101.211 294.367 C 100.589 286.208,100.653 174.307,101.281 173.679 C 101.653 173.307,129.340 173.221,224.381 173.299 L 347.000 173.400 347.126 232.600 M220.600 195.264 C 219.396 195.665,218.508 195.997,207.400 200.196 C 204.100 201.444,200.410 202.827,199.200 203.271 C 197.990 203.715,196.550 204.265,196.000 204.493 C 195.450 204.721,194.550 205.084,194.000 205.300 C 193.450 205.516,192.687 205.852,192.305 206.047 C 191.923 206.241,191.372 206.400,191.081 206.400 C 190.789 206.400,189.805 206.760,188.894 207.200 C 187.984 207.640,187.048 208.000,186.814 208.000 C 186.580 208.000,186.077 208.159,185.695 208.353 C 184.415 209.004,181.964 209.988,179.600 210.800 C 178.202 211.280,177.374 211.599,175.300 212.454 C 173.363 213.252,172.488 213.583,160.600 218.018 C 158.180 218.921,155.840 219.809,155.400 219.992 C 154.960 220.174,153.070 220.898,151.200 221.600 C 149.330 222.302,147.395 223.039,146.900 223.238 C 144.575 224.173,144.109 224.351,142.800 224.800 C 141.491 225.249,141.025 225.427,138.700 226.362 C 138.205 226.561,136.270 227.298,134.400 228.000 C 130.288 229.543,129.684 229.776,128.400 230.306 C 127.850 230.533,126.808 230.942,126.085 231.214 C 123.411 232.221,122.239 235.493,123.651 238.005 C 124.591 239.678,125.761 240.373,129.800 241.655 C 130.680 241.935,131.571 242.307,131.780 242.482 C 131.989 242.657,132.478 242.800,132.866 242.800 C 134.311 242.800,134.400 243.970,134.400 262.941 C 134.400 283.807,134.547 282.507,132.050 283.781 C 128.140 285.777,123.600 290.460,123.600 292.498 C 123.600 292.796,123.382 293.258,123.115 293.525 C 122.476 294.164,122.431 302.325,123.059 303.639 C 123.312 304.168,123.829 305.305,124.209 306.166 C 126.946 312.370,137.387 316.803,143.481 314.349 C 157.419 308.737,159.026 290.261,146.105 284.196 L 144.409 283.400 144.405 265.257 L 144.400 247.113 145.500 247.371 C 146.105 247.513,147.500 247.969,148.600 248.384 C 149.700 248.800,152.760 249.922,155.400 250.877 L 160.200 252.615 160.400 276.007 C 160.635 303.456,160.087 300.943,166.400 303.538 C 167.610 304.036,169.005 304.613,169.500 304.821 C 171.797 305.788,172.302 305.980,173.800 306.455 C 174.680 306.735,175.571 307.107,175.780 307.282 C 175.989 307.457,176.563 307.600,177.056 307.600 C 177.549 307.600,178.064 307.780,178.200 308.000 C 178.336 308.220,178.966 308.400,179.600 308.400 C 180.234 308.400,180.864 308.580,181.000 308.800 C 181.136 309.020,181.676 309.200,182.200 309.200 C 182.724 309.200,183.252 309.361,183.374 309.558 C 183.495 309.755,184.271 310.010,185.097 310.125 C 185.924 310.240,187.410 310.541,188.400 310.792 C 199.114 313.516,214.733 314.776,228.372 314.017 C 239.960 313.372,246.605 312.474,258.200 309.986 C 259.080 309.797,260.340 309.530,261.000 309.391 C 261.660 309.253,262.560 308.995,263.000 308.819 C 263.440 308.642,264.790 308.283,266.000 308.020 C 267.210 307.756,268.650 307.396,269.200 307.219 C 269.750 307.042,271.550 306.488,273.200 305.989 C 278.653 304.340,285.330 301.990,285.896 301.520 C 287.587 300.117,287.600 299.918,287.600 275.599 L 287.600 252.359 289.100 251.730 C 291.080 250.900,299.527 248.002,300.800 247.717 C 301.350 247.594,301.980 247.369,302.200 247.218 C 302.420 247.068,303.410 246.711,304.400 246.426 C 305.390 246.142,306.560 245.761,307.000 245.581 C 307.440 245.400,308.520 245.024,309.400 244.745 C 310.280 244.465,311.171 244.093,311.380 243.918 C 311.589 243.743,312.163 243.600,312.656 243.600 C 313.149 243.600,313.664 243.420,313.800 243.200 C 313.936 242.980,314.451 242.800,314.944 242.800 C 315.437 242.800,316.011 242.652,316.220 242.472 C 316.429 242.292,317.900 241.723,319.490 241.208 C 323.430 239.932,324.800 238.572,324.800 235.938 C 324.800 232.673,323.842 231.729,318.800 230.026 C 317.370 229.543,315.795 228.979,315.300 228.774 C 313.526 228.037,312.579 227.673,311.200 227.200 C 310.430 226.936,309.440 226.576,309.000 226.400 C 308.560 226.224,307.570 225.864,306.800 225.600 C 306.030 225.336,305.040 224.976,304.600 224.800 C 304.160 224.624,303.170 224.264,302.400 224.000 C 301.630 223.736,300.640 223.376,300.200 223.200 C 299.760 223.024,298.770 222.664,298.000 222.400 C 297.230 222.136,296.240 221.775,295.800 221.599 C 294.586 221.112,291.154 219.860,285.400 217.804 C 282.540 216.782,279.255 215.598,278.100 215.173 C 275.816 214.332,272.896 213.269,269.300 211.968 C 268.035 211.510,266.687 210.970,266.305 210.768 C 265.923 210.566,265.336 210.400,265.000 210.400 C 264.664 210.400,264.077 210.241,263.695 210.047 C 262.760 209.571,261.293 208.982,259.600 208.400 C 258.830 208.136,257.840 207.776,257.400 207.600 C 256.960 207.424,255.970 207.064,255.200 206.800 C 254.430 206.536,253.440 206.175,253.000 205.999 C 251.444 205.375,247.701 204.020,239.200 201.002 C 234.470 199.323,230.240 197.798,229.800 197.612 C 227.862 196.794,225.306 195.873,224.200 195.595 C 223.540 195.428,222.730 195.196,222.400 195.078 C 222.070 194.960,221.260 195.043,220.600 195.264 M229.864 208.574 C 233.789 209.990,238.530 211.716,240.400 212.410 C 242.270 213.104,244.250 213.814,244.800 213.989 C 245.913 214.342,248.967 215.489,250.200 216.017 C 250.640 216.206,251.810 216.622,252.800 216.942 C 253.790 217.262,255.320 217.798,256.200 218.133 C 260.018 219.584,269.198 222.943,276.600 225.598 C 284.019 228.259,289.096 230.102,294.300 232.024 C 304.616 235.834,304.031 235.503,301.900 236.328 C 301.185 236.605,298.260 237.622,295.400 238.589 C 292.540 239.556,285.160 242.079,279.000 244.195 C 272.840 246.311,265.730 248.741,263.200 249.596 C 260.670 250.451,255.450 252.242,251.600 253.577 C 247.750 254.912,239.504 257.733,233.275 259.847 L 221.950 263.690 220.275 263.069 C 219.354 262.727,215.450 261.335,211.600 259.975 C 207.750 258.615,202.620 256.791,200.200 255.921 C 197.780 255.051,195.350 254.189,194.800 254.005 C 194.250 253.822,192.270 253.101,190.400 252.404 C 188.530 251.707,186.010 250.811,184.800 250.411 C 183.590 250.012,181.790 249.379,180.800 249.004 C 176.826 247.499,174.521 246.669,163.000 242.593 C 156.400 240.258,149.740 237.892,148.200 237.335 C 146.660 236.779,145.085 236.230,144.700 236.115 C 143.480 235.752,143.916 235.433,147.501 234.067 C 149.426 233.334,151.360 232.587,151.800 232.406 C 152.240 232.224,154.040 231.534,155.800 230.871 C 157.560 230.208,160.890 228.944,163.200 228.063 C 165.510 227.183,170.730 225.208,174.800 223.676 C 178.870 222.143,183.460 220.402,185.000 219.806 C 186.540 219.210,189.240 218.182,191.000 217.523 C 192.760 216.863,194.560 216.178,195.000 215.999 C 195.957 215.611,201.250 213.581,212.600 209.249 C 222.725 205.385,221.189 205.445,229.864 208.574 M277.200 275.167 L 277.200 293.934 274.100 294.946 C 261.208 299.155,248.846 301.799,233.636 303.601 C 229.156 304.132,211.075 304.112,206.800 303.571 C 198.197 302.482,193.307 301.523,184.600 299.214 C 182.457 298.647,177.075 296.775,173.900 295.494 L 170.800 294.243 170.800 275.721 C 170.800 258.929,170.860 257.200,171.447 257.200 C 172.005 257.200,182.736 260.860,189.100 263.221 C 193.570 264.879,195.526 265.586,199.000 266.798 C 200.980 267.489,202.960 268.211,203.400 268.403 C 204.226 268.763,209.251 270.542,217.106 273.256 C 222.291 275.047,221.430 275.121,230.200 272.132 C 233.720 270.932,239.030 269.145,242.000 268.161 C 244.970 267.176,247.760 266.207,248.200 266.005 C 248.640 265.804,253.410 264.152,258.800 262.334 C 264.190 260.516,270.220 258.457,272.200 257.758 C 274.180 257.059,276.115 256.468,276.500 256.444 C 277.157 256.403,277.200 257.544,277.200 275.167 M141.927 293.612 C 144.792 295.359,145.467 299.505,143.342 302.305 C 139.891 306.852,132.806 304.404,132.801 298.662 C 132.798 294.086,137.991 291.212,141.927 293.612 " stroke="none" fill="#4c241c" fill-rule="evenodd"></path><path id="path3" d="M140.450 50.353 C 137.436 53.168,137.832 57.490,141.296 59.602 C 145.910 62.415,151.850 57.137,149.400 52.401 C 147.699 49.111,142.944 48.023,140.450 50.353 M146.489 50.022 C 149.881 51.568,149.916 59.200,146.530 59.200 C 146.239 59.200,146.000 59.380,146.000 59.600 C 146.000 60.170,142.957 60.096,141.910 59.500 C 136.020 56.150,140.335 47.218,146.489 50.022 M83.297 66.500 C 83.387 66.775,84.167 67.148,85.030 67.328 C 105.171 71.539,106.389 97.872,86.680 102.997 C 79.203 104.941,70.267 100.896,66.803 94.000 C 66.306 93.010,65.742 91.887,65.550 91.505 C 65.357 91.123,65.200 90.437,65.200 89.979 C 65.200 88.860,64.569 87.750,63.755 87.438 C 63.221 87.233,63.179 87.293,63.547 87.736 C 63.800 88.042,64.381 89.427,64.836 90.816 C 70.513 108.107,93.713 108.488,100.415 91.400 C 102.841 85.214,100.952 77.311,95.820 72.180 C 93.398 69.758,88.977 67.200,87.212 67.200 C 86.751 67.200,85.728 66.930,84.938 66.600 C 83.197 65.872,83.089 65.866,83.297 66.500 M79.000 77.724 C 77.396 78.679,74.881 81.649,74.611 82.908 C 74.093 85.316,74.485 89.200,75.245 89.200 C 75.440 89.200,75.600 89.415,75.600 89.678 C 75.600 90.335,77.629 92.400,78.275 92.400 C 78.564 92.400,78.800 92.580,78.800 92.800 C 78.800 93.020,79.102 93.200,79.472 93.200 C 79.841 93.200,80.716 93.407,81.416 93.660 C 83.992 94.592,88.653 92.180,90.176 89.128 C 90.882 87.713,91.062 82.000,90.400 82.000 C 90.180 82.000,89.999 81.775,89.998 81.500 C 89.986 78.576,82.110 75.871,79.000 77.724 M87.105 78.890 C 92.963 82.766,90.640 92.241,83.627 93.071 C 74.762 94.121,71.454 82.488,79.400 78.207 C 81.247 77.211,85.083 77.552,87.105 78.890 M183.902 83.428 C 181.757 84.591,181.200 86.520,181.200 92.784 L 181.200 98.400 169.900 98.413 C 152.514 98.432,144.632 99.538,135.200 103.281 C 130.618 105.099,128.553 106.107,129.055 106.280 C 129.305 106.366,130.119 106.095,130.862 105.677 C 132.293 104.874,139.107 102.377,141.800 101.671 C 143.533 101.216,145.645 100.743,149.400 99.969 C 150.900 99.660,157.350 99.385,166.600 99.237 L 181.400 99.000 181.619 93.000 C 181.838 86.976,182.033 85.949,183.180 84.754 C 185.107 82.747,187.650 82.667,189.823 84.546 L 191.380 85.891 191.506 91.646 C 191.575 94.811,191.718 97.806,191.824 98.302 L 192.016 99.205 224.108 99.102 L 256.200 99.000 256.321 97.549 C 256.388 96.751,256.160 95.491,255.815 94.749 C 255.470 94.007,255.289 93.752,255.413 94.182 C 255.537 94.612,255.744 95.738,255.874 96.684 L 256.109 98.405 224.155 98.302 L 192.200 98.200 192.000 91.853 L 191.800 85.507 190.233 84.153 C 188.458 82.620,185.926 82.330,183.902 83.428 M126.400 107.286 C 109.017 117.468,97.200 132.956,92.623 151.559 C 91.523 156.030,91.367 157.391,92.000 157.000 C 92.220 156.864,92.400 155.964,92.400 155.000 C 92.400 154.036,92.580 153.136,92.800 153.000 C 93.020 152.864,93.200 152.144,93.200 151.400 C 93.200 150.656,93.380 149.936,93.600 149.800 C 93.820 149.664,94.000 149.034,94.000 148.400 C 94.000 147.766,94.180 147.136,94.400 147.000 C 94.620 146.864,94.800 146.401,94.800 145.971 C 94.800 145.541,94.959 144.877,95.153 144.495 C 95.348 144.113,95.683 143.350,95.898 142.800 C 99.789 132.864,108.107 121.475,116.200 115.000 C 117.300 114.120,118.290 113.298,118.400 113.174 C 118.510 113.049,119.500 112.341,120.600 111.600 C 121.700 110.859,122.690 110.151,122.800 110.026 C 123.022 109.776,126.095 108.068,127.497 107.417 C 127.990 107.187,128.395 106.865,128.397 106.700 C 128.402 106.248,127.942 106.383,126.400 107.286 M151.461 109.472 C 151.211 109.723,149.360 110.092,145.497 110.663 C 144.671 110.785,143.895 111.045,143.774 111.242 C 143.652 111.439,143.201 111.600,142.771 111.600 C 142.341 111.600,141.677 111.766,141.295 111.968 C 140.913 112.170,139.520 112.738,138.200 113.228 C 124.455 118.338,111.791 130.601,105.803 144.600 C 105.426 145.480,104.966 146.560,104.779 147.000 C 102.655 152.012,100.711 161.529,101.594 162.592 C 102.162 163.277,345.255 163.533,346.333 162.850 C 347.001 162.427,346.354 156.902,345.204 153.200 C 345.033 152.650,344.661 151.390,344.377 150.400 C 344.093 149.410,343.712 148.429,343.530 148.220 C 343.349 148.011,343.200 147.426,343.200 146.920 C 343.200 146.414,343.020 146.000,342.800 146.000 C 342.580 146.000,342.400 145.728,342.400 145.395 C 342.400 145.062,342.243 144.477,342.051 144.095 C 341.860 143.713,341.112 142.230,340.390 140.800 C 335.022 130.170,324.576 120.052,313.696 114.945 C 311.553 113.939,309.487 112.955,309.105 112.758 C 308.723 112.561,308.059 112.400,307.629 112.400 C 307.199 112.400,306.736 112.220,306.600 112.000 C 306.464 111.780,305.924 111.600,305.400 111.600 C 304.876 111.600,304.351 111.444,304.233 111.254 C 304.116 111.064,303.250 110.780,302.310 110.624 C 301.369 110.468,299.700 110.146,298.600 109.908 C 297.446 109.659,290.193 109.414,281.459 109.329 L 266.317 109.181 266.459 123.491 C 266.587 136.439,266.536 137.891,265.922 138.758 C 263.674 141.933,259.058 142.017,256.959 138.920 C 256.241 137.861,256.208 137.019,256.345 123.498 L 256.491 109.195 224.145 109.298 L 191.800 109.400 191.800 123.667 C 191.800 137.526,191.776 137.967,190.961 139.067 C 189.170 141.487,185.777 141.970,183.576 140.119 C 181.216 138.133,181.182 137.857,181.469 122.824 L 181.729 109.200 166.731 109.200 C 158.482 109.200,151.611 109.323,151.461 109.472 M181.190 118.100 L 181.179 126.600 179.255 128.487 C 169.517 138.032,183.485 152.996,193.722 143.985 C 198.376 139.888,198.487 132.301,193.952 128.204 L 192.400 126.802 192.400 118.201 L 192.400 109.600 224.200 109.600 L 256.000 109.600 256.000 117.984 L 256.000 126.368 254.345 127.884 C 245.575 135.916,253.982 150.053,265.085 145.943 C 272.604 143.159,274.346 134.175,268.540 128.116 L 266.800 126.300 266.800 117.950 L 266.800 109.600 279.654 109.600 C 294.192 109.600,297.225 109.918,305.200 112.274 C 310.163 113.741,315.504 116.215,320.000 119.130 C 330.331 125.829,339.908 138.146,343.222 149.000 C 343.491 149.880,343.852 150.960,344.025 151.400 C 344.198 151.840,344.453 152.740,344.591 153.400 C 344.730 154.060,345.020 155.410,345.236 156.400 C 345.451 157.390,345.734 159.145,345.864 160.300 L 346.099 162.400 224.010 162.400 L 101.921 162.400 102.194 159.900 C 102.344 158.525,102.645 156.680,102.865 155.800 C 103.994 151.269,104.488 149.582,105.240 147.700 C 105.438 147.205,105.758 146.395,105.951 145.900 C 106.706 143.963,109.013 139.393,109.298 139.267 C 109.464 139.193,109.600 138.958,109.600 138.745 C 109.600 137.553,116.927 128.192,119.942 125.532 C 128.508 117.975,135.967 113.923,145.880 111.443 C 152.216 109.858,153.933 109.719,167.900 109.658 L 181.200 109.600 181.190 118.100 M91.100 159.959 C 90.935 161.366,90.818 163.346,90.840 164.359 L 90.880 166.200 91.255 164.600 C 91.461 163.720,91.578 161.740,91.515 160.200 L 91.400 157.400 91.100 159.959 M90.501 168.200 C 90.505 169.080,90.587 169.393,90.683 168.895 C 90.779 168.398,90.775 167.678,90.675 167.295 C 90.575 166.913,90.496 167.320,90.501 168.200 M346.299 173.492 C 346.692 173.771,346.819 186.555,346.901 234.223 L 347.004 294.600 347.002 234.033 C 347.000 180.537,346.930 173.448,346.400 173.303 C 345.957 173.182,345.931 173.232,346.299 173.492 M100.995 232.600 C 100.995 264.940,101.042 278.111,101.100 261.869 C 101.158 245.626,101.158 219.166,101.100 203.069 C 101.042 186.971,100.995 200.260,100.995 232.600 M219.800 195.200 C 219.296 195.417,219.222 195.544,219.600 195.544 C 219.930 195.544,220.560 195.389,221.000 195.200 C 221.504 194.983,221.578 194.856,221.200 194.856 C 220.870 194.856,220.240 195.011,219.800 195.200 M212.600 209.249 C 201.250 213.581,195.957 215.611,195.000 215.999 C 194.560 216.178,192.760 216.863,191.000 217.523 C 189.240 218.182,186.540 219.210,185.000 219.806 C 183.460 220.402,178.870 222.143,174.800 223.676 C 170.730 225.208,165.510 227.183,163.200 228.063 C 160.890 228.944,157.560 230.208,155.800 230.871 C 154.040 231.534,152.240 232.224,151.800 232.406 C 151.360 232.587,149.426 233.334,147.501 234.067 C 143.916 235.433,143.480 235.752,144.700 236.115 C 145.085 236.230,146.660 236.779,148.200 237.335 C 149.740 237.892,156.400 240.258,163.000 242.593 C 174.521 246.669,176.826 247.499,180.800 249.004 C 181.790 249.379,183.590 250.012,184.800 250.411 C 186.010 250.811,188.530 251.707,190.400 252.404 C 192.270 253.101,194.250 253.822,194.800 254.005 C 195.350 254.189,197.780 255.051,200.200 255.921 C 202.620 256.791,207.750 258.615,211.600 259.975 C 215.450 261.335,219.354 262.727,220.275 263.069 L 221.950 263.690 233.275 259.847 C 239.504 257.733,247.750 254.912,251.600 253.577 C 255.450 252.242,260.670 250.451,263.200 249.596 C 265.730 248.741,272.840 246.311,279.000 244.195 C 285.160 242.079,292.540 239.556,295.400 238.589 C 304.942 235.363,304.625 235.838,298.700 233.649 C 297.435 233.182,295.455 232.451,294.300 232.024 C 289.096 230.102,284.019 228.259,276.600 225.598 C 269.198 222.943,260.018 219.584,256.200 218.133 C 255.320 217.798,253.790 217.262,252.800 216.942 C 251.810 216.622,250.640 216.206,250.200 216.017 C 248.967 215.489,245.913 214.342,244.800 213.989 C 244.250 213.814,242.270 213.104,240.400 212.410 C 229.767 208.464,222.624 206.003,221.864 206.021 C 221.389 206.033,217.220 207.486,212.600 209.249 M167.001 215.254 C 164.821 216.138,164.006 216.683,165.598 216.192 C 167.069 215.738,169.864 214.458,169.400 214.450 C 169.180 214.447,168.101 214.808,167.001 215.254 M324.901 235.800 C 324.905 236.680,324.987 236.993,325.083 236.495 C 325.179 235.998,325.175 235.278,325.075 234.895 C 324.975 234.513,324.896 234.920,324.901 235.800 M133.200 243.191 C 133.715 243.517,133.829 246.306,134.008 262.885 L 134.215 282.200 134.308 263.274 C 134.399 244.540,134.295 242.791,133.086 242.806 C 132.782 242.810,132.825 242.955,133.200 243.191 M287.784 252.500 C 287.678 252.775,287.639 263.260,287.696 275.800 L 287.800 298.600 288.000 275.300 C 288.110 262.485,288.149 252.000,288.087 252.000 C 288.026 252.000,287.889 252.225,287.784 252.500 M160.000 275.120 L 160.200 297.800 160.303 275.423 C 160.360 263.116,160.270 252.910,160.103 252.743 C 159.937 252.576,159.890 262.646,160.000 275.120 M272.200 257.758 C 270.220 258.457,264.190 260.516,258.800 262.334 C 253.410 264.152,248.640 265.804,248.200 266.005 C 247.760 266.207,244.970 267.176,242.000 268.161 C 239.030 269.145,233.720 270.932,230.200 272.132 C 221.430 275.121,222.291 275.047,217.106 273.256 C 209.251 270.542,204.226 268.763,203.400 268.403 C 202.960 268.211,200.980 267.489,199.000 266.798 C 195.526 265.586,193.570 264.879,189.100 263.221 C 182.736 260.860,172.005 257.200,171.447 257.200 C 170.860 257.200,170.800 258.929,170.800 275.721 L 170.800 294.243 173.900 295.494 C 177.075 296.775,182.457 298.647,184.600 299.214 C 193.307 301.523,198.197 302.482,206.800 303.571 C 211.075 304.112,229.156 304.132,233.636 303.601 C 248.846 301.799,261.208 299.155,274.100 294.946 L 277.200 293.934 277.200 275.167 C 277.200 257.544,277.157 256.403,276.500 256.444 C 276.115 256.468,274.180 257.059,272.200 257.758 M145.600 283.750 C 145.600 283.844,146.241 284.299,147.024 284.761 C 147.807 285.223,148.336 285.420,148.199 285.198 C 147.931 284.764,145.600 283.466,145.600 283.750 M150.374 287.400 C 152.734 290.098,153.080 290.418,152.101 289.000 C 151.646 288.340,150.677 287.260,149.948 286.600 C 148.970 285.713,149.081 285.922,150.374 287.400 M101.320 295.200 C 101.320 296.410,101.395 296.905,101.487 296.300 C 101.578 295.695,101.578 294.705,101.487 294.100 C 101.395 293.495,101.320 293.990,101.320 295.200 M122.040 298.633 C 122.062 299.715,122.222 301.050,122.397 301.600 C 122.581 302.181,122.625 301.427,122.501 299.800 C 122.251 296.504,121.983 295.827,122.040 298.633 M346.093 299.600 C 346.093 300.370,346.175 300.685,346.276 300.300 C 346.376 299.915,346.376 299.285,346.276 298.900 C 346.175 298.515,346.093 298.830,346.093 299.600 M152.699 306.832 C 152.095 307.914,151.683 308.800,151.783 308.800 C 152.057 308.800,154.121 305.188,153.947 305.014 C 153.865 304.932,153.303 305.750,152.699 306.832 M274.400 305.618 C 273.962 305.915,274.124 305.952,275.000 305.756 C 276.471 305.427,276.790 305.198,275.767 305.206 C 275.345 305.209,274.730 305.395,274.400 305.618 M125.600 308.655 C 125.600 308.868,126.275 309.663,127.100 310.422 L 128.600 311.800 127.200 310.204 C 126.430 309.327,125.755 308.532,125.700 308.438 C 125.645 308.344,125.600 308.441,125.600 308.655 M193.000 312.000 C 193.440 312.189,194.070 312.344,194.400 312.344 C 194.778 312.344,194.704 312.217,194.200 312.000 C 193.760 311.811,193.130 311.656,192.800 311.656 C 192.422 311.656,192.496 311.783,193.000 312.000 M248.000 312.018 C 247.562 312.315,247.724 312.352,248.600 312.156 C 250.071 311.827,250.390 311.598,249.367 311.606 C 248.945 311.609,248.330 311.795,248.000 312.018 M197.400 312.800 C 197.840 312.989,198.560 313.138,199.000 313.132 C 199.643 313.123,199.604 313.057,198.800 312.800 C 197.432 312.362,196.381 312.362,197.400 312.800 M242.400 312.800 C 241.608 313.054,241.567 313.120,242.200 313.120 C 242.640 313.120,243.450 312.976,244.000 312.800 C 244.792 312.546,244.833 312.480,244.200 312.480 C 243.760 312.480,242.950 312.624,242.400 312.800 M203.000 313.600 C 204.692 314.031,206.144 314.031,204.800 313.600 C 204.250 313.424,203.350 313.283,202.800 313.287 C 201.902 313.294,201.922 313.326,203.000 313.600 M235.800 313.600 C 234.730 313.872,234.708 313.905,235.600 313.905 C 236.150 313.905,237.140 313.768,237.800 313.600 C 238.870 313.328,238.892 313.295,238.000 313.295 C 237.450 313.295,236.460 313.432,235.800 313.600 M211.500 314.289 C 212.215 314.378,213.385 314.378,214.100 314.289 C 214.815 314.201,214.230 314.128,212.800 314.128 C 211.370 314.128,210.785 314.201,211.500 314.289 M226.700 314.289 C 227.415 314.378,228.585 314.378,229.300 314.289 C 230.015 314.201,229.430 314.128,228.000 314.128 C 226.570 314.128,225.985 314.201,226.700 314.289 M218.300 314.693 C 219.235 314.777,220.765 314.777,221.700 314.693 C 222.635 314.609,221.870 314.540,220.000 314.540 C 218.130 314.540,217.365 314.609,218.300 314.693 M137.507 315.090 C 138.226 315.179,139.306 315.177,139.907 315.086 C 140.508 314.995,139.920 314.922,138.600 314.924 C 137.280 314.926,136.788 315.001,137.507 315.090 M114.000 327.725 C 114.000 327.794,114.585 328.379,115.300 329.025 L 116.600 330.200 115.425 328.900 C 114.330 327.688,114.000 327.416,114.000 327.725 M329.600 332.200 C 328.628 333.190,327.923 334.000,328.033 334.000 C 328.143 334.000,329.028 333.190,330.000 332.200 C 330.972 331.210,331.677 330.400,331.567 330.400 C 331.457 330.400,330.572 331.210,329.600 332.200 M188.700 349.500 C 208.115 349.557,239.885 349.557,259.300 349.500 C 278.715 349.443,262.830 349.396,224.000 349.396 C 185.170 349.396,169.285 349.443,188.700 349.500 " stroke="none" fill="#6b4b5b" fill-rule="evenodd"></path><path id="path4" d="M162.900 173.500 C 196.505 173.556,251.495 173.556,285.100 173.500 C 318.705 173.444,291.210 173.397,224.000 173.397 C 156.790 173.397,129.295 173.444,162.900 173.500 M101.395 233.400 C 101.395 266.400,101.442 279.841,101.500 263.269 C 101.558 246.696,101.558 219.696,101.500 203.269 C 101.442 186.841,101.395 200.400,101.395 233.400 M346.496 232.600 C 346.441 265.160,346.313 293.330,346.213 295.200 C 346.037 298.480,346.044 298.515,346.415 296.200 C 346.652 294.721,346.761 270.700,346.698 233.600 L 346.597 173.400 346.496 232.600 M220.000 194.795 C 219.587 195.058,219.857 195.104,220.871 194.941 C 221.772 194.796,223.075 194.955,224.239 195.351 C 225.282 195.707,226.221 195.912,226.325 195.808 C 226.429 195.704,226.174 195.510,225.757 195.377 C 225.341 195.244,224.587 194.970,224.081 194.767 C 222.893 194.292,220.766 194.307,220.000 194.795 M213.600 197.200 C 213.067 197.545,213.067 197.588,213.600 197.588 C 213.930 197.588,214.470 197.413,214.800 197.200 C 215.333 196.855,215.333 196.812,214.800 196.812 C 214.470 196.812,213.930 196.987,213.600 197.200 M231.600 198.000 C 231.930 198.213,232.470 198.388,232.800 198.388 C 233.333 198.388,233.333 198.345,232.800 198.000 C 232.470 197.787,231.930 197.612,231.600 197.612 C 231.067 197.612,231.067 197.655,231.600 198.000 M207.200 199.600 C 206.667 199.945,206.667 199.988,207.200 199.988 C 207.530 199.988,208.070 199.813,208.400 199.600 C 208.933 199.255,208.933 199.212,208.400 199.212 C 208.070 199.212,207.530 199.387,207.200 199.600 M236.000 199.600 C 236.330 199.813,236.870 199.988,237.200 199.988 C 237.733 199.988,237.733 199.945,237.200 199.600 C 236.870 199.387,236.330 199.212,236.000 199.212 C 235.467 199.212,235.467 199.255,236.000 199.600 M239.400 200.771 C 240.280 201.194,241.270 201.539,241.600 201.538 C 242.284 201.534,240.305 200.625,238.800 200.250 C 238.250 200.114,238.520 200.348,239.400 200.771 M199.114 202.697 C 197.637 203.283,196.502 203.836,196.592 203.925 C 196.763 204.097,202.400 201.973,202.400 201.737 C 202.400 201.463,201.748 201.653,199.114 202.697 M243.800 202.371 C 244.680 202.794,245.670 203.139,246.000 203.138 C 246.684 203.134,244.705 202.225,243.200 201.850 C 242.650 201.714,242.920 201.948,243.800 202.371 M246.830 203.347 C 247.100 203.636,253.425 205.999,254.600 206.250 C 255.497 206.442,249.162 203.860,247.600 203.397 C 247.050 203.234,246.704 203.212,246.830 203.347 M192.600 205.200 C 191.060 205.837,189.994 206.368,190.231 206.379 C 190.656 206.400,195.643 204.470,195.967 204.160 C 196.382 203.762,195.180 204.133,192.600 205.200 M188.800 206.663 C 186.362 207.474,182.214 209.083,181.105 209.647 C 180.723 209.841,180.149 210.000,179.829 210.000 C 179.509 210.000,179.143 210.168,179.016 210.374 C 178.670 210.934,185.021 208.782,187.295 207.570 C 187.677 207.367,188.251 207.200,188.571 207.200 C 188.891 207.200,189.264 207.020,189.400 206.800 C 189.536 206.580,189.592 206.414,189.524 206.432 C 189.456 206.449,189.130 206.553,188.800 206.663 M256.800 207.082 C 258.520 207.840,260.599 208.466,260.256 208.122 C 259.977 207.843,255.959 206.381,255.615 206.433 C 255.497 206.451,256.030 206.743,256.800 207.082 M261.600 208.867 C 264.488 210.068,268.955 211.578,269.123 211.411 C 269.228 211.305,268.974 211.108,268.557 210.972 C 265.841 210.086,265.012 209.787,262.681 208.850 C 262.066 208.602,261.346 208.411,261.081 208.425 C 260.817 208.439,261.050 208.638,261.600 208.867 M175.800 211.629 C 174.920 212.052,174.638 212.286,175.174 212.149 C 176.639 211.773,178.686 210.829,178.000 210.845 C 177.670 210.853,176.680 211.206,175.800 211.629 M274.400 213.600 C 274.730 213.813,275.270 213.988,275.600 213.988 C 276.133 213.988,276.133 213.945,275.600 213.600 C 275.270 213.387,274.730 213.212,274.400 213.212 C 273.867 213.212,273.867 213.255,274.400 213.600 M277.800 214.800 C 278.680 215.207,279.670 215.541,280.000 215.541 C 280.330 215.541,279.880 215.207,279.000 214.800 C 278.120 214.393,277.130 214.059,276.800 214.059 C 276.470 214.059,276.920 214.393,277.800 214.800 M161.000 217.200 C 160.120 217.607,159.670 217.941,160.000 217.941 C 160.330 217.941,161.320 217.607,162.200 217.200 C 163.080 216.793,163.530 216.459,163.200 216.459 C 162.870 216.459,161.880 216.793,161.000 217.200 M283.200 216.800 C 283.530 217.013,284.070 217.188,284.400 217.188 C 284.933 217.188,284.933 217.145,284.400 216.800 C 284.070 216.587,283.530 216.412,283.200 216.412 C 282.667 216.412,282.667 216.455,283.200 216.800 M286.600 217.971 C 287.480 218.394,288.470 218.739,288.800 218.738 C 289.484 218.734,287.505 217.825,286.000 217.450 C 285.450 217.314,285.720 217.548,286.600 217.971 M155.200 219.397 C 154.430 219.702,151.820 220.693,149.400 221.599 C 146.980 222.504,144.687 223.415,144.305 223.623 C 143.923 223.830,143.349 224.000,143.029 224.000 C 142.709 224.000,142.343 224.168,142.216 224.374 C 141.912 224.866,143.332 224.436,147.800 222.684 C 149.780 221.908,152.705 220.778,154.300 220.173 C 155.895 219.568,157.200 219.012,157.200 218.937 C 157.200 218.697,156.638 218.826,155.200 219.397 M291.000 219.571 C 291.880 219.994,292.870 220.339,293.200 220.338 C 293.884 220.334,291.905 219.425,290.400 219.050 C 289.850 218.914,290.120 219.148,291.000 219.571 M294.064 220.597 C 294.172 220.706,295.777 221.346,297.630 222.020 C 299.484 222.694,301.990 223.609,303.200 224.054 C 306.514 225.272,307.637 225.583,307.414 225.222 C 307.303 225.042,306.804 224.803,306.306 224.689 C 305.808 224.575,304.410 224.114,303.200 223.664 C 295.284 220.719,293.631 220.165,294.064 220.597 M138.800 225.596 C 137.810 225.998,136.659 226.438,136.243 226.573 C 135.826 226.708,135.578 226.912,135.692 227.025 C 135.805 227.139,137.226 226.694,138.849 226.036 C 140.472 225.379,141.530 224.847,141.200 224.853 C 140.870 224.859,139.790 225.194,138.800 225.596 M309.753 226.436 C 310.827 226.872,311.797 227.136,311.910 227.023 C 312.022 226.911,311.774 226.711,311.357 226.580 C 310.941 226.449,310.287 226.175,309.905 225.971 C 309.523 225.767,308.893 225.610,308.505 225.622 C 308.117 225.634,308.679 226.000,309.753 226.436 M314.153 228.036 C 315.227 228.472,316.197 228.736,316.310 228.623 C 316.422 228.511,316.174 228.310,315.757 228.177 C 315.341 228.044,314.587 227.770,314.081 227.567 C 313.576 227.365,312.946 227.210,312.681 227.222 C 312.417 227.234,313.079 227.600,314.153 228.036 M130.600 228.829 C 129.720 229.252,129.450 229.486,130.000 229.350 C 131.505 228.975,133.484 228.066,132.800 228.062 C 132.470 228.061,131.480 228.406,130.600 228.829 M124.549 231.395 C 123.861 231.937,123.195 232.790,123.069 233.291 C 122.866 234.095,122.938 234.067,123.687 233.053 C 124.154 232.422,125.090 231.568,125.768 231.155 C 126.445 230.741,126.730 230.404,126.400 230.406 C 126.070 230.408,125.237 230.853,124.549 231.395 M322.484 231.278 C 323.300 231.751,324.240 232.692,324.574 233.369 C 324.945 234.121,325.185 234.333,325.191 233.913 C 325.203 233.022,322.577 230.397,321.687 230.409 C 321.276 230.415,321.596 230.764,322.484 231.278 M122.501 235.800 C 122.505 236.680,122.587 236.993,122.683 236.495 C 122.779 235.998,122.775 235.278,122.675 234.895 C 122.575 234.513,122.496 234.920,122.501 235.800 M324.800 237.759 C 324.800 238.066,324.164 238.876,323.386 239.559 C 322.608 240.241,322.145 240.800,322.355 240.800 C 322.952 240.800,325.200 238.405,325.200 237.769 C 325.200 237.456,325.110 237.200,325.000 237.200 C 324.890 237.200,324.800 237.451,324.800 237.759 M123.370 238.633 C 124.000 239.707,125.565 241.091,125.739 240.728 C 125.773 240.657,125.090 239.880,124.223 239.000 C 122.773 237.529,122.705 237.499,123.370 238.633 M126.600 241.200 C 126.736 241.420,127.242 241.587,127.724 241.572 C 128.569 241.545,128.571 241.531,127.800 241.200 C 126.699 240.727,126.308 240.727,126.600 241.200 M318.109 241.911 C 316.519 242.484,315.288 243.021,315.372 243.105 C 315.568 243.301,320.876 241.549,321.380 241.122 C 321.991 240.604,321.228 240.789,318.109 241.911 M129.016 242.026 C 129.143 242.232,129.586 242.400,130.000 242.400 C 130.414 242.400,130.864 242.580,131.000 242.800 C 131.136 243.020,131.642 243.189,132.124 243.175 C 132.953 243.151,132.947 243.127,132.000 242.734 C 130.144 241.963,128.777 241.638,129.016 242.026 M133.511 262.776 L 133.622 282.295 131.511 283.333 C 128.963 284.586,126.734 286.381,125.571 288.116 C 124.859 289.178,124.978 289.113,126.255 287.743 C 127.801 286.084,130.013 284.491,132.485 283.257 L 133.800 282.600 133.904 263.471 C 133.961 252.951,133.871 244.098,133.704 243.799 C 133.537 243.500,133.450 252.040,133.511 262.776 M312.000 244.048 C 310.790 244.498,309.198 245.045,308.462 245.262 C 307.727 245.480,307.208 245.741,307.309 245.843 C 307.410 245.944,308.372 245.742,309.447 245.393 C 311.315 244.787,311.723 244.633,314.000 243.675 C 315.790 242.922,314.259 243.207,312.000 244.048 M302.109 247.372 C 298.905 248.480,297.323 249.200,298.095 249.200 C 298.437 249.200,306.574 246.349,306.767 246.162 C 307.178 245.762,305.517 246.194,302.109 247.372 M144.496 265.278 L 144.600 282.955 145.900 283.714 C 146.615 284.132,147.200 284.372,147.200 284.247 C 147.200 284.122,146.660 283.741,146.000 283.400 L 144.800 282.779 144.800 265.390 C 144.800 246.216,144.608 247.459,147.394 248.623 C 148.215 248.966,148.983 249.151,149.100 249.033 C 149.218 248.915,148.974 248.710,148.557 248.577 C 148.141 248.444,147.387 248.170,146.881 247.967 C 144.209 246.899,144.380 245.657,144.496 265.278 M150.000 249.600 C 150.330 249.813,150.870 249.988,151.200 249.988 C 151.733 249.988,151.733 249.945,151.200 249.600 C 150.870 249.387,150.330 249.212,150.000 249.212 C 149.467 249.212,149.467 249.255,150.000 249.600 M153.000 250.583 C 155.010 251.451,156.308 251.650,154.600 250.829 C 153.720 250.406,152.730 250.061,152.400 250.062 C 152.070 250.064,152.340 250.298,153.000 250.583 M291.200 251.200 C 290.667 251.545,290.667 251.588,291.200 251.588 C 291.530 251.588,292.070 251.413,292.400 251.200 C 292.933 250.855,292.933 250.812,292.400 250.812 C 292.070 250.812,291.530 250.987,291.200 251.200 M156.800 252.000 C 157.130 252.213,157.670 252.388,158.000 252.388 C 158.533 252.388,158.533 252.345,158.000 252.000 C 157.670 251.787,157.130 251.612,156.800 251.612 C 156.267 251.612,156.267 251.655,156.800 252.000 M288.684 252.100 C 288.074 252.556,288.005 254.673,287.907 276.062 C 287.848 288.966,287.932 299.316,288.094 299.062 C 288.256 298.808,288.391 288.240,288.394 275.577 L 288.400 252.554 289.500 252.120 C 290.105 251.881,290.319 251.666,289.976 251.643 C 289.634 251.619,289.052 251.825,288.684 252.100 M149.510 286.233 C 150.662 287.242,152.076 288.870,152.651 289.851 C 153.227 290.833,153.783 291.551,153.887 291.446 C 154.419 290.914,148.714 284.400,147.716 284.400 C 147.550 284.400,148.357 285.225,149.510 286.233 M123.889 290.521 C 122.120 293.220,121.241 298.408,122.001 301.658 C 122.603 304.231,124.716 308.800,125.304 308.800 C 125.535 308.800,125.456 308.485,125.128 308.100 C 121.843 304.242,121.256 296.729,123.831 291.500 C 124.837 289.457,124.862 289.035,123.889 290.521 M154.012 292.400 C 154.012 292.730,154.187 293.270,154.400 293.600 C 154.745 294.133,154.788 294.133,154.788 293.600 C 154.788 293.270,154.613 292.730,154.400 292.400 C 154.055 291.867,154.012 291.867,154.012 292.400 M135.696 293.598 C 132.215 295.720,131.749 300.470,134.763 303.108 C 139.782 307.502,146.966 301.632,143.851 295.682 C 142.415 292.938,138.443 291.923,135.696 293.598 M155.000 298.577 C 155.000 300.858,155.132 302.516,155.294 302.262 C 155.659 301.688,155.642 296.047,155.272 295.115 C 155.122 294.738,155.000 296.296,155.000 298.577 M101.693 297.200 C 101.695 298.965,102.291 301.588,102.330 300.000 C 102.343 299.450,102.205 298.280,102.023 297.400 L 101.692 295.800 101.693 297.200 M160.053 298.538 C 159.988 299.927,161.262 301.805,162.812 302.606 C 164.534 303.497,164.799 303.318,163.200 302.344 C 161.522 301.322,160.686 300.223,160.353 298.603 L 160.105 297.400 160.053 298.538 M286.820 300.763 C 286.575 301.220,285.706 301.947,284.888 302.379 C 284.069 302.811,283.544 303.173,283.720 303.182 C 284.799 303.242,288.009 300.676,287.497 300.163 C 287.369 300.036,287.065 300.305,286.820 300.763 M345.476 300.810 C 345.330 301.355,345.227 302.250,345.246 302.800 C 345.271 303.518,345.384 303.357,345.649 302.227 C 346.055 300.495,345.900 299.225,345.476 300.810 M102.434 302.600 C 102.472 303.966,103.138 305.242,103.166 304.000 C 103.178 303.450,103.013 302.730,102.800 302.400 C 102.480 301.905,102.416 301.940,102.434 302.600 M281.600 303.600 C 281.067 303.945,281.067 303.988,281.600 303.988 C 281.930 303.988,282.470 303.813,282.800 303.600 C 283.333 303.255,283.333 303.212,282.800 303.212 C 282.470 303.212,281.930 303.387,281.600 303.600 M166.800 304.165 C 166.800 304.409,169.231 305.600,169.728 305.600 C 169.951 305.600,170.049 305.516,169.946 305.413 C 169.633 305.100,166.800 303.977,166.800 304.165 M279.000 304.400 C 278.229 304.731,278.231 304.745,279.076 304.772 C 279.558 304.787,280.064 304.620,280.200 304.400 C 280.492 303.927,280.101 303.927,279.000 304.400 M344.673 304.553 C 344.523 304.945,344.411 305.566,344.425 305.933 C 344.442 306.375,344.581 306.274,344.837 305.634 C 345.049 305.103,345.161 304.482,345.085 304.254 C 345.009 304.027,344.824 304.161,344.673 304.553 M103.256 305.600 C 103.256 305.930,103.411 306.560,103.600 307.000 C 103.817 307.504,103.944 307.578,103.944 307.200 C 103.944 306.870,103.789 306.240,103.600 305.800 C 103.383 305.296,103.256 305.222,103.256 305.600 M271.400 306.800 C 270.629 307.131,270.631 307.145,271.476 307.172 C 271.958 307.187,272.464 307.020,272.600 306.800 C 272.892 306.327,272.501 306.327,271.400 306.800 M343.873 307.353 C 343.723 307.745,343.611 308.366,343.625 308.733 C 343.642 309.175,343.781 309.074,344.037 308.434 C 344.249 307.903,344.361 307.282,344.285 307.054 C 344.209 306.827,344.024 306.961,343.873 307.353 M268.600 307.600 L 267.800 307.944 268.600 307.966 C 269.040 307.978,269.670 307.813,270.000 307.600 C 270.795 307.086,269.796 307.086,268.600 307.600 M177.200 308.146 C 177.200 308.379,181.051 309.605,181.675 309.572 C 181.964 309.556,181.570 309.314,180.800 309.034 C 179.018 308.385,177.200 307.937,177.200 308.146 M264.000 308.732 C 262.438 309.131,261.751 309.447,262.279 309.523 C 262.763 309.593,263.516 309.459,263.953 309.225 C 264.390 308.991,265.164 308.797,265.674 308.794 C 266.183 308.791,266.870 308.613,267.200 308.400 C 268.087 307.827,267.166 307.922,264.000 308.732 M150.204 310.396 C 149.122 311.494,147.149 312.941,145.819 313.611 C 144.488 314.282,143.850 314.711,144.400 314.565 C 146.702 313.952,150.223 311.533,151.575 309.636 C 152.806 307.906,152.476 308.089,150.204 310.396 M126.600 310.349 C 128.148 312.032,131.465 314.209,133.000 314.548 C 133.724 314.709,133.236 314.339,131.767 313.617 C 130.429 312.958,128.449 311.660,127.367 310.732 C 125.857 309.436,125.679 309.347,126.600 310.349 M182.800 309.994 C 183.130 310.211,183.835 310.391,184.367 310.394 C 185.651 310.402,185.325 310.175,183.600 309.858 C 182.615 309.677,182.378 309.718,182.800 309.994 M257.800 310.215 C 253.192 311.269,251.788 311.560,250.073 311.819 C 249.123 311.962,248.426 312.159,248.523 312.256 C 248.831 312.564,260.637 310.296,261.092 309.842 C 261.444 309.490,260.513 309.595,257.800 310.215 M342.973 310.243 C 342.456 311.837,342.072 312.715,340.284 316.400 C 339.270 318.490,338.053 320.785,337.581 321.500 C 337.108 322.215,336.874 322.796,337.061 322.791 C 337.247 322.786,337.711 322.201,338.091 321.491 C 341.825 314.519,343.825 310.092,343.424 309.691 C 343.311 309.578,343.108 309.826,342.973 310.243 M104.828 310.492 C 104.782 310.965,106.086 314.048,106.258 313.875 C 106.345 313.788,106.066 312.925,105.637 311.958 C 105.208 310.991,104.844 310.331,104.828 310.492 M185.639 310.556 C 185.969 310.909,189.816 311.854,192.000 312.120 C 194.064 312.371,192.941 312.003,189.200 311.202 C 187.990 310.943,186.640 310.635,186.200 310.516 C 185.760 310.398,185.508 310.416,185.639 310.556 M194.033 312.549 C 194.125 312.631,195.100 312.807,196.200 312.941 C 197.546 313.105,197.939 313.065,197.400 312.820 C 196.639 312.474,193.683 312.236,194.033 312.549 M244.000 312.800 C 243.450 312.976,242.100 313.159,241.000 313.207 C 239.900 313.255,238.460 313.440,237.800 313.617 C 236.047 314.088,242.047 313.583,245.400 312.978 C 247.542 312.591,247.824 312.473,246.600 312.476 C 245.720 312.478,244.550 312.624,244.000 312.800 M200.400 313.602 C 203.922 314.167,211.576 314.785,214.400 314.733 C 215.872 314.705,214.050 314.463,210.200 314.175 C 206.460 313.895,202.230 313.572,200.800 313.457 L 198.200 313.248 200.400 313.602 M226.800 314.400 L 223.000 314.647 226.200 314.681 C 227.960 314.700,231.020 314.583,233.000 314.421 L 236.600 314.127 233.600 314.140 C 231.950 314.147,228.890 314.264,226.800 314.400 M135.277 315.260 C 136.461 315.594,140.644 315.583,142.200 315.243 C 142.860 315.098,141.365 314.984,138.877 314.990 C 136.390 314.995,134.770 315.117,135.277 315.260 M107.601 317.200 C 108.710 319.380,110.106 321.628,110.255 321.478 C 110.342 321.391,109.787 320.279,109.022 319.008 C 107.532 316.534,106.765 315.558,107.601 317.200 M111.043 323.142 C 113.069 326.734,119.239 333.344,124.123 337.155 C 127.487 339.780,132.824 343.021,135.388 343.995 C 137.196 344.683,136.458 344.087,134.100 342.955 C 132.835 342.347,131.048 341.344,130.128 340.725 C 129.208 340.106,128.336 339.600,128.190 339.600 C 126.602 339.600,117.460 331.009,113.506 325.800 C 110.585 321.951,110.040 321.364,111.043 323.142 M336.111 323.700 C 335.329 324.711,335.063 325.332,335.536 325.040 C 336.010 324.747,336.957 323.200,336.663 323.200 C 336.572 323.200,336.324 323.425,336.111 323.700 M332.951 327.900 C 331.880 329.165,330.127 331.064,329.055 332.120 C 327.983 333.176,327.195 334.128,327.303 334.236 C 327.517 334.450,333.182 328.489,334.465 326.700 C 335.794 324.848,335.004 325.474,332.951 327.900 M324.784 336.048 C 323.803 336.936,323.540 337.291,324.200 336.837 C 326.225 335.445,326.950 334.816,326.754 334.621 C 326.652 334.518,325.765 335.160,324.784 336.048 M320.820 339.013 C 319.842 339.733,317.368 341.180,315.322 342.229 C 313.277 343.279,311.684 344.218,311.782 344.316 C 312.092 344.625,320.821 339.713,322.767 338.135 C 323.816 337.284,322.151 338.036,320.820 339.013 M138.336 345.264 C 139.291 345.703,140.171 345.962,140.293 345.840 C 140.415 345.718,140.174 345.511,139.757 345.380 C 139.341 345.249,138.687 344.975,138.305 344.771 C 137.923 344.567,137.383 344.415,137.105 344.434 C 136.827 344.452,137.381 344.826,138.336 345.264 M309.000 345.229 C 308.120 345.652,307.850 345.886,308.400 345.749 C 309.533 345.467,311.612 344.425,311.000 344.446 C 310.780 344.453,309.880 344.806,309.000 345.229 M144.000 347.200 C 144.330 347.413,144.870 347.588,145.200 347.588 C 145.733 347.588,145.733 347.545,145.200 347.200 C 144.870 346.987,144.330 346.812,144.000 346.812 C 143.467 346.812,143.467 346.855,144.000 347.200 M302.800 347.200 C 302.005 347.714,303.004 347.714,304.200 347.200 L 305.000 346.856 304.200 346.834 C 303.760 346.822,303.130 346.987,302.800 347.200 M147.200 348.000 C 147.750 348.176,148.560 348.320,149.000 348.320 C 149.633 348.320,149.592 348.254,148.800 348.000 C 148.250 347.824,147.440 347.680,147.000 347.680 C 146.367 347.680,146.408 347.746,147.200 348.000 M299.200 348.000 C 298.408 348.254,298.367 348.320,299.000 348.320 C 299.440 348.320,300.250 348.176,300.800 348.000 C 301.592 347.746,301.633 347.680,301.000 347.680 C 300.560 347.680,299.750 347.824,299.200 348.000 M151.400 348.800 C 152.060 348.968,153.320 349.106,154.200 349.107 L 155.800 349.108 154.200 348.777 C 153.320 348.595,152.060 348.457,151.400 348.470 L 150.200 348.495 151.400 348.800 M293.600 348.800 L 292.200 349.095 293.800 349.100 C 294.680 349.103,295.940 348.968,296.600 348.800 L 297.800 348.495 296.400 348.500 C 295.630 348.503,294.370 348.638,293.600 348.800 " stroke="none" fill="#d56638" fill-rule="evenodd"></path></g></svg>