<svg id="svg" version="1.1" xmlns="http://www.w3.org/2000/svg" xmlns:xlink="http://www.w3.org/1999/xlink" width="400" height="400" viewBox="0, 0, 400,400"><g id="svgg"><path id="path0" d="M130.970 45.400 C 130.971 50.240,131.029 52.165,131.099 49.678 C 131.169 47.191,131.169 43.231,131.098 40.878 C 131.028 38.525,130.970 40.560,130.970 45.400 M119.507 45.137 C 119.676 54.420,119.850 55.240,119.928 47.124 C 119.968 43.012,119.865 39.563,119.700 39.461 C 119.535 39.359,119.448 41.913,119.507 45.137 M130.000 55.705 C 129.670 56.413,128.788 57.399,128.041 57.896 C 126.604 58.852,126.655 59.117,128.126 58.337 C 129.350 57.689,130.799 55.934,130.800 55.100 C 130.800 54.138,130.692 54.220,130.000 55.705 M120.015 55.200 C 120.021 55.530,120.290 56.149,120.613 56.576 C 121.368 57.575,121.363 57.205,120.602 55.746 C 120.274 55.116,120.010 54.870,120.015 55.200 M121.600 57.470 C 121.600 57.993,123.524 59.009,123.866 58.667 C 124.013 58.520,123.893 58.400,123.598 58.400 C 123.304 58.400,122.734 58.102,122.331 57.738 C 121.929 57.374,121.600 57.253,121.600 57.470 M95.824 59.013 C 94.841 59.756,95.147 59.757,96.854 59.016 C 97.786 58.611,97.954 58.430,97.400 58.428 C 96.960 58.427,96.251 58.690,95.824 59.013 M132.075 60.016 C 131.594 60.464,131.200 60.946,131.200 61.085 C 131.200 61.225,131.650 60.917,132.200 60.400 C 133.138 59.519,133.371 59.200,133.075 59.200 C 133.007 59.200,132.557 59.567,132.075 60.016 M119.800 64.000 C 119.800 65.278,119.932 66.116,120.094 65.862 C 120.256 65.608,120.388 64.770,120.388 64.000 C 120.388 63.230,120.256 62.392,120.094 62.138 C 119.932 61.884,119.800 62.722,119.800 64.000 M130.667 61.867 C 130.520 62.013,130.411 62.508,130.425 62.967 C 130.449 63.733,130.482 63.723,130.834 62.842 C 131.226 61.863,131.144 61.389,130.667 61.867 M93.067 62.667 C 92.698 63.036,92.731 65.110,93.109 65.344 C 93.279 65.449,93.418 64.830,93.418 63.967 C 93.418 63.105,93.399 62.400,93.376 62.400 C 93.352 62.400,93.213 62.520,93.067 62.667 M157.254 64.000 C 157.254 65.580,157.307 65.690,157.688 64.900 C 158.000 64.253,158.000 63.747,157.688 63.100 C 157.307 62.310,157.254 62.420,157.254 64.000 M212.200 64.000 C 211.802 64.440,211.601 64.800,211.755 64.800 C 211.908 64.800,212.420 64.440,212.892 64.000 C 213.364 63.560,213.565 63.200,213.337 63.200 C 213.110 63.200,212.598 63.560,212.200 64.000 M221.046 64.381 C 221.512 64.942,222.092 65.760,222.334 66.200 C 222.577 66.640,222.781 66.772,222.788 66.494 C 222.795 66.216,222.215 65.398,221.500 64.676 C 220.785 63.954,220.581 63.821,221.046 64.381 M130.432 64.920 C 130.354 66.688,133.102 69.601,134.847 69.600 C 135.151 69.600,134.650 69.228,133.734 68.775 C 132.216 68.023,131.517 67.113,130.680 64.800 C 130.513 64.337,130.456 64.364,130.432 64.920 M93.600 66.730 C 93.600 66.912,94.079 67.497,94.663 68.030 L 95.727 69.000 94.788 67.700 C 93.812 66.348,93.600 66.175,93.600 66.730 M210.501 68.600 C 210.505 69.480,210.587 69.793,210.683 69.295 C 210.779 68.798,210.775 68.078,210.675 67.695 C 210.575 67.313,210.496 67.720,210.501 68.600 M154.415 68.654 C 153.434 69.174,152.894 69.599,153.215 69.599 C 153.836 69.597,156.400 68.154,156.400 67.806 C 156.400 67.693,156.355 67.624,156.300 67.654 C 156.245 67.683,155.397 68.133,154.415 68.654 M116.800 68.824 C 116.030 69.230,115.670 69.569,116.000 69.578 C 116.330 69.587,117.140 69.237,117.800 68.800 C 119.285 67.816,118.685 67.831,116.800 68.824 M121.440 70.640 C 120.648 71.432,120.011 72.377,120.025 72.740 C 120.045 73.255,120.124 73.224,120.384 72.600 C 120.831 71.527,122.808 69.724,123.800 69.485 C 124.552 69.304,124.548 69.290,123.740 69.246 C 123.242 69.220,122.273 69.807,121.440 70.640 M127.192 69.646 C 128.591 70.205,129.623 71.205,130.239 72.600 C 130.678 73.594,130.771 73.653,130.784 72.947 C 130.803 71.939,127.931 69.188,126.899 69.225 C 126.408 69.243,126.495 69.369,127.192 69.646 M222.217 71.145 C 222.077 71.588,221.334 72.502,220.567 73.175 C 219.800 73.849,219.313 74.400,219.486 74.400 C 220.414 74.398,223.177 71.044,222.669 70.536 C 222.561 70.428,222.358 70.702,222.217 71.145 M119.684 82.600 C 119.591 92.918,119.766 93.760,122.359 95.492 C 123.692 96.382,126.920 96.776,127.338 96.100 C 127.440 95.935,126.753 95.861,125.812 95.936 C 120.928 96.325,120.249 94.820,119.983 83.019 L 119.766 73.400 119.684 82.600 M130.970 82.600 C 130.971 87.440,131.029 89.365,131.099 86.878 C 131.169 84.391,131.169 80.431,131.098 78.078 C 131.028 75.725,130.970 77.760,130.970 82.600 M215.062 74.900 C 215.299 75.284,217.655 75.280,218.262 74.894 C 218.516 74.732,217.858 74.600,216.800 74.600 C 215.742 74.600,214.960 74.735,215.062 74.900 M130.432 92.458 C 130.414 92.819,129.878 93.674,129.240 94.358 C 128.601 95.041,128.232 95.600,128.419 95.600 C 129.005 95.600,130.886 92.852,130.669 92.313 C 130.533 91.974,130.452 92.023,130.432 92.458 M175.933 100.795 C 126.727 100.908,86.377 101.090,86.267 101.200 C 86.157 101.310,126.322 101.350,175.523 101.290 C 232.916 101.219,265.120 101.040,265.370 100.790 C 265.585 100.575,265.679 100.443,265.580 100.495 C 265.481 100.547,225.140 100.682,175.933 100.795 M83.800 101.869 C 82.064 102.251,78.000 103.893,78.000 104.213 C 78.000 104.309,78.945 104.007,80.100 103.542 C 81.255 103.076,82.965 102.524,83.900 102.315 C 84.835 102.106,85.600 101.860,85.600 101.768 C 85.600 101.577,84.965 101.613,83.800 101.869 M76.000 105.236 C 75.336 105.779,75.269 105.915,75.800 105.640 C 77.105 104.966,77.828 104.412,77.400 104.415 C 77.180 104.417,76.550 104.786,76.000 105.236 M70.504 109.457 C 67.850 112.065,67.845 112.075,70.200 109.990 C 73.721 106.873,73.797 106.800,73.489 106.800 C 73.334 106.800,71.991 107.996,70.504 109.457 M88.200 112.443 C 82.716 113.231,76.704 117.686,74.294 122.746 C 71.927 127.717,72.029 124.361,72.014 197.313 L 72.000 264.427 73.387 263.040 C 75.342 261.084,73.664 261.149,118.868 261.281 L 159.536 261.400 160.619 262.400 C 162.478 264.115,162.800 265.471,162.800 271.587 C 162.800 276.342,162.893 277.200,163.408 277.200 C 163.742 277.200,164.704 277.634,165.545 278.165 C 166.915 279.030,167.398 279.759,168.150 282.100 C 168.377 282.805,357.542 283.257,359.367 282.557 C 360.164 282.251,360.353 131.745,359.561 127.920 C 357.908 119.933,351.070 113.375,343.360 112.382 C 339.796 111.923,91.404 111.982,88.200 112.443 M66.724 113.700 C 65.103 115.870,63.895 118.028,64.154 118.288 C 64.289 118.423,64.400 118.357,64.400 118.141 C 64.400 117.925,65.207 116.545,66.194 115.074 C 68.077 112.267,68.378 111.485,66.724 113.700 M227.833 117.618 C 235.074 118.898,238.006 119.718,242.875 121.829 C 251.043 125.368,259.893 132.477,264.400 139.117 L 265.800 141.179 276.000 141.190 C 288.496 141.204,290.800 142.058,290.800 146.679 C 290.800 150.950,289.138 151.754,279.800 152.000 L 272.200 152.200 272.245 153.400 C 272.270 154.060,272.558 155.590,272.886 156.800 C 274.021 160.997,274.411 163.424,274.717 168.200 C 275.117 174.453,274.619 210.183,274.106 212.000 C 273.888 212.770,273.487 214.390,273.214 215.600 C 267.574 240.615,244.556 258.710,218.280 258.787 L 213.960 258.800 211.480 261.313 C 202.136 270.783,191.439 275.874,178.077 277.210 C 172.601 277.757,170.955 277.402,169.221 275.299 L 168.000 273.818 168.000 219.855 C 168.000 164.018,168.001 163.997,169.690 157.400 C 170.140 155.640,170.595 153.705,170.700 153.100 L 170.891 152.000 163.345 151.994 C 154.063 151.987,152.000 151.061,152.000 146.901 C 152.000 141.940,153.904 141.200,166.671 141.200 L 176.689 141.200 178.945 138.255 C 185.381 129.853,195.068 123.029,205.031 119.882 C 207.999 118.944,209.662 118.558,214.600 117.659 C 217.422 117.145,225.023 117.122,227.833 117.618 M61.873 123.753 C 61.723 124.145,61.611 124.766,61.625 125.133 C 61.642 125.575,61.781 125.474,62.037 124.834 C 62.249 124.303,62.361 123.682,62.285 123.454 C 62.209 123.227,62.024 123.361,61.873 123.753 M61.056 128.084 C 60.921 128.588,60.850 145.920,60.898 166.600 L 60.984 204.200 61.192 165.800 C 61.307 144.680,61.378 127.348,61.351 127.284 C 61.324 127.220,61.191 127.580,61.056 128.084 M227.775 158.500 L 226.600 159.800 227.900 158.625 C 228.615 157.979,229.200 157.394,229.200 157.325 C 229.200 157.016,228.870 157.288,227.775 158.500 M263.714 173.400 C 263.717 174.500,263.795 174.903,263.887 174.295 C 263.979 173.686,263.977 172.786,263.882 172.295 C 263.787 171.803,263.711 172.300,263.714 173.400 M168.180 294.107 C 168.073 294.386,168.037 299.201,168.100 304.807 L 168.214 315.000 168.307 304.501 L 168.400 294.002 264.100 293.900 L 359.800 293.798 264.087 293.699 C 187.121 293.619,168.337 293.699,168.180 294.107 M353.978 314.300 L 352.600 315.800 354.100 314.422 C 355.496 313.138,355.784 312.800,355.478 312.800 C 355.412 312.800,354.737 313.475,353.978 314.300 M216.900 315.087 C 217.505 315.178,218.495 315.178,219.100 315.087 C 219.705 314.995,219.210 314.920,218.000 314.920 C 216.790 314.920,216.295 314.995,216.900 315.087 M165.468 319.366 C 165.247 319.944,173.131 319.991,253.913 319.901 L 342.600 319.802 254.423 319.700 C 191.736 319.628,166.169 319.473,165.979 319.166 C 165.807 318.888,165.624 318.959,165.468 319.366 M344.800 319.200 C 343.976 319.464,343.941 319.526,344.600 319.554 C 345.040 319.573,345.670 319.413,346.000 319.200 C 346.701 318.747,346.214 318.747,344.800 319.200 M193.200 331.500 C 193.200 331.665,204.511 331.752,218.336 331.694 L 243.473 331.588 243.909 332.494 C 244.196 333.089,244.355 333.187,244.373 332.780 C 244.442 331.210,244.284 331.200,218.320 331.200 C 204.504 331.200,193.200 331.335,193.200 331.500 M192.846 333.067 C 192.821 333.324,192.684 333.864,192.541 334.267 C 192.340 334.836,192.394 334.897,192.779 334.542 C 193.052 334.291,193.189 333.751,193.084 333.342 C 192.979 332.934,192.872 332.810,192.846 333.067 M244.412 334.200 C 244.412 334.640,244.587 335.270,244.800 335.600 C 245.121 336.097,245.188 336.062,245.188 335.400 C 245.188 334.960,245.013 334.330,244.800 334.000 C 244.479 333.503,244.412 333.538,244.412 334.200 M192.046 335.867 C 192.021 336.124,191.884 336.664,191.741 337.067 C 191.540 337.636,191.594 337.697,191.979 337.342 C 192.252 337.091,192.389 336.551,192.284 336.142 C 192.179 335.734,192.072 335.610,192.046 335.867 M245.212 337.000 C 245.212 337.440,245.387 338.070,245.600 338.400 C 245.921 338.897,245.988 338.862,245.988 338.200 C 245.988 337.760,245.813 337.130,245.600 336.800 C 245.279 336.303,245.212 336.338,245.212 337.000 M191.000 339.600 C 190.850 340.073,190.817 340.550,190.927 340.660 C 191.037 340.770,191.250 340.473,191.400 340.000 C 191.550 339.527,191.583 339.050,191.473 338.940 C 191.363 338.830,191.150 339.127,191.000 339.600 M246.000 339.962 C 246.000 340.188,246.252 341.143,246.559 342.086 C 246.867 343.029,247.350 344.790,247.632 346.000 C 247.915 347.210,248.293 348.371,248.473 348.580 C 248.653 348.789,248.800 349.376,248.800 349.885 C 248.800 350.394,248.958 351.123,249.151 351.505 C 249.740 352.672,250.400 355.008,250.400 355.928 C 250.400 356.408,250.592 356.800,250.827 356.800 C 251.062 356.800,251.158 356.485,251.040 356.100 C 250.922 355.715,250.535 354.320,250.178 353.000 C 249.463 350.351,249.247 349.584,247.977 345.200 C 247.498 343.550,247.017 341.703,246.907 341.095 C 246.714 340.025,246.000 339.134,246.000 339.962 M190.288 341.733 C 189.810 342.949,189.924 343.973,190.439 343.087 C 190.667 342.696,190.791 342.066,190.715 341.687 C 190.588 341.060,190.551 341.064,190.288 341.733 M189.424 345.200 C 189.260 345.970,188.850 347.410,188.512 348.400 C 188.174 349.390,187.759 350.830,187.591 351.600 C 187.422 352.370,187.010 353.865,186.675 354.922 C 186.164 356.532,186.157 356.768,186.633 356.373 C 186.945 356.114,187.200 355.646,187.200 355.333 C 187.200 355.020,187.844 352.518,188.631 349.774 C 189.418 347.030,189.985 344.563,189.891 344.292 C 189.797 344.022,189.587 344.430,189.424 345.200 " stroke="none" fill="#9dc1de" fill-rule="evenodd"></path><path id="path1" d="M159.200 31.200 C 159.200 31.450,156.827 31.600,152.880 31.600 C 149.404 31.600,146.389 31.765,146.180 31.966 C 145.971 32.168,144.720 32.431,143.400 32.551 C 139.029 32.949,137.004 33.273,136.620 33.639 C 136.411 33.837,135.466 34.000,134.520 34.000 C 133.574 34.000,132.800 34.180,132.800 34.400 C 132.800 34.620,132.395 34.800,131.900 34.800 L 131.000 34.800 131.141 43.240 C 131.372 57.056,130.691 58.800,125.066 58.800 C 120.537 58.800,119.603 56.793,119.595 47.050 C 119.588 39.759,119.441 38.800,118.330 38.800 C 117.902 38.800,117.664 38.980,117.800 39.200 C 117.940 39.427,117.604 39.600,117.024 39.600 C 116.461 39.600,116.000 39.780,116.000 40.000 C 116.000 40.220,115.460 40.400,114.800 40.400 C 114.140 40.400,113.600 40.580,113.600 40.800 C 113.600 41.020,113.240 41.200,112.800 41.200 C 112.360 41.200,112.000 41.359,112.000 41.553 C 112.000 41.866,110.952 42.362,109.800 42.596 C 109.161 42.726,107.818 43.321,107.600 43.571 C 107.144 44.093,104.041 45.600,103.422 45.600 C 103.054 45.600,102.864 45.780,103.000 46.000 C 103.136 46.220,102.991 46.400,102.678 46.400 C 102.364 46.400,101.662 46.750,101.118 47.179 C 100.574 47.607,99.882 48.012,99.582 48.079 C 99.282 48.145,98.612 48.608,98.092 49.108 C 97.573 49.607,96.980 49.911,96.774 49.784 C 96.568 49.657,96.400 49.743,96.400 49.976 C 96.400 50.209,96.130 50.400,95.800 50.400 C 95.470 50.400,95.200 50.580,95.200 50.800 C 95.200 51.020,94.970 51.200,94.688 51.200 C 94.407 51.200,93.917 51.560,93.600 52.000 C 93.283 52.440,92.833 52.800,92.600 52.800 C 92.367 52.800,91.917 53.160,91.600 53.600 C 91.283 54.040,90.815 54.400,90.560 54.400 C 90.305 54.400,89.355 55.120,88.448 56.000 C 87.541 56.880,86.625 57.600,86.412 57.600 C 85.506 57.600,72.400 70.696,72.400 71.601 C 72.400 71.805,72.040 72.165,71.600 72.400 C 71.160 72.635,70.800 72.996,70.800 73.201 C 70.800 73.405,70.179 74.254,69.421 75.086 C 67.006 77.736,66.001 78.990,66.000 79.353 C 66.000 79.547,65.685 79.997,65.300 80.353 C 64.915 80.709,64.240 81.710,63.800 82.578 C 63.360 83.446,62.640 84.534,62.200 84.996 C 61.760 85.458,61.341 86.096,61.268 86.414 C 61.195 86.732,61.015 87.084,60.868 87.196 C 60.297 87.630,58.829 90.696,59.074 90.941 C 59.217 91.083,59.168 91.201,58.967 91.201 C 58.765 91.202,58.150 92.192,57.600 93.400 C 57.050 94.608,56.465 95.598,56.300 95.599 C 56.135 95.599,56.000 95.834,56.000 96.120 C 56.000 96.856,55.059 98.793,54.700 98.797 C 54.535 98.799,54.400 99.261,54.400 99.824 C 54.400 100.404,54.227 100.740,54.000 100.600 C 53.767 100.456,53.600 100.863,53.600 101.576 C 53.600 102.249,53.453 102.800,53.272 102.800 C 53.092 102.800,52.700 103.700,52.400 104.800 C 52.100 105.900,51.708 106.800,51.528 106.800 C 51.347 106.800,51.200 107.239,51.200 107.776 C 51.200 108.313,51.020 108.864,50.800 109.000 C 50.580 109.136,50.400 109.687,50.400 110.224 C 50.400 110.761,50.220 111.200,50.000 111.200 C 49.780 111.200,49.600 111.740,49.600 112.400 C 49.600 113.060,49.420 113.600,49.200 113.600 C 48.980 113.600,48.800 114.219,48.800 114.976 C 48.800 115.733,48.644 116.449,48.453 116.567 C 48.262 116.685,47.992 117.551,47.853 118.491 C 47.414 121.462,46.904 123.815,46.789 123.400 C 46.650 122.898,46.036 127.325,45.750 130.900 C 45.632 132.385,45.381 133.600,45.194 133.600 C 44.793 133.600,44.958 157.998,45.390 162.500 C 45.554 164.205,45.825 165.600,45.994 165.600 C 46.163 165.600,46.414 166.545,46.553 167.700 C 47.096 172.235,47.310 173.408,47.630 173.612 C 47.813 173.729,48.008 174.494,48.063 175.312 C 48.118 176.130,48.307 176.800,48.482 176.800 C 48.657 176.800,48.800 177.329,48.800 177.976 C 48.800 178.623,48.980 179.264,49.200 179.400 C 49.420 179.536,49.600 180.267,49.600 181.024 C 49.600 181.781,49.741 182.400,49.913 182.400 C 50.085 182.400,50.457 183.255,50.739 184.300 C 51.022 185.345,51.421 186.513,51.627 186.895 C 51.832 187.277,52.000 187.862,52.000 188.195 C 52.000 188.528,52.180 188.800,52.400 188.800 C 52.620 188.800,52.800 189.149,52.800 189.576 C 52.800 190.003,52.980 190.464,53.200 190.600 C 53.420 190.736,53.600 191.197,53.600 191.624 C 53.600 192.051,53.780 192.400,54.000 192.400 C 54.220 192.400,54.400 192.760,54.400 193.200 C 54.400 193.640,54.580 194.000,54.800 194.000 C 55.020 194.000,55.200 194.286,55.200 194.635 C 55.200 195.373,59.157 203.526,59.668 203.842 C 59.858 203.959,59.917 204.210,59.800 204.400 C 59.606 204.713,60.276 205.412,60.493 205.124 C 60.544 205.056,60.695 187.630,60.827 166.400 C 60.959 145.170,61.195 127.170,61.350 126.400 C 63.616 115.173,71.199 106.169,81.400 102.594 C 86.010 100.978,81.945 101.054,176.067 100.821 C 256.142 100.623,267.846 100.478,265.700 99.712 C 265.425 99.614,265.200 99.188,265.200 98.767 C 265.200 98.345,265.020 98.000,264.800 98.000 C 264.580 98.000,264.400 97.640,264.400 97.200 C 264.400 96.760,264.220 96.400,264.000 96.400 C 263.780 96.400,263.600 96.040,263.600 95.600 C 263.600 95.160,263.420 94.800,263.200 94.800 C 262.980 94.800,262.800 94.440,262.800 94.000 C 262.800 93.560,262.620 93.200,262.400 93.200 C 262.180 93.200,262.000 92.930,262.000 92.600 C 262.000 92.270,261.820 92.000,261.600 92.000 C 261.380 92.000,261.200 91.640,261.200 91.200 C 261.200 90.760,261.020 90.400,260.800 90.400 C 260.580 90.400,260.400 90.055,260.400 89.633 C 260.400 89.212,260.265 88.807,260.100 88.733 C 259.738 88.572,258.037 85.681,257.728 84.700 C 257.606 84.315,257.348 84.000,257.153 84.000 C 256.959 84.000,256.800 83.730,256.800 83.400 C 256.800 83.070,256.620 82.800,256.400 82.800 C 256.180 82.800,256.000 82.530,256.000 82.200 C 256.000 81.870,255.820 81.600,255.600 81.600 C 255.380 81.600,255.200 81.422,255.200 81.203 C 255.200 80.985,254.554 79.950,253.765 78.903 C 252.976 77.857,251.941 76.472,251.465 75.826 C 250.989 75.181,249.880 73.919,249.000 73.021 C 248.120 72.124,247.148 70.904,246.840 70.309 C 246.532 69.714,246.127 69.322,245.940 69.437 C 245.753 69.553,245.600 69.468,245.600 69.250 C 245.600 68.783,237.523 60.400,237.073 60.400 C 236.713 60.400,236.056 59.876,234.192 58.100 C 233.441 57.385,232.630 56.800,232.390 56.800 C 232.149 56.800,232.081 56.592,232.238 56.338 C 232.404 56.070,232.349 55.984,232.107 56.134 C 231.878 56.275,231.005 55.763,230.167 54.996 C 229.329 54.228,228.481 53.600,228.282 53.600 C 228.084 53.600,227.408 53.051,226.782 52.380 C 226.155 51.709,225.557 51.214,225.453 51.280 C 225.349 51.346,224.798 50.995,224.229 50.500 C 223.660 50.005,222.915 49.600,222.573 49.600 C 222.232 49.600,222.064 49.420,222.200 49.200 C 222.336 48.980,222.201 48.800,221.899 48.800 C 221.598 48.800,220.995 48.485,220.560 48.100 C 220.125 47.715,219.506 47.342,219.184 47.270 C 218.863 47.199,218.540 46.974,218.467 46.770 C 218.393 46.567,218.071 46.400,217.750 46.400 C 217.429 46.400,216.780 46.040,216.308 45.600 C 215.836 45.160,215.123 44.800,214.725 44.800 C 214.326 44.800,214.000 44.657,214.000 44.482 C 214.000 44.175,210.907 42.748,210.303 42.776 C 210.140 42.783,209.369 42.432,208.591 41.995 C 207.812 41.558,206.911 41.200,206.588 41.200 C 206.265 41.200,206.000 41.020,206.000 40.800 C 206.000 40.580,205.728 40.400,205.395 40.400 C 205.062 40.400,204.477 40.241,204.095 40.047 C 203.713 39.852,202.860 39.471,202.200 39.200 C 201.540 38.929,200.687 38.548,200.305 38.353 C 199.923 38.159,199.248 38.000,198.805 38.000 C 198.362 38.000,198.000 37.820,198.000 37.600 C 198.000 37.380,197.460 37.200,196.800 37.200 C 196.140 37.200,195.600 37.020,195.600 36.800 C 195.600 36.580,195.060 36.400,194.400 36.400 C 193.740 36.400,193.200 36.220,193.200 36.000 C 193.200 35.780,192.581 35.600,191.824 35.600 C 191.067 35.600,190.336 35.420,190.200 35.200 C 190.064 34.980,189.333 34.800,188.576 34.800 C 187.819 34.800,187.200 34.620,187.200 34.400 C 187.200 34.180,186.379 34.000,185.376 34.000 C 184.373 34.000,183.645 33.850,183.758 33.668 C 183.871 33.485,182.941 33.294,181.690 33.243 C 180.440 33.193,179.323 33.012,179.209 32.842 C 179.094 32.671,177.830 32.489,176.400 32.437 C 174.970 32.384,173.740 32.174,173.667 31.971 C 173.592 31.764,170.721 31.600,167.190 31.600 C 163.393 31.600,160.748 31.439,160.600 31.200 C 160.464 30.980,160.093 30.800,159.776 30.800 C 159.459 30.800,159.200 30.980,159.200 31.200 M117.863 59.421 C 121.238 61.995,121.104 66.867,117.601 68.936 C 114.071 71.021,95.113 69.626,94.000 67.200 C 93.848 66.870,93.516 66.197,93.262 65.705 C 92.694 64.606,92.661 62.933,93.200 62.600 C 93.420 62.464,93.600 62.073,93.600 61.730 C 93.600 61.388,94.265 60.499,95.078 59.754 L 96.556 58.400 106.540 58.400 L 116.524 58.400 117.863 59.421 M154.501 58.900 C 158.463 61.125,158.755 66.575,155.034 68.844 C 153.050 70.054,134.919 69.986,132.938 68.761 C 129.507 66.641,129.522 61.659,132.966 59.296 C 134.473 58.262,152.767 57.926,154.501 58.900 M220.993 64.131 C 223.600 66.630,223.622 71.065,221.037 73.335 C 219.273 74.885,215.603 75.775,215.000 74.800 C 214.864 74.580,214.473 74.400,214.130 74.400 C 213.080 74.400,210.876 71.633,210.593 69.960 C 209.522 63.619,216.422 59.752,220.993 64.131 M127.206 69.347 C 127.759 69.469,128.839 70.215,129.606 71.006 L 131.000 72.444 131.000 82.522 C 131.000 94.734,130.303 96.400,125.198 96.400 C 120.608 96.400,119.601 94.018,119.601 83.150 C 119.600 72.970,119.686 72.394,121.467 70.613 C 123.128 68.952,124.267 68.701,127.206 69.347 M194.707 153.017 C 171.577 159.341,175.343 192.555,199.385 194.273 C 201.081 194.394,202.761 194.277,203.685 193.972 L 205.200 193.472 205.200 190.402 C 205.200 179.995,216.967 167.859,223.940 171.073 C 231.963 174.772,237.600 182.839,237.600 190.622 L 237.600 193.568 239.110 194.020 C 241.316 194.681,246.943 194.221,249.500 193.170 C 256.245 190.398,260.219 186.475,262.436 180.400 C 263.523 177.422,263.831 168.471,262.879 167.519 C 262.615 167.255,262.400 166.721,262.400 166.332 C 262.400 163.644,256.805 157.104,252.600 154.877 C 243.966 150.305,235.263 151.811,227.351 159.246 C 222.398 163.900,219.026 164.133,216.196 160.017 C 212.293 154.341,202.059 151.007,194.707 153.017 M200.200 165.935 C 202.145 167.035,203.439 170.063,202.796 172.011 C 200.705 178.349,192.000 177.323,192.000 170.738 C 192.000 166.109,196.180 163.660,200.200 165.935 M247.985 165.730 C 251.429 167.374,251.773 173.284,248.547 175.398 C 246.959 176.439,243.631 176.361,242.066 175.247 C 236.401 171.213,241.683 162.721,247.985 165.730 M168.400 303.744 C 168.400 315.165,168.232 316.832,166.946 318.221 C 166.426 318.782,166.000 319.322,166.000 319.421 C 166.000 319.959,343.484 319.568,345.522 319.026 C 354.717 316.578,359.998 308.653,360.000 297.300 L 360.000 294.000 264.200 294.000 L 168.400 294.000 168.400 303.744 M221.267 299.182 C 226.473 301.530,228.093 306.786,225.033 311.400 C 220.426 318.349,210.000 315.198,210.000 306.857 C 210.000 300.661,215.795 296.713,221.267 299.182 M193.467 331.867 C 193.320 332.013,193.200 332.633,193.200 333.243 C 193.200 333.853,193.020 334.464,192.800 334.600 C 192.580 334.736,192.400 335.366,192.400 336.000 C 192.400 336.634,192.220 337.264,192.000 337.400 C 191.780 337.536,191.600 338.078,191.600 338.605 C 191.600 339.131,191.439 339.976,191.242 340.481 C 191.045 340.987,190.690 342.120,190.453 343.000 C 190.217 343.880,189.374 347.030,188.579 350.000 C 187.785 352.970,186.968 355.715,186.764 356.100 C 186.412 356.764,188.043 356.800,218.397 356.800 L 250.400 356.800 250.400 355.928 C 250.400 355.008,249.740 352.672,249.151 351.505 C 248.958 351.123,248.800 350.394,248.800 349.885 C 248.800 349.376,248.653 348.789,248.473 348.580 C 248.293 348.371,247.913 347.210,247.629 346.000 C 247.345 344.790,246.851 342.900,246.532 341.800 C 246.213 340.700,245.759 339.080,245.522 338.200 C 244.810 335.551,244.310 333.860,243.896 332.700 L 243.503 331.600 218.618 331.600 C 204.931 331.600,193.613 331.720,193.467 331.867 " stroke="none" fill="#ebedeb" fill-rule="evenodd"></path><path id="path2" d="M124.200 31.468 C 123.760 31.558,123.028 31.709,122.574 31.805 C 121.441 32.043,120.000 33.354,120.000 34.147 C 120.000 34.506,119.820 34.800,119.600 34.800 C 118.924 34.800,119.111 38.680,119.800 38.945 C 120.305 39.138,120.400 40.415,120.400 47.014 C 120.400 55.830,120.590 56.603,123.082 57.937 C 124.954 58.939,127.078 58.522,128.781 56.819 L 130.362 55.238 130.481 44.719 C 130.602 34.021,130.426 32.409,129.133 32.403 C 128.767 32.401,128.407 32.247,128.333 32.061 C 128.172 31.651,125.315 31.241,124.200 31.468 M96.800 59.315 C 92.359 61.364,92.929 68.006,97.626 68.945 C 99.695 69.359,114.470 69.232,116.074 68.786 C 120.512 67.553,120.934 61.522,116.729 59.424 C 115.156 58.640,98.463 58.549,96.800 59.315 M133.722 59.582 C 130.392 61.613,130.192 66.337,133.347 68.433 C 134.269 69.046,149.389 69.502,152.640 69.015 C 157.403 68.301,158.548 62.185,154.393 59.652 C 152.339 58.400,135.752 58.344,133.722 59.582 M213.844 63.746 C 210.371 65.848,210.168 71.224,213.480 73.426 C 215.237 74.595,218.847 74.470,220.213 73.193 C 225.471 68.281,219.930 60.062,213.844 63.746 M122.520 70.525 C 120.496 71.908,120.400 72.465,120.400 82.833 C 120.400 93.634,120.437 93.790,123.329 95.266 C 125.677 96.464,128.082 95.652,129.706 93.114 C 130.315 92.160,130.400 90.858,130.400 82.414 L 130.400 72.800 128.800 71.200 C 126.878 69.278,124.688 69.043,122.520 70.525 M265.857 100.996 C 265.656 101.520,254.937 101.604,175.914 101.696 C 75.254 101.813,85.033 101.503,78.237 104.787 C 70.871 108.346,65.543 114.619,62.766 123.000 L 61.839 125.800 61.701 165.500 C 61.582 199.912,61.486 205.200,60.982 205.200 C 60.477 205.200,60.400 209.938,60.400 241.000 L 60.400 276.800 58.200 276.800 C 56.990 276.800,56.000 276.980,56.000 277.200 C 56.000 277.420,55.710 277.600,55.354 277.600 C 53.676 277.600,47.200 282.699,47.200 284.020 C 47.200 284.260,46.921 284.736,46.580 285.077 C 46.240 285.418,45.857 286.215,45.730 286.848 C 45.604 287.482,45.343 288.000,45.150 288.000 C 44.958 288.000,44.800 292.571,44.800 298.157 L 44.800 308.315 38.700 308.458 C 28.058 308.708,28.467 307.940,28.429 327.720 C 28.397 344.222,28.366 343.974,30.756 346.100 L 31.993 347.200 43.597 347.200 L 55.200 347.200 55.200 352.000 L 55.200 356.800 51.600 356.800 C 49.467 356.800,48.000 356.963,48.000 357.200 C 48.000 357.420,47.706 357.600,47.347 357.600 C 44.542 357.600,43.690 364.517,46.187 367.013 C 47.147 367.974,47.939 368.400,48.763 368.400 C 49.417 368.400,50.064 368.580,50.200 368.800 C 50.364 369.066,103.471 369.200,208.224 369.200 C 313.141 369.200,366.000 369.066,366.000 368.800 C 366.000 368.580,366.452 368.400,367.005 368.400 C 368.639 368.400,370.800 366.949,370.800 365.852 C 370.800 365.519,370.980 365.136,371.200 365.000 C 372.525 364.181,371.369 360.013,369.259 357.996 L 368.007 356.800 315.975 356.800 C 259.416 356.800,262.800 356.938,262.800 354.629 C 262.800 354.063,262.620 353.600,262.400 353.600 C 262.180 353.600,262.000 352.880,262.000 352.000 C 262.000 351.120,261.820 350.400,261.600 350.400 C 261.380 350.400,261.200 349.860,261.200 349.200 C 261.200 348.540,261.020 348.000,260.800 348.000 C 260.580 348.000,260.400 347.381,260.400 346.624 C 260.400 345.867,260.220 345.136,260.000 345.000 C 259.780 344.864,259.600 344.324,259.600 343.800 C 259.600 343.276,259.445 342.752,259.256 342.635 C 259.067 342.518,258.792 341.394,258.644 340.138 C 258.497 338.881,258.224 337.661,258.038 337.426 C 257.852 337.192,257.603 336.460,257.483 335.800 C 257.364 335.140,257.090 333.925,256.875 333.100 L 256.484 331.600 300.219 331.600 C 328.943 331.600,344.038 331.463,344.200 331.200 C 344.336 330.980,345.427 330.800,346.624 330.800 C 347.821 330.800,348.800 330.620,348.800 330.400 C 348.800 330.180,349.340 330.000,350.000 330.000 C 350.660 330.000,351.200 329.820,351.200 329.600 C 351.200 329.380,351.740 329.200,352.400 329.200 C 353.060 329.200,353.600 329.020,353.600 328.800 C 353.600 328.580,353.960 328.400,354.400 328.400 C 354.840 328.400,355.200 328.220,355.200 328.000 C 355.200 327.780,355.470 327.600,355.800 327.600 C 356.130 327.600,356.400 327.420,356.400 327.200 C 356.400 326.980,356.670 326.800,357.000 326.800 C 357.330 326.800,357.600 326.620,357.600 326.400 C 357.600 326.180,357.788 326.000,358.017 326.000 C 358.456 326.000,358.722 325.804,360.796 323.951 C 361.505 323.318,362.246 322.800,362.442 322.800 C 362.639 322.800,362.800 322.606,362.800 322.369 C 362.800 322.131,363.520 321.246,364.400 320.400 C 365.280 319.554,366.000 318.618,366.000 318.320 C 366.000 318.021,366.360 317.517,366.800 317.200 C 367.240 316.883,367.600 316.303,367.600 315.912 C 367.600 315.520,367.780 315.200,368.000 315.200 C 368.220 315.200,368.400 314.840,368.400 314.400 C 368.400 313.960,368.580 313.600,368.800 313.600 C 369.020 313.600,369.200 313.161,369.200 312.624 C 369.200 312.087,369.380 311.536,369.600 311.400 C 369.820 311.264,370.000 310.724,370.000 310.200 C 370.000 309.676,370.180 309.136,370.400 309.000 C 370.620 308.864,370.800 308.054,370.800 307.200 C 370.800 306.346,370.980 305.536,371.200 305.400 C 371.754 305.057,371.754 126.943,371.200 126.600 C 370.980 126.464,370.800 125.731,370.800 124.971 C 370.800 124.211,370.632 123.277,370.427 122.895 C 370.221 122.513,369.822 121.345,369.539 120.300 C 369.257 119.255,368.885 118.400,368.713 118.400 C 368.541 118.400,368.400 118.040,368.400 117.600 C 368.400 117.160,368.220 116.800,368.000 116.800 C 367.780 116.800,367.600 116.480,367.600 116.088 C 367.600 115.697,367.240 115.117,366.800 114.800 C 366.360 114.483,366.000 113.993,366.000 113.712 C 366.000 113.431,365.280 112.459,364.400 111.552 C 363.520 110.645,362.800 109.776,362.800 109.619 C 362.800 109.463,362.305 109.080,361.700 108.768 C 361.095 108.455,360.123 107.705,359.540 107.100 C 358.956 106.495,358.364 106.000,358.223 106.000 C 358.082 106.000,357.580 105.640,357.108 105.200 C 356.636 104.760,356.013 104.400,355.725 104.400 C 355.436 104.400,355.200 104.220,355.200 104.000 C 355.200 103.780,354.840 103.600,354.400 103.600 C 353.960 103.600,353.600 103.420,353.600 103.200 C 353.600 102.980,353.060 102.800,352.400 102.800 C 351.740 102.800,351.200 102.620,351.200 102.400 C 351.200 102.180,350.660 102.000,350.000 102.000 C 349.340 102.000,348.800 101.820,348.800 101.600 C 348.800 101.380,347.900 101.200,346.800 101.200 C 345.700 101.200,344.800 101.020,344.800 100.800 C 344.800 100.072,266.137 100.267,265.857 100.996 M346.600 112.751 C 347.260 113.053,348.610 113.679,349.600 114.142 C 354.794 116.568,359.149 123.046,359.990 129.600 C 360.409 132.866,360.562 280.354,360.148 281.900 L 359.907 282.800 264.034 282.800 L 168.161 282.800 167.631 281.300 C 166.911 279.261,166.208 278.546,164.151 277.760 L 162.400 277.091 162.400 271.119 C 162.400 264.321,162.111 263.344,159.718 262.063 C 159.078 261.721,148.041 261.600,117.406 261.600 C 71.649 261.600,74.415 261.444,72.784 264.119 C 71.759 265.800,71.535 130.383,72.556 126.547 C 74.410 119.584,80.954 113.374,87.600 112.271 C 90.704 111.756,345.460 112.228,346.600 112.751 M214.800 117.857 C 200.666 119.685,187.143 127.575,178.730 138.900 L 176.724 141.600 166.342 141.600 C 158.059 141.600,155.734 141.717,154.840 142.180 C 151.989 143.653,151.447 147.771,153.769 150.306 L 155.138 151.800 163.208 151.937 C 172.335 152.091,171.461 151.670,170.401 155.400 C 169.738 157.735,169.238 159.886,168.728 162.600 C 168.076 166.071,167.802 272.155,168.441 273.699 C 169.869 277.146,173.332 277.937,181.200 276.614 C 192.978 274.634,201.810 270.247,210.401 262.109 L 214.202 258.509 220.801 258.292 C 246.161 257.458,267.631 239.580,273.275 214.600 C 275.365 205.347,275.017 166.108,272.765 157.200 C 272.125 154.670,271.602 152.479,271.601 152.331 C 271.600 152.182,275.065 152.002,279.300 151.931 C 288.817 151.769,290.400 151.001,290.400 146.545 C 290.400 142.143,288.862 141.600,276.404 141.600 L 266.045 141.600 263.818 138.641 C 259.418 132.795,251.151 125.911,245.166 123.110 C 239.459 120.438,238.294 120.035,232.000 118.550 C 229.434 117.945,217.757 117.474,214.800 117.857 M205.189 152.432 C 208.650 153.229,212.036 155.200,215.177 158.245 C 220.862 163.757,222.132 163.836,226.800 158.967 C 236.807 148.529,252.898 149.781,260.667 161.600 C 270.144 176.018,259.831 194.800,242.438 194.800 C 237.301 194.800,237.101 194.645,236.988 190.560 C 236.776 182.913,232.456 176.413,224.686 172.048 C 217.564 168.048,206.345 179.094,205.719 190.721 C 205.504 194.710,205.380 194.800,200.085 194.800 C 196.392 194.800,191.957 193.721,189.938 192.331 C 189.354 191.929,188.690 191.600,188.463 191.600 C 187.422 191.600,182.118 185.699,180.913 183.200 C 172.850 166.478,187.203 148.287,205.189 152.432 M194.983 166.345 C 190.605 169.015,192.068 175.600,197.040 175.600 C 199.647 175.600,201.221 174.649,201.998 172.604 C 203.691 168.151,198.953 163.924,194.983 166.345 M243.400 166.067 C 238.594 168.725,239.919 175.600,245.237 175.600 C 250.607 175.600,252.294 168.628,247.521 166.159 C 246.234 165.494,244.506 165.455,243.400 166.067 M224.554 184.928 C 227.839 189.318,227.582 193.115,223.723 197.241 C 221.515 199.602,221.266 199.625,219.254 197.653 C 214.732 193.220,215.085 186.966,220.077 183.059 L 221.357 182.057 222.479 182.856 C 223.097 183.296,224.030 184.228,224.554 184.928 M182.081 199.720 C 190.141 205.225,197.236 206.389,209.101 204.154 C 210.194 203.948,210.649 204.125,211.939 205.254 C 212.785 205.994,214.068 207.099,214.790 207.710 L 216.104 208.819 215.887 219.710 C 215.645 231.774,215.247 234.203,212.397 240.978 C 207.718 252.103,196.825 261.699,185.354 264.802 C 179.886 266.281,179.476 266.370,179.134 266.159 C 178.657 265.864,178.703 198.000,179.181 198.000 C 179.390 198.000,180.695 198.774,182.081 199.720 M152.157 272.633 C 152.811 274.336,152.419 277.180,151.500 277.402 C 151.005 277.522,135.390 277.571,116.800 277.510 L 83.000 277.400 82.882 274.700 L 82.763 272.000 117.339 272.000 C 148.498 272.000,151.938 272.063,152.157 272.633 M121.872 288.400 L 157.213 288.400 157.107 298.900 L 157.000 309.400 108.600 309.400 C 55.610 309.400,58.870 309.547,57.036 307.072 C 56.277 306.048,56.189 305.313,56.085 299.072 C 55.891 287.536,55.408 287.840,73.365 288.163 C 80.606 288.293,102.434 288.400,121.872 288.400 M359.522 293.458 C 360.824 293.807,360.608 303.522,359.221 307.000 C 356.482 313.864,351.426 318.250,344.294 319.947 C 342.224 320.439,164.367 320.634,163.877 320.144 C 163.737 320.003,164.202 319.578,164.911 319.199 C 167.640 317.740,167.787 317.044,167.911 305.000 C 167.972 299.060,168.101 293.975,168.199 293.700 C 168.385 293.170,357.553 292.930,359.522 293.458 M214.278 300.039 C 209.731 302.438,209.060 309.629,213.089 312.799 C 218.656 317.178,225.850 313.662,225.769 306.600 C 225.703 300.798,219.524 297.270,214.278 300.039 M144.400 321.159 C 147.972 323.651,147.741 332.620,144.041 335.092 L 142.682 336.000 91.341 336.000 L 40.000 336.000 40.000 328.267 C 40.000 324.013,40.086 320.447,40.191 320.342 C 40.847 319.686,143.441 320.490,144.400 321.159 M243.971 330.965 C 244.341 331.411,247.618 342.279,250.043 351.100 C 250.239 351.815,250.593 353.075,250.828 353.900 C 251.063 354.725,251.354 355.805,251.474 356.300 L 251.693 357.200 218.847 357.200 C 189.324 357.200,186.000 357.137,186.000 356.575 C 186.000 355.090,192.961 331.358,193.531 330.900 C 194.509 330.114,243.317 330.177,243.971 330.965 M180.800 332.576 C 180.800 333.113,180.620 333.664,180.400 333.800 C 180.180 333.936,180.000 334.577,180.000 335.224 C 180.000 335.871,179.820 336.400,179.600 336.400 C 179.380 336.400,179.200 337.120,179.200 338.000 C 179.200 338.880,179.020 339.600,178.800 339.600 C 178.580 339.600,178.400 340.140,178.400 340.800 C 178.400 341.460,178.240 342.000,178.044 342.000 C 177.848 342.000,177.595 342.585,177.481 343.300 C 177.367 344.015,177.091 345.230,176.866 346.000 C 176.641 346.770,176.057 349.020,175.568 351.000 C 174.079 357.022,174.250 356.800,171.102 356.800 L 168.400 356.800 168.400 354.880 C 168.400 353.824,168.616 352.744,168.880 352.480 C 169.253 352.107,169.253 351.893,168.880 351.520 C 168.616 351.256,168.400 349.996,168.400 348.720 C 168.400 347.440,168.221 346.400,168.000 346.400 C 167.780 346.400,167.600 345.950,167.600 345.400 C 167.600 344.850,167.420 344.400,167.200 344.400 C 166.980 344.400,166.800 344.130,166.800 343.800 C 166.800 343.470,166.620 343.200,166.400 343.200 C 166.180 343.200,166.000 343.016,166.000 342.791 C 166.000 342.249,161.736 338.000,161.192 338.000 C 160.958 338.000,160.380 337.640,159.908 337.200 C 159.436 336.760,158.723 336.400,158.325 336.400 C 157.525 336.400,157.257 334.259,158.000 333.800 C 158.220 333.664,158.400 333.113,158.400 332.576 L 158.400 331.600 169.600 331.600 L 180.800 331.600 180.800 332.576 M155.600 348.400 C 157.040 349.840,157.200 350.200,157.200 352.000 C 157.200 353.800,157.040 354.160,155.600 355.600 L 154.000 357.200 110.400 357.200 L 66.800 357.200 66.800 352.267 C 66.800 349.553,66.920 347.213,67.067 347.067 C 67.213 346.920,86.833 346.800,110.667 346.800 L 154.000 346.800 155.600 348.400 " stroke="none" fill="#4e2720" fill-rule="evenodd"></path><path id="path3" d="M130.573 44.800 C 130.573 50.190,130.630 52.395,130.699 49.700 C 130.768 47.005,130.768 42.595,130.699 39.900 C 130.630 37.205,130.573 39.410,130.573 44.800 M119.491 39.265 C 119.830 39.676,120.020 42.201,120.105 47.430 L 120.228 55.000 120.214 47.033 C 120.202 40.314,120.106 39.035,119.600 38.868 C 119.112 38.707,119.091 38.781,119.491 39.265 M128.638 56.895 C 127.162 58.435,127.328 58.629,128.937 57.244 C 129.573 56.696,130.640 55.138,130.314 55.233 C 130.251 55.252,129.497 55.999,128.638 56.895 M102.078 58.698 C 104.431 58.769,108.391 58.769,110.878 58.699 C 113.365 58.629,111.440 58.571,106.600 58.570 C 101.760 58.570,99.725 58.628,102.078 58.698 M124.705 58.683 C 125.202 58.779,125.922 58.775,126.305 58.675 C 126.687 58.575,126.280 58.496,125.400 58.501 C 124.520 58.505,124.207 58.587,124.705 58.683 M139.678 58.698 C 142.031 58.769,145.991 58.769,148.478 58.699 C 150.965 58.629,149.040 58.571,144.200 58.570 C 139.360 58.570,137.325 58.628,139.678 58.698 M116.200 59.200 C 116.336 59.420,116.691 59.600,116.988 59.600 C 117.286 59.600,117.995 60.154,118.564 60.831 C 119.134 61.508,119.600 61.886,119.600 61.672 C 119.600 61.182,116.914 58.800,116.362 58.800 C 116.137 58.800,116.064 58.980,116.200 59.200 M132.614 60.041 C 131.836 60.724,131.200 61.484,131.200 61.730 C 131.200 61.977,131.491 61.763,131.847 61.255 C 132.202 60.747,133.057 59.988,133.747 59.567 C 134.436 59.147,134.781 58.802,134.514 58.801 C 134.247 58.801,133.392 59.359,132.614 60.041 M154.393 59.652 C 155.159 60.119,156.014 60.793,156.294 61.151 C 156.756 61.742,156.780 61.738,156.561 61.108 C 156.326 60.432,154.054 58.799,153.353 58.801 C 153.159 58.802,153.627 59.185,154.393 59.652 M94.412 60.783 C 93.931 61.459,93.627 62.234,93.737 62.506 C 93.866 62.825,93.948 62.779,93.968 62.375 C 93.986 62.032,94.378 61.345,94.840 60.849 C 95.302 60.353,95.592 59.859,95.484 59.751 C 95.376 59.642,94.894 60.107,94.412 60.783 M156.874 64.053 C 156.810 66.012,156.631 66.474,155.500 67.603 C 154.630 68.471,154.479 68.757,155.043 68.466 C 156.569 67.682,157.254 66.151,157.094 63.883 L 156.948 61.800 156.874 64.053 M119.709 64.000 C 119.709 64.990,119.787 65.395,119.882 64.900 C 119.978 64.405,119.978 63.595,119.882 63.100 C 119.787 62.605,119.709 63.010,119.709 64.000 M130.674 63.239 C 130.553 63.700,130.598 64.465,130.773 64.938 C 131.015 65.594,131.091 65.395,131.091 64.099 C 131.091 62.201,130.996 62.006,130.674 63.239 M213.800 63.390 C 211.843 64.595,212.187 64.735,214.195 63.550 C 215.290 62.904,216.036 62.753,217.297 62.922 C 218.380 63.068,218.757 63.018,218.379 62.779 C 217.348 62.126,215.438 62.381,213.800 63.390 M220.154 64.035 C 223.068 66.328,223.186 69.880,220.451 72.999 L 219.400 74.197 220.538 73.199 C 222.664 71.333,223.436 68.385,222.351 66.274 C 221.764 65.131,219.955 63.200,219.471 63.200 C 219.263 63.200,219.570 63.576,220.154 64.035 M211.265 65.817 C 209.138 70.485,213.773 76.225,218.294 74.523 C 218.952 74.275,218.583 74.185,216.894 74.179 C 212.429 74.164,209.601 69.735,211.632 65.939 C 211.870 65.495,211.989 65.056,211.897 64.964 C 211.805 64.872,211.521 65.256,211.265 65.817 M93.602 65.562 C 93.599 66.330,95.527 68.802,96.120 68.791 C 96.384 68.786,96.204 68.471,95.720 68.091 C 95.236 67.711,94.562 66.860,94.222 66.200 C 93.883 65.540,93.604 65.253,93.602 65.562 M118.134 67.451 C 117.438 68.193,117.009 68.800,117.180 68.800 C 117.604 68.800,119.600 66.775,119.600 66.345 C 119.600 65.889,119.598 65.891,118.134 67.451 M97.515 69.272 C 98.447 69.642,115.283 69.662,115.862 69.294 C 116.116 69.132,111.938 69.000,106.577 69.000 C 101.216 69.000,97.138 69.122,97.515 69.272 M134.715 69.272 C 135.092 69.421,139.270 69.544,144.000 69.544 C 148.730 69.544,152.908 69.421,153.285 69.272 C 153.662 69.122,149.484 69.000,144.000 69.000 C 138.516 69.000,134.338 69.122,134.715 69.272 M122.162 70.462 L 121.400 71.324 122.500 70.616 C 123.634 69.886,123.849 69.600,123.262 69.600 C 123.076 69.600,122.581 69.988,122.162 70.462 M127.956 70.317 C 128.482 70.741,129.262 71.518,129.691 72.044 C 130.119 72.570,130.336 72.730,130.174 72.400 C 129.692 71.421,128.664 70.353,127.804 69.936 C 127.194 69.640,127.230 69.732,127.956 70.317 M120.173 82.600 C 120.173 87.880,120.230 89.985,120.299 87.277 C 120.368 84.569,120.368 80.249,120.299 77.677 C 120.229 75.105,120.172 77.320,120.173 82.600 M130.572 82.800 C 130.572 87.970,130.629 90.085,130.699 87.500 C 130.768 84.915,130.768 80.685,130.699 78.100 C 130.629 75.515,130.572 77.630,130.572 82.800 M129.557 93.335 C 129.296 93.907,128.345 94.740,127.442 95.187 C 126.539 95.634,126.034 96.000,126.320 96.000 C 127.779 96.001,130.933 93.200,130.247 92.514 C 130.128 92.394,129.817 92.764,129.557 93.335 M120.790 93.521 C 121.247 94.435,123.430 96.010,124.200 95.982 C 124.420 95.975,124.060 95.689,123.400 95.348 C 122.740 95.007,121.779 94.249,121.264 93.664 C 120.431 92.716,120.379 92.701,120.790 93.521 M265.354 100.806 C 265.101 101.059,234.039 101.234,177.581 101.300 L 90.200 101.402 177.876 101.501 C 239.643 101.571,265.631 101.474,265.816 101.173 C 266.177 100.590,265.838 100.322,265.354 100.806 M85.000 102.019 C 84.442 102.271,84.685 102.307,85.800 102.138 C 86.680 102.004,87.475 101.828,87.567 101.747 C 87.910 101.444,85.768 101.671,85.000 102.019 M77.500 104.629 C 76.895 104.957,76.400 105.306,76.400 105.404 C 76.400 105.628,78.466 104.763,78.980 104.324 C 79.607 103.790,78.704 103.976,77.500 104.629 M73.731 107.048 C 71.176 108.964,68.920 111.122,67.926 112.600 C 67.482 113.260,67.940 112.883,68.942 111.762 C 69.945 110.641,71.808 108.941,73.082 107.983 C 75.953 105.827,76.222 105.600,75.911 105.600 C 75.773 105.600,74.792 106.252,73.731 107.048 M64.581 117.637 C 64.229 118.318,64.012 118.945,64.099 119.032 C 64.186 119.119,64.556 118.562,64.922 117.795 C 65.744 116.070,65.459 115.938,64.581 117.637 M218.917 117.497 C 220.411 117.574,222.751 117.574,224.117 117.496 C 225.482 117.418,224.260 117.355,221.400 117.355 C 218.540 117.356,217.422 117.420,218.917 117.497 M76.575 118.900 L 75.400 120.200 76.700 119.025 C 77.415 118.379,78.000 117.794,78.000 117.725 C 78.000 117.416,77.670 117.688,76.575 118.900 M62.649 122.215 C 62.512 122.573,62.415 123.166,62.434 123.533 C 62.453 123.900,62.627 123.669,62.821 123.020 C 63.198 121.758,63.065 121.133,62.649 122.215 M61.714 127.400 C 61.717 128.500,61.795 128.903,61.887 128.295 C 61.979 127.686,61.977 126.786,61.882 126.295 C 61.787 125.803,61.711 126.300,61.714 127.400 M61.200 166.626 C 61.200 191.385,61.063 203.909,60.786 204.426 C 60.460 205.035,60.503 205.200,60.986 205.200 C 61.534 205.200,61.600 201.118,61.600 167.400 C 61.600 146.610,61.510 129.600,61.400 129.600 C 61.290 129.600,61.200 146.262,61.200 166.626 M183.591 133.100 L 180.200 136.600 183.700 133.209 C 185.625 131.344,187.200 129.769,187.200 129.709 C 187.200 129.418,186.741 129.849,183.591 133.100 M256.000 130.110 C 256.000 130.171,257.395 131.566,259.100 133.210 L 262.200 136.200 259.210 133.100 C 256.433 130.221,256.000 129.817,256.000 130.110 M360.196 206.600 C 360.196 247.960,360.243 264.939,360.300 244.332 C 360.357 223.724,360.357 189.884,360.300 169.132 C 360.243 148.379,360.196 165.240,360.196 206.600 M176.967 140.793 C 176.737 141.023,172.360 141.233,166.387 141.300 L 156.200 141.414 166.451 141.507 C 175.154 141.586,176.777 141.509,177.200 141.000 C 177.754 140.332,177.581 140.179,176.967 140.793 M270.876 141.499 C 273.668 141.567,278.348 141.568,281.276 141.499 C 284.204 141.431,281.920 141.375,276.200 141.374 C 270.480 141.374,268.084 141.430,270.876 141.499 M152.109 146.800 C 152.109 147.790,152.187 148.195,152.282 147.700 C 152.378 147.205,152.378 146.395,152.282 145.900 C 152.187 145.405,152.109 145.810,152.109 146.800 M290.463 146.600 C 290.426 147.480,290.016 148.825,289.550 149.589 C 289.035 150.435,288.940 150.782,289.309 150.476 C 290.249 149.695,290.874 147.830,290.693 146.347 C 290.533 145.044,290.526 145.052,290.463 146.600 M197.900 152.295 C 199.055 152.376,200.945 152.376,202.100 152.295 C 203.255 152.214,202.310 152.148,200.000 152.148 C 197.690 152.148,196.745 152.214,197.900 152.295 M240.515 152.296 C 241.788 152.376,243.768 152.375,244.915 152.294 C 246.062 152.214,245.020 152.149,242.600 152.150 C 240.180 152.151,239.242 152.216,240.515 152.296 M192.600 153.217 C 191.720 153.655,191.360 153.901,191.800 153.763 C 192.240 153.626,193.185 153.344,193.900 153.138 C 194.615 152.931,195.200 152.681,195.200 152.581 C 195.200 152.194,194.131 152.455,192.600 153.217 M205.200 152.762 C 205.530 152.996,206.044 153.191,206.343 153.194 C 208.152 153.214,212.404 155.936,215.517 159.065 C 217.341 160.899,219.051 162.394,219.317 162.387 C 219.583 162.380,219.440 162.105,219.000 161.775 C 218.560 161.446,216.840 159.857,215.177 158.245 C 213.193 156.322,211.269 154.893,209.577 154.087 C 206.894 152.810,204.059 151.951,205.200 152.762 M236.200 152.800 L 235.400 153.144 236.200 153.166 C 236.640 153.178,237.270 153.013,237.600 152.800 C 238.395 152.286,237.396 152.286,236.200 152.800 M248.000 152.800 C 248.330 153.013,248.870 153.188,249.200 153.188 C 249.733 153.188,249.733 153.145,249.200 152.800 C 248.870 152.587,248.330 152.412,248.000 152.412 C 247.467 152.412,247.467 152.455,248.000 152.800 M232.049 154.709 C 230.676 155.539,228.348 157.406,226.876 158.858 C 225.404 160.309,223.840 161.695,223.400 161.936 C 222.960 162.178,222.833 162.381,223.118 162.388 C 223.402 162.395,225.223 160.895,227.164 159.056 C 229.229 157.099,231.628 155.254,232.947 154.609 C 234.186 154.002,235.200 153.437,235.200 153.353 C 235.200 152.953,234.343 153.322,232.049 154.709 M188.593 155.054 C 185.324 157.216,180.390 162.945,180.404 164.562 C 180.406 164.803,180.974 164.010,181.667 162.800 C 183.180 160.157,187.235 156.054,189.305 155.072 C 190.726 154.397,191.167 154.000,190.493 154.000 C 190.324 154.000,189.469 154.474,188.593 155.054 M252.000 154.175 C 252.000 154.257,252.807 154.797,253.794 155.375 C 256.777 157.124,261.600 162.420,261.600 163.948 C 261.600 164.171,261.778 164.463,261.995 164.597 C 263.139 165.304,260.313 160.689,258.242 158.468 C 256.366 156.456,252.000 153.453,252.000 154.175 M169.029 159.429 C 168.881 160.015,168.838 160.572,168.932 160.666 C 169.027 160.760,169.224 160.358,169.371 159.771 C 169.519 159.185,169.562 158.628,169.468 158.534 C 169.373 158.440,169.176 158.842,169.029 159.429 M274.093 163.200 C 274.093 163.970,274.175 164.285,274.276 163.900 C 274.376 163.515,274.376 162.885,274.276 162.500 C 274.175 162.115,274.093 162.430,274.093 163.200 M262.605 166.000 C 263.574 169.884,263.983 171.041,263.793 169.356 C 263.692 168.452,263.327 167.102,262.982 166.356 C 262.572 165.468,262.442 165.345,262.605 166.000 M193.632 166.892 C 192.200 168.356,191.869 169.301,192.107 171.245 C 192.257 172.478,192.278 172.445,192.336 170.886 C 192.411 168.879,193.284 167.381,194.983 166.345 C 195.732 165.888,195.949 165.602,195.547 165.601 C 195.189 165.601,194.327 166.181,193.632 166.892 M199.877 166.381 C 200.579 166.810,201.427 167.664,201.761 168.280 C 202.111 168.926,202.375 169.137,202.384 168.778 C 202.404 168.009,199.974 165.599,199.181 165.601 C 198.861 165.602,199.175 165.953,199.877 166.381 M242.232 166.206 C 239.231 168.477,239.368 173.577,242.475 175.240 C 243.191 175.623,243.115 175.453,242.129 174.467 C 239.406 171.744,239.979 167.959,243.400 166.067 C 243.950 165.763,244.012 165.625,243.600 165.625 C 243.270 165.625,242.654 165.887,242.232 166.206 M247.400 166.067 C 247.840 166.310,248.650 166.889,249.200 167.353 C 249.987 168.017,249.949 167.920,249.025 166.899 C 248.379 166.184,247.569 165.605,247.225 165.612 C 246.758 165.621,246.802 165.736,247.400 166.067 M274.493 167.600 C 274.493 168.370,274.575 168.685,274.676 168.300 C 274.776 167.915,274.776 167.285,274.676 166.900 C 274.575 166.515,274.493 166.830,274.493 167.600 M179.056 168.084 C 178.921 168.588,178.828 169.450,178.849 170.000 C 178.872 170.589,179.031 170.271,179.236 169.225 C 179.603 167.352,179.473 166.527,179.056 168.084 M250.179 170.565 C 250.191 171.752,250.335 172.639,250.500 172.538 C 250.896 172.294,250.875 169.537,250.473 168.904 C 250.298 168.629,250.167 169.370,250.179 170.565 M220.143 170.820 C 217.781 171.311,212.550 174.957,210.354 177.642 C 208.642 179.734,206.210 183.943,206.528 184.261 C 206.652 184.385,207.024 183.839,207.354 183.048 C 209.701 177.431,216.903 171.395,221.600 171.110 C 222.930 171.029,223.139 170.942,222.400 170.779 C 221.850 170.658,220.834 170.676,220.143 170.820 M264.124 173.400 C 264.126 174.720,264.201 175.212,264.290 174.493 C 264.379 173.774,264.377 172.694,264.286 172.093 C 264.195 171.492,264.122 172.080,264.124 173.400 M178.501 173.400 C 178.505 174.280,178.587 174.593,178.683 174.095 C 178.779 173.598,178.775 172.878,178.675 172.495 C 178.575 172.113,178.496 172.520,178.501 173.400 M225.200 172.157 C 225.200 172.255,225.875 172.749,226.700 173.255 C 229.944 175.244,233.427 179.120,235.256 182.777 C 235.648 183.560,235.975 183.913,235.984 183.562 C 236.013 182.405,232.980 178.242,230.259 175.706 C 227.932 173.537,225.200 171.620,225.200 172.157 M274.901 173.400 C 274.905 174.280,274.987 174.593,275.083 174.095 C 275.179 173.598,275.175 172.878,275.075 172.495 C 274.975 172.113,274.896 172.520,274.901 173.400 M192.886 173.571 C 193.201 174.105,193.895 174.802,194.429 175.120 L 195.400 175.698 194.512 174.949 C 194.023 174.537,193.329 173.840,192.968 173.400 C 192.343 172.637,192.339 172.645,192.886 173.571 M248.681 174.301 C 247.897 175.085,247.034 175.447,245.502 175.632 L 243.400 175.887 245.120 175.944 C 246.902 176.002,248.673 175.317,249.586 174.217 C 250.503 173.112,249.805 173.177,248.681 174.301 M200.800 174.357 C 200.800 174.876,199.675 175.290,197.400 175.608 L 195.400 175.887 197.200 175.942 C 198.370 175.978,199.455 175.720,200.300 175.204 C 201.622 174.398,201.920 174.000,201.200 174.000 C 200.980 174.000,200.800 174.161,200.800 174.357 M178.847 176.640 C 178.821 177.322,178.996 178.492,179.235 179.240 C 179.475 179.988,179.749 180.851,179.845 181.157 C 179.940 181.464,180.110 181.624,180.221 181.513 C 180.332 181.402,180.220 180.791,179.973 180.155 C 179.726 179.520,179.382 178.190,179.209 177.200 C 178.952 175.731,178.885 175.628,178.847 176.640 M263.287 177.900 C 263.056 178.945,262.752 180.250,262.612 180.800 C 262.417 181.561,262.494 181.505,262.932 180.563 C 263.524 179.292,264.214 176.000,263.888 176.000 C 263.788 176.000,263.517 176.855,263.287 177.900 M274.580 192.800 C 274.580 200.610,274.634 203.805,274.699 199.900 C 274.765 195.995,274.765 189.605,274.699 185.700 C 274.634 181.795,274.580 184.990,274.580 192.800 M221.004 182.393 C 220.866 182.617,221.027 182.800,221.362 182.800 C 221.698 182.800,222.653 183.381,223.486 184.091 C 224.370 184.844,224.667 184.993,224.200 184.447 C 222.959 182.998,221.292 181.927,221.004 182.393 M261.614 182.900 C 259.013 189.290,250.518 194.432,242.662 194.372 C 237.629 194.333,237.414 194.220,237.549 191.670 C 237.668 189.432,236.915 185.244,236.278 184.600 C 236.016 184.335,235.962 184.428,236.119 184.875 C 236.720 186.589,237.248 190.740,237.034 192.075 C 236.676 194.316,237.638 194.800,242.451 194.800 C 250.833 194.800,259.702 189.344,262.120 182.700 C 262.496 181.668,262.042 181.847,261.614 182.900 M218.975 184.100 L 217.800 185.400 219.100 184.225 C 219.815 183.579,220.400 182.994,220.400 182.925 C 220.400 182.616,220.070 182.888,218.975 184.100 M181.210 183.900 C 181.248 185.051,188.043 192.091,188.589 191.545 C 188.681 191.452,187.782 190.621,186.590 189.699 C 185.398 188.776,183.762 187.027,182.955 185.811 C 181.521 183.652,181.190 183.289,181.210 183.900 M206.049 185.200 C 206.016 185.530,205.889 186.250,205.767 186.800 C 205.575 187.664,205.607 187.703,205.999 187.088 C 206.248 186.697,206.375 185.977,206.281 185.488 C 206.186 185.000,206.082 184.870,206.049 185.200 M225.592 187.184 C 227.239 190.413,226.228 194.617,223.131 197.414 C 221.077 199.270,219.417 198.393,217.117 194.235 C 216.741 193.556,216.427 193.180,216.418 193.400 C 216.370 194.658,220.268 199.200,221.396 199.200 C 222.168 199.200,225.485 195.449,226.177 193.792 C 227.215 191.309,226.383 185.600,224.984 185.600 C 224.874 185.600,225.147 186.313,225.592 187.184 M205.320 190.800 C 205.320 192.010,205.395 192.505,205.487 191.900 C 205.578 191.295,205.578 190.305,205.487 189.700 C 205.395 189.095,205.320 189.590,205.320 190.800 M216.114 190.600 C 216.117 191.700,216.195 192.103,216.287 191.495 C 216.379 190.886,216.377 189.986,216.282 189.495 C 216.187 189.003,216.111 189.500,216.114 190.600 M190.000 192.367 C 190.550 192.815,191.255 193.186,191.567 193.191 C 192.294 193.203,192.112 193.052,190.400 192.227 L 189.000 191.552 190.000 192.367 M194.979 194.230 C 197.377 195.006,204.453 194.909,205.272 194.089 C 205.685 193.675,205.539 193.663,204.495 194.027 C 203.224 194.470,196.701 194.349,194.200 193.836 C 193.540 193.700,193.890 193.878,194.979 194.230 M178.800 231.976 C 178.800 250.663,178.950 266.046,179.134 266.159 C 180.631 267.084,192.207 262.666,197.200 259.264 C 210.288 250.346,215.494 239.327,215.887 219.710 L 216.104 208.819 214.790 207.710 C 214.068 207.099,212.785 205.994,211.939 205.254 C 210.649 204.125,210.194 203.948,209.101 204.154 C 197.236 206.389,190.141 205.225,182.081 199.720 C 180.695 198.774,179.390 198.000,179.181 198.000 C 178.943 198.000,178.800 210.732,178.800 231.976 M274.093 210.000 C 274.093 210.770,274.175 211.085,274.276 210.700 C 274.376 210.315,274.376 209.685,274.276 209.300 C 274.175 208.915,274.093 209.230,274.093 210.000 M258.191 242.100 L 255.000 245.400 258.300 242.209 C 261.365 239.246,261.782 238.800,261.491 238.800 C 261.430 238.800,259.945 240.285,258.191 242.100 M251.200 248.049 C 249.806 249.271,249.805 249.272,251.088 248.419 C 251.796 247.948,252.482 247.391,252.612 247.181 C 252.997 246.557,252.677 246.754,251.200 248.049 M216.300 258.696 C 217.675 258.774,219.925 258.774,221.300 258.696 C 222.675 258.618,221.550 258.554,218.800 258.554 C 216.050 258.554,214.925 258.618,216.300 258.696 M210.800 261.800 C 209.828 262.790,209.123 263.600,209.233 263.600 C 209.343 263.600,210.228 262.790,211.200 261.800 C 212.172 260.810,212.877 260.000,212.767 260.000 C 212.657 260.000,211.772 260.810,210.800 261.800 M96.931 261.500 C 108.332 261.559,126.872 261.559,138.131 261.500 C 149.389 261.441,140.060 261.393,117.400 261.393 C 94.740 261.393,85.529 261.441,96.931 261.500 M162.560 271.400 C 162.561 274.700,162.622 275.997,162.698 274.282 C 162.773 272.567,162.772 269.867,162.697 268.282 C 162.621 266.697,162.559 268.100,162.560 271.400 M151.885 274.427 C 152.008 275.842,152.174 277.075,152.254 277.167 C 152.581 277.541,152.360 272.956,152.025 272.427 C 151.799 272.069,151.746 272.820,151.885 274.427 M100.330 277.500 C 109.862 277.560,125.342 277.560,134.730 277.500 C 144.119 277.440,136.320 277.391,117.400 277.391 C 98.480 277.391,90.799 277.440,100.330 277.500 M173.500 277.482 C 173.995 277.578,174.805 277.578,175.300 277.482 C 175.795 277.387,175.390 277.309,174.400 277.309 C 173.410 277.309,173.005 277.387,173.500 277.482 M58.831 288.694 C 56.262 290.135,55.954 291.296,56.085 299.072 C 56.189 305.313,56.277 306.048,57.036 307.072 C 58.870 309.547,55.610 309.400,108.600 309.400 L 157.000 309.400 157.107 298.900 L 157.213 288.400 121.872 288.400 C 102.434 288.400,80.606 288.293,73.365 288.163 C 60.882 287.939,60.129 287.966,58.831 288.694 M156.800 298.809 L 156.800 308.818 108.082 308.709 L 59.363 308.600 58.182 307.419 L 57.000 306.238 56.875 298.890 L 56.750 291.542 58.203 290.171 L 59.657 288.800 108.228 288.800 L 156.800 288.800 156.800 298.809 M168.262 293.500 C 168.094 293.771,232.420 293.770,324.800 293.498 C 343.830 293.441,316.436 293.352,263.924 293.298 C 211.412 293.244,168.364 293.335,168.262 293.500 M360.081 298.000 C 360.030 300.530,359.889 303.050,359.767 303.600 C 359.580 304.441,359.615 304.491,359.985 303.913 C 360.263 303.479,360.378 301.418,360.299 298.313 L 360.173 293.400 360.081 298.000 M217.000 298.843 C 216.083 299.043,216.342 299.116,218.100 299.153 C 219.365 299.179,220.400 299.130,220.400 299.045 C 220.400 298.724,218.152 298.590,217.000 298.843 M213.731 299.977 C 212.509 300.722,210.400 303.377,210.400 304.171 C 210.400 304.383,210.930 303.721,211.578 302.699 C 212.253 301.634,213.405 300.499,214.278 300.039 C 215.115 299.597,215.620 299.228,215.400 299.219 C 215.180 299.210,214.429 299.551,213.731 299.977 M223.305 301.043 C 223.912 301.679,224.690 302.560,225.033 303.000 C 225.439 303.521,225.404 303.340,224.932 302.483 C 224.533 301.758,223.756 300.878,223.204 300.525 C 222.230 299.904,222.233 299.919,223.305 301.043 M225.765 306.739 C 225.765 308.435,225.569 309.791,225.282 310.078 C 225.017 310.343,224.800 310.744,224.800 310.969 C 224.800 311.194,225.072 310.990,225.404 310.516 C 226.170 309.422,226.535 306.550,226.099 305.042 C 225.843 304.154,225.765 304.551,225.765 306.739 M210.120 306.800 C 210.120 308.010,210.195 308.505,210.287 307.900 C 210.378 307.295,210.378 306.305,210.287 305.700 C 210.195 305.095,210.120 305.590,210.120 306.800 M210.418 309.326 C 210.363 310.333,212.436 312.995,213.800 313.669 C 214.240 313.887,214.011 313.584,213.291 312.997 C 212.571 312.409,211.634 311.269,211.209 310.464 C 210.783 309.659,210.427 309.147,210.418 309.326 M356.305 311.814 C 354.629 314.195,352.246 316.280,349.683 317.609 C 348.738 318.098,348.049 318.582,348.151 318.685 C 348.456 318.989,351.784 316.891,353.771 315.142 C 355.496 313.624,358.250 310.103,357.939 309.816 C 357.862 309.746,357.127 310.645,356.305 311.814 M167.645 315.400 C 167.619 315.840,167.232 316.799,166.785 317.532 C 166.338 318.265,166.160 318.748,166.389 318.607 C 167.087 318.175,168.059 315.988,167.871 315.273 C 167.729 314.738,167.683 314.764,167.645 315.400 M164.502 319.375 C 164.009 319.648,163.724 319.990,163.869 320.136 C 164.219 320.486,342.801 320.423,343.685 320.072 C 344.062 319.922,304.062 319.847,254.796 319.904 C 175.026 319.997,165.247 319.943,165.454 319.404 C 165.720 318.710,165.705 318.710,164.502 319.375 M40.191 320.342 C 40.086 320.447,40.000 324.013,40.000 328.267 L 40.000 336.000 91.341 336.000 L 142.682 336.000 144.041 335.092 C 147.741 332.620,147.972 323.651,144.400 321.159 C 143.441 320.490,40.847 319.686,40.191 320.342 M193.537 330.900 C 192.972 331.358,189.832 341.565,190.156 341.890 C 190.329 342.063,191.191 339.355,192.444 334.697 L 193.386 331.194 218.550 331.297 C 240.446 331.387,243.752 331.478,244.016 332.000 C 244.182 332.330,244.512 333.050,244.749 333.600 C 245.161 334.558,245.169 334.549,244.942 333.400 C 244.811 332.740,244.452 331.795,244.143 331.300 L 243.582 330.400 218.867 330.400 C 199.691 330.400,194.015 330.512,193.537 330.900 M245.206 335.433 C 245.209 335.855,245.395 336.470,245.618 336.800 C 245.915 337.238,245.952 337.076,245.756 336.200 C 245.427 334.729,245.198 334.410,245.206 335.433 M246.000 338.510 C 246.000 339.083,246.187 339.668,246.416 339.810 C 246.689 339.979,246.738 339.677,246.560 338.934 C 246.192 337.401,246.000 337.256,246.000 338.510 M246.806 341.033 C 246.809 341.455,246.995 342.070,247.218 342.400 C 247.515 342.838,247.552 342.676,247.356 341.800 C 247.027 340.329,246.798 340.010,246.806 341.033 M188.704 346.304 C 187.591 350.298,187.442 351.890,188.496 348.516 C 189.506 345.285,190.119 342.785,189.945 342.611 C 189.853 342.520,189.295 344.182,188.704 346.304 M247.668 343.800 C 247.662 344.240,247.811 344.960,248.000 345.400 C 248.438 346.419,248.438 345.368,248.000 344.000 C 247.743 343.196,247.677 343.157,247.668 343.800 M86.700 347.100 C 97.535 347.159,115.265 347.159,126.100 347.100 C 136.935 347.041,128.070 346.992,106.400 346.992 C 84.730 346.992,75.865 347.041,86.700 347.100 M152.000 346.955 C 152.000 347.040,152.530 347.187,153.179 347.282 C 153.827 347.377,154.267 347.308,154.155 347.128 C 153.957 346.807,152.000 346.650,152.000 346.955 M249.234 349.400 C 249.222 349.840,249.387 350.470,249.600 350.800 C 250.114 351.595,250.114 350.596,249.600 349.400 L 249.256 348.600 249.234 349.400 M156.794 351.919 L 156.987 354.200 157.118 352.244 C 157.190 351.169,157.103 350.142,156.924 349.963 C 156.746 349.784,156.687 350.664,156.794 351.919 M187.029 352.229 C 186.881 352.815,186.838 353.372,186.932 353.466 C 187.027 353.560,187.224 353.158,187.371 352.571 C 187.519 351.985,187.562 351.428,187.468 351.334 C 187.373 351.240,187.176 351.642,187.029 352.229 M250.012 352.400 C 250.012 352.730,250.187 353.270,250.400 353.600 C 250.745 354.133,250.788 354.133,250.788 353.600 C 250.788 353.270,250.613 352.730,250.400 352.400 C 250.055 351.867,250.012 351.867,250.012 352.400 M186.229 355.029 C 186.081 355.615,186.038 356.172,186.132 356.266 C 186.227 356.360,186.424 355.958,186.571 355.371 C 186.719 354.785,186.762 354.228,186.668 354.134 C 186.573 354.040,186.376 354.442,186.229 355.029 M250.975 355.698 L 251.214 356.795 218.507 356.900 L 185.800 357.005 218.700 357.102 C 254.463 357.208,252.663 357.314,251.162 355.200 C 250.833 354.738,250.790 354.852,250.975 355.698 " stroke="none" fill="#ce7060" fill-rule="evenodd"></path><path id="path4" d="M225.375 160.900 L 224.200 162.200 225.500 161.025 C 226.215 160.379,226.800 159.794,226.800 159.725 C 226.800 159.416,226.470 159.688,225.375 160.900 M178.928 173.200 C 178.928 174.630,179.001 175.215,179.089 174.500 C 179.178 173.785,179.178 172.615,179.089 171.900 C 179.001 171.185,178.928 171.770,178.928 173.200 M230.800 176.200 C 231.546 176.970,232.247 177.600,232.357 177.600 C 232.467 177.600,231.946 176.970,231.200 176.200 C 230.454 175.430,229.753 174.800,229.643 174.800 C 229.533 174.800,230.054 175.430,230.800 176.200 M219.008 184.444 C 215.014 188.865,215.673 195.008,220.477 198.156 C 223.905 200.402,227.788 191.512,225.420 186.839 C 223.341 182.736,221.254 181.957,219.008 184.444 M184.800 188.200 C 185.546 188.970,186.247 189.600,186.357 189.600 C 186.467 189.600,185.946 188.970,185.200 188.200 C 184.454 187.430,183.753 186.800,183.643 186.800 C 183.533 186.800,184.054 187.430,184.800 188.200 M83.067 272.267 C 82.920 272.413,82.800 273.583,82.800 274.867 L 82.800 277.200 117.400 277.200 L 152.000 277.200 151.995 275.500 C 151.992 274.565,151.881 273.395,151.748 272.900 L 151.507 272.000 117.420 272.000 C 98.672 272.000,83.213 272.120,83.067 272.267 M58.203 290.171 L 56.750 291.542 56.875 298.890 L 57.000 306.238 58.182 307.419 L 59.363 308.600 108.082 308.709 L 156.800 308.818 156.800 298.809 L 156.800 288.800 108.228 288.800 L 59.657 288.800 58.203 290.171 M106.300 347.100 L 66.800 347.204 66.800 351.959 C 66.800 355.926,66.905 356.755,67.433 356.957 C 68.285 357.284,150.182 357.269,152.572 356.942 C 155.419 356.552,156.800 354.995,156.800 352.176 C 156.800 348.249,154.425 346.723,148.600 346.908 C 147.060 346.956,128.025 347.043,106.300 347.100 " stroke="none" fill="#c6c058" fill-rule="evenodd"></path></g></svg>