<svg id="svg" version="1.1" xmlns="http://www.w3.org/2000/svg" xmlns:xlink="http://www.w3.org/1999/xlink" width="400" height="400" viewBox="0, 0, 400,400"><g id="svgg"><path id="path0" d="M192.800 53.596 C 191.882 53.825,193.191 53.883,196.600 53.766 C 199.460 53.667,203.780 53.746,206.200 53.941 C 210.478 54.287,211.191 54.258,210.694 53.760 C 210.299 53.366,194.314 53.219,192.800 53.596 M188.600 54.272 C 184.969 55.085,177.763 58.014,175.328 59.666 C 174.408 60.290,173.555 60.800,173.432 60.800 C 171.954 60.800,163.193 69.261,160.427 73.361 C 156.620 79.002,152.676 87.665,154.400 86.600 C 154.620 86.464,154.800 86.001,154.800 85.571 C 154.800 85.141,154.958 84.477,155.151 84.095 C 155.344 83.713,156.282 81.780,157.236 79.800 C 158.189 77.820,159.080 76.110,159.214 76.000 C 159.348 75.890,159.558 75.530,159.679 75.200 C 162.121 68.567,176.629 57.987,187.000 55.275 C 191.048 54.217,191.435 54.081,190.400 54.087 C 189.850 54.090,189.040 54.173,188.600 54.272 M106.760 59.253 C 102.970 61.452,103.040 66.864,106.884 68.838 C 110.878 70.889,115.201 67.833,114.692 63.318 C 114.250 59.401,110.139 57.294,106.760 59.253 M111.081 59.291 C 116.904 61.846,114.105 70.444,107.987 68.796 C 102.634 67.355,103.706 59.100,109.281 58.833 C 109.656 58.815,110.466 59.021,111.081 59.291 M241.831 77.300 C 241.987 77.795,242.649 79.370,243.301 80.800 C 246.735 88.329,247.600 92.433,247.600 101.192 L 247.600 107.524 249.719 108.720 C 257.968 113.375,258.400 114.910,258.400 139.586 C 258.400 150.421,258.556 158.804,258.762 159.020 C 259.507 159.801,262.021 164.560,263.400 167.800 C 263.775 168.680,264.236 169.760,264.424 170.200 C 265.618 172.989,267.057 178.335,268.353 184.800 C 268.645 186.255,268.722 186.370,268.757 185.400 C 268.937 180.309,264.608 167.877,259.804 159.689 L 258.800 157.979 258.800 138.916 C 258.800 120.476,258.772 119.774,257.946 117.427 C 256.582 113.552,253.774 110.252,250.249 108.382 L 248.520 107.465 248.262 100.833 C 247.936 92.420,246.823 87.097,244.185 81.329 C 243.643 80.145,243.200 78.912,243.200 78.588 C 243.200 78.265,243.020 78.000,242.800 78.000 C 242.580 78.000,242.400 77.640,242.400 77.200 C 242.400 76.760,242.208 76.400,241.973 76.400 C 241.713 76.400,241.657 76.751,241.831 77.300 M214.816 80.979 C 211.362 85.456,205.461 89.513,198.200 92.401 C 194.001 94.071,187.840 95.376,181.900 95.854 L 178.800 96.103 178.800 105.923 C 178.800 112.173,178.966 116.262,179.256 117.172 C 180.107 119.837,181.267 121.890,182.736 123.330 C 187.726 128.222,188.874 128.458,207.000 128.314 L 221.400 128.200 221.400 107.600 C 221.400 84.783,221.470 85.461,218.622 80.602 C 217.269 78.293,216.857 78.334,214.816 80.979 M219.071 82.671 C 220.031 84.749,220.551 86.610,220.816 88.916 C 221.228 92.495,221.352 126.339,220.957 127.367 C 220.651 128.165,195.924 128.315,191.824 127.544 C 181.885 125.676,179.200 120.866,179.200 104.927 L 179.200 96.400 181.135 96.400 C 193.728 96.400,209.094 89.428,215.758 80.690 C 217.155 78.859,217.369 78.988,219.071 82.671 M151.436 89.983 C 150.136 91.422,148.517 93.770,147.838 95.200 L 146.604 97.800 146.602 109.400 L 146.600 121.000 147.639 123.200 C 148.211 124.410,149.336 126.257,150.139 127.303 L 151.600 129.207 151.600 137.534 L 151.600 145.860 149.500 148.032 C 146.571 151.062,144.741 153.164,143.608 154.800 C 143.075 155.570,142.540 156.290,142.419 156.400 C 142.299 156.510,141.983 156.960,141.717 157.400 C 138.686 162.422,137.470 164.658,136.388 167.200 C 135.686 168.850,134.958 170.560,134.770 171.000 C 134.581 171.440,134.053 173.060,133.596 174.600 C 130.971 183.434,130.400 188.390,130.400 202.325 L 130.400 213.209 94.820 213.104 C 75.251 213.047,59.376 213.136,59.542 213.302 C 59.708 213.468,75.764 213.558,95.222 213.502 L 130.600 213.400 130.849 201.400 C 131.181 185.409,132.011 179.829,135.400 170.800 C 136.643 167.491,139.731 161.067,140.401 160.400 C 140.511 160.290,140.837 159.741,141.125 159.180 C 142.135 157.215,145.828 152.590,149.085 149.210 L 152.372 145.800 152.386 137.538 L 152.400 129.276 150.939 127.538 C 150.135 126.582,149.010 124.810,148.439 123.600 L 147.400 121.400 147.400 109.400 L 147.400 97.400 148.640 94.783 C 149.405 93.168,150.686 91.386,151.987 90.125 C 153.146 89.002,154.028 87.922,153.947 87.724 C 153.866 87.527,152.736 88.543,151.436 89.983 M72.889 101.821 C 68.927 102.887,64.457 106.613,62.835 110.200 C 62.537 110.860,62.092 111.833,61.846 112.361 C 61.237 113.673,61.280 121.222,61.905 122.548 C 62.177 123.127,62.589 124.005,62.819 124.500 C 69.951 139.816,93.298 134.384,93.337 117.400 C 93.354 109.764,86.754 101.461,80.800 101.629 C 80.143 101.647,80.613 101.932,82.172 102.459 C 98.933 108.124,95.081 132.873,77.438 132.873 C 56.904 132.873,56.493 103.571,77.000 101.588 L 79.800 101.317 77.400 101.285 C 76.080 101.267,74.050 101.508,72.889 101.821 M74.918 112.456 C 69.634 115.020,71.482 122.800,77.376 122.800 C 83.476 122.800,84.932 114.545,79.251 112.165 C 77.505 111.433,76.949 111.471,74.918 112.456 M80.032 113.082 C 84.755 115.873,81.718 123.262,76.267 122.239 C 73.225 121.668,71.167 116.346,73.213 114.342 C 75.302 112.296,77.891 111.818,80.032 113.082 M189.260 142.966 C 189.810 160.080,211.200 158.522,211.200 141.368 C 211.200 138.644,212.247 138.887,199.659 138.694 L 189.118 138.532 189.260 142.966 M210.295 143.220 C 209.457 158.416,190.646 158.354,189.720 143.153 L 189.479 139.200 199.998 139.200 L 210.516 139.200 210.295 143.220 M165.978 149.900 L 164.600 151.400 166.100 150.022 C 166.925 149.263,167.600 148.588,167.600 148.522 C 167.600 148.216,167.262 148.504,165.978 149.900 M293.708 160.591 C 290.249 162.099,289.800 167.667,292.970 169.744 C 293.888 170.345,296.271 170.397,318.891 170.303 L 343.800 170.200 343.800 165.200 L 343.800 160.200 319.400 160.114 C 299.155 160.043,294.780 160.124,293.708 160.591 M239.720 164.000 C 239.720 165.210,239.795 165.705,239.887 165.100 C 239.978 164.495,239.978 163.505,239.887 162.900 C 239.795 162.295,239.720 162.790,239.720 164.000 M198.900 165.487 C 199.505 165.578,200.495 165.578,201.100 165.487 C 201.705 165.395,201.210 165.320,200.000 165.320 C 198.790 165.320,198.295 165.395,198.900 165.487 M148.901 166.100 C 148.442 166.677,146.287 170.923,145.703 172.400 C 145.485 172.950,145.121 173.850,144.894 174.400 C 144.118 176.278,143.752 177.511,142.460 182.600 C 141.447 186.588,141.151 191.481,141.273 202.200 L 141.400 213.400 145.200 213.400 L 149.000 213.400 149.249 201.600 C 149.488 190.248,149.664 188.279,150.911 183.000 C 151.482 180.580,151.415 179.130,150.422 172.400 L 150.038 169.800 150.226 173.000 C 150.329 174.760,150.525 177.255,150.660 178.544 C 150.894 180.774,150.456 183.820,149.502 186.600 C 149.275 187.260,148.979 193.470,148.845 200.400 L 148.600 213.000 145.079 213.116 L 141.557 213.232 141.738 200.916 C 141.935 187.574,142.331 183.884,144.201 178.000 C 145.358 174.356,148.789 166.655,149.111 166.977 C 149.211 167.077,149.433 167.754,149.605 168.480 C 149.889 169.679,149.922 169.607,149.959 167.700 C 150.000 165.624,149.672 165.129,148.901 166.100 M250.046 167.900 C 250.089 170.028,250.114 170.087,250.384 168.696 C 250.813 166.482,251.009 166.518,252.197 169.031 C 254.618 174.148,256.363 179.026,256.980 182.400 C 257.121 183.170,257.426 184.790,257.657 186.000 C 257.889 187.210,258.163 193.832,258.265 200.716 L 258.452 213.232 254.926 213.116 L 251.400 213.000 251.162 200.400 C 250.949 189.051,250.835 187.462,250.022 184.400 C 249.191 181.269,249.154 180.691,249.560 177.086 C 249.802 174.933,249.982 172.593,249.959 171.886 L 249.918 170.600 249.616 171.870 C 248.890 174.920,248.745 181.528,249.348 184.075 C 250.431 188.643,250.483 189.293,250.743 201.400 L 251.000 213.400 254.800 213.400 L 258.600 213.400 258.591 200.600 C 258.585 192.309,258.414 186.954,258.104 185.400 C 257.841 184.080,257.517 182.370,257.385 181.600 C 257.253 180.830,256.998 179.840,256.818 179.400 C 256.638 178.960,256.258 177.790,255.973 176.800 C 255.346 174.621,254.335 172.202,252.712 169.000 C 250.580 164.792,249.979 164.544,250.046 167.900 M161.693 179.600 C 161.693 180.370,161.775 180.685,161.876 180.300 C 161.976 179.915,161.976 179.285,161.876 178.900 C 161.775 178.515,161.693 178.830,161.693 179.600 M301.443 181.833 C 301.309 182.181,301.200 184.326,301.200 186.600 C 301.200 188.874,301.309 191.019,301.443 191.367 C 301.806 192.314,349.781 192.331,351.774 191.386 C 355.551 189.593,355.624 184.266,351.904 181.998 C 350.087 180.890,301.865 180.732,301.443 181.833 M352.379 183.095 C 354.591 185.155,354.568 188.294,352.326 190.383 C 351.463 191.187,351.071 191.200,326.725 191.200 L 302.000 191.200 302.000 186.588 L 302.000 181.977 326.710 182.088 L 351.419 182.200 352.379 183.095 M268.833 189.276 C 268.815 190.528,268.992 191.671,269.227 191.816 C 269.979 192.281,270.022 191.776,269.438 189.362 L 268.867 187.000 268.833 189.276 M173.359 207.200 C 173.359 210.390,173.421 211.695,173.497 210.100 C 173.573 208.505,173.573 205.895,173.497 204.300 C 173.421 202.705,173.359 204.010,173.359 207.200 M226.560 207.400 C 226.561 210.700,226.622 211.997,226.698 210.282 C 226.773 208.567,226.772 205.867,226.697 204.282 C 226.621 202.697,226.559 204.100,226.560 207.400 M293.376 203.422 C 292.626 204.023,292.630 204.030,293.474 203.622 C 294.058 203.340,302.517 203.200,318.974 203.200 L 343.600 203.200 343.600 208.197 L 343.600 213.194 319.400 213.302 L 295.200 213.409 319.500 213.405 L 343.800 213.400 343.912 208.100 L 344.023 202.800 319.088 202.800 C 297.130 202.800,294.060 202.874,293.376 203.422 M291.216 205.640 C 289.766 208.837,291.656 213.207,294.486 213.199 C 294.769 213.198,294.413 212.839,293.696 212.402 C 291.019 210.769,290.309 208.577,291.597 205.911 C 292.036 205.004,292.309 204.176,292.204 204.071 C 292.100 203.966,291.655 204.673,291.216 205.640 M159.364 204.949 C 159.257 205.228,159.221 207.244,159.285 209.428 L 159.400 213.400 161.000 213.400 L 162.600 213.400 162.717 210.061 C 162.843 206.456,162.659 205.987,160.737 205.029 C 159.807 204.564,159.518 204.548,159.364 204.949 M238.685 205.457 L 237.169 206.431 237.285 209.916 L 237.400 213.400 239.000 213.400 L 240.600 213.400 240.715 209.235 C 240.848 204.401,240.714 204.152,238.685 205.457 M161.700 206.157 C 162.266 206.586,162.400 207.312,162.400 209.944 L 162.400 213.200 161.200 213.200 L 160.000 213.200 160.000 209.400 C 160.000 205.430,160.211 205.027,161.700 206.157 M240.000 209.400 L 240.000 213.200 238.800 213.200 L 237.600 213.200 237.600 209.944 C 237.600 207.312,237.734 206.586,238.300 206.157 C 239.789 205.027,240.000 205.430,240.000 209.400 M45.500 224.223 C 45.166 224.568,45.082 233.227,45.404 234.067 C 45.574 234.510,71.755 234.585,200.104 234.511 L 354.600 234.423 354.600 229.333 L 354.600 224.243 200.200 224.078 C 115.280 223.987,45.665 224.052,45.500 224.223 M61.700 245.465 C 60.984 245.754,60.964 345.604,61.680 346.320 C 62.515 347.155,338.236 347.003,338.557 346.167 C 339.196 344.503,338.813 245.691,338.167 245.443 C 337.410 245.152,62.420 245.174,61.700 245.465 M255.878 272.782 C 258.698 274.502,258.587 273.634,258.715 295.085 C 258.838 315.939,258.775 316.708,256.780 318.619 L 255.547 319.800 199.943 319.800 L 144.339 319.800 142.969 318.306 L 141.600 316.812 141.600 296.095 C 141.600 273.235,141.473 274.397,144.147 272.767 C 146.131 271.557,253.893 271.572,255.878 272.782 M152.494 282.733 C 152.100 282.983,152.012 285.955,152.094 296.227 L 152.200 309.400 199.757 309.502 C 234.569 309.576,247.460 309.483,247.857 309.153 C 248.852 308.327,248.634 283.353,247.626 282.814 C 246.695 282.315,153.278 282.236,152.494 282.733 M247.505 296.100 L 247.611 309.200 200.005 309.200 L 152.400 309.200 152.400 296.267 C 152.400 289.153,152.521 283.213,152.668 283.065 C 152.816 282.917,174.191 282.842,200.168 282.898 L 247.400 283.000 247.505 296.100 " stroke="none" fill="#bd7c6a" fill-rule="evenodd"></path><path id="path1" d="M151.600 42.203 C 151.270 42.294,149.560 42.461,147.800 42.574 C 146.040 42.687,143.430 42.960,142.000 43.180 C 140.570 43.400,138.590 43.695,137.600 43.835 C 136.610 43.975,135.620 44.233,135.400 44.407 C 135.180 44.581,134.370 44.776,133.600 44.841 C 132.830 44.906,132.008 45.097,131.773 45.267 C 131.539 45.437,130.760 45.621,130.043 45.675 C 129.326 45.730,128.652 45.915,128.546 46.087 C 128.440 46.259,128.001 46.400,127.571 46.400 C 127.141 46.400,126.477 46.568,126.095 46.773 C 125.713 46.979,124.545 47.378,123.500 47.661 C 122.455 47.943,121.600 48.315,121.600 48.487 C 121.600 48.659,121.060 48.800,120.400 48.800 C 119.740 48.800,119.200 48.980,119.200 49.200 C 119.200 49.420,118.851 49.600,118.424 49.600 C 117.997 49.600,117.536 49.780,117.400 50.000 C 117.264 50.220,116.713 50.400,116.176 50.400 C 115.639 50.400,115.200 50.580,115.200 50.800 C 115.200 51.020,114.750 51.200,114.200 51.200 C 113.650 51.200,113.200 51.380,113.200 51.600 C 113.200 51.820,113.018 52.000,112.796 52.000 C 112.187 52.000,108.620 53.715,108.467 54.081 C 108.393 54.257,107.988 54.400,107.567 54.400 C 107.145 54.400,106.800 54.580,106.800 54.800 C 106.800 55.020,106.440 55.200,106.000 55.200 C 105.560 55.200,105.200 55.380,105.200 55.600 C 105.200 55.820,104.964 56.000,104.675 56.000 C 104.387 56.000,103.764 56.360,103.292 56.800 C 102.820 57.240,102.156 57.600,101.817 57.600 C 101.478 57.600,101.200 57.780,101.200 58.000 C 101.200 58.220,100.862 58.400,100.449 58.400 C 100.036 58.400,99.474 58.670,99.200 59.000 C 98.926 59.330,98.532 59.600,98.323 59.600 C 97.852 59.600,94.249 62.035,94.067 62.477 C 93.993 62.655,93.718 62.800,93.455 62.800 C 93.192 62.800,92.717 63.160,92.400 63.600 C 92.083 64.040,91.593 64.400,91.312 64.400 C 91.031 64.400,90.059 65.120,89.152 66.000 C 88.245 66.880,87.334 67.600,87.126 67.600 C 86.918 67.600,85.871 68.500,84.800 69.600 C 83.729 70.700,82.705 71.605,82.526 71.611 C 81.979 71.630,78.429 75.095,78.689 75.356 C 78.824 75.490,78.633 75.600,78.267 75.600 C 77.900 75.600,77.599 75.735,77.597 75.900 C 77.595 76.065,76.793 77.010,75.815 78.000 C 74.837 78.990,74.028 79.947,74.018 80.126 C 74.008 80.305,73.100 81.329,72.000 82.400 C 70.900 83.471,70.000 84.540,70.000 84.774 C 70.000 85.008,69.280 85.941,68.400 86.848 C 67.520 87.755,66.800 88.705,66.800 88.960 C 66.800 89.215,66.440 89.683,66.000 90.000 C 65.560 90.317,65.200 90.857,65.200 91.200 C 65.200 91.543,64.840 92.083,64.400 92.400 C 63.960 92.717,63.600 93.207,63.600 93.488 C 63.600 93.770,63.450 94.000,63.268 94.000 C 63.085 94.000,62.680 94.495,62.368 95.100 C 62.056 95.705,61.711 96.290,61.601 96.400 C 61.361 96.639,60.204 98.783,59.119 101.000 C 58.688 101.880,58.068 103.050,57.743 103.600 C 57.417 104.150,57.051 104.915,56.929 105.300 C 56.807 105.685,56.548 106.000,56.353 106.000 C 56.159 106.000,56.000 106.324,56.000 106.720 C 56.000 107.614,55.106 109.593,54.700 109.597 C 54.535 109.599,54.400 109.960,54.400 110.400 C 54.400 110.840,54.220 111.200,54.000 111.200 C 53.780 111.200,53.600 111.549,53.600 111.976 C 53.600 112.403,53.420 112.864,53.200 113.000 C 52.980 113.136,52.800 113.687,52.800 114.224 C 52.800 114.761,52.620 115.200,52.400 115.200 C 52.180 115.200,52.000 115.549,52.000 115.976 C 52.000 116.403,51.820 116.864,51.600 117.000 C 51.380 117.136,51.200 117.676,51.200 118.200 C 51.200 118.724,51.020 119.264,50.800 119.400 C 50.580 119.536,50.400 120.087,50.400 120.624 C 50.400 121.161,50.220 121.600,50.000 121.600 C 49.780 121.600,49.600 122.320,49.600 123.200 C 49.600 124.080,49.420 124.800,49.200 124.800 C 48.980 124.800,48.800 125.340,48.800 126.000 C 48.800 126.660,48.620 127.200,48.400 127.200 C 48.180 127.200,48.000 127.819,48.000 128.576 C 48.000 129.333,47.820 130.064,47.600 130.200 C 47.380 130.336,47.200 131.247,47.200 132.224 C 47.200 133.201,47.020 134.000,46.800 134.000 C 46.580 134.000,46.400 134.864,46.400 135.920 C 46.400 136.976,46.230 138.011,46.023 138.220 C 45.815 138.429,45.608 139.911,45.562 141.514 C 45.516 143.117,45.325 144.523,45.139 144.638 C 44.676 144.924,44.704 170.140,45.168 170.620 C 45.370 170.829,45.635 172.170,45.758 173.600 C 46.224 179.054,46.486 180.800,46.837 180.800 C 47.037 180.800,47.200 181.509,47.200 182.376 C 47.200 183.243,47.380 184.064,47.600 184.200 C 47.820 184.336,48.000 185.056,48.000 185.800 C 48.000 186.544,48.180 187.264,48.400 187.400 C 48.620 187.536,48.800 188.177,48.800 188.824 C 48.800 189.471,48.980 190.000,49.200 190.000 C 49.420 190.000,49.600 190.529,49.600 191.176 C 49.600 191.823,49.780 192.464,50.000 192.600 C 50.220 192.736,50.400 193.287,50.400 193.824 C 50.400 194.361,50.580 194.800,50.800 194.800 C 51.020 194.800,51.200 195.340,51.200 196.000 C 51.200 196.660,51.380 197.200,51.600 197.200 C 51.820 197.200,52.000 197.740,52.000 198.400 C 52.000 199.060,52.180 199.600,52.400 199.600 C 52.620 199.600,52.800 199.960,52.800 200.400 C 52.800 200.840,52.980 201.200,53.200 201.200 C 53.420 201.200,53.600 201.751,53.600 202.424 C 53.600 203.137,53.767 203.544,54.000 203.400 C 54.227 203.260,54.400 203.596,54.400 204.176 C 54.400 204.739,54.580 205.200,54.800 205.200 C 55.020 205.200,55.200 205.560,55.200 206.000 C 55.200 206.440,55.380 206.800,55.600 206.800 C 55.820 206.800,56.000 207.160,56.000 207.600 C 56.000 208.040,56.180 208.400,56.400 208.400 C 56.620 208.400,56.800 208.670,56.800 209.000 C 56.800 209.330,56.980 209.600,57.200 209.600 C 57.420 209.600,57.600 209.960,57.600 210.400 C 57.600 210.840,57.780 211.200,58.000 211.200 C 58.220 211.200,58.400 211.539,58.400 211.953 C 58.400 213.179,58.700 213.189,95.300 213.195 L 130.400 213.200 130.400 202.321 C 130.400 188.390,130.971 183.434,133.596 174.600 C 134.053 173.060,134.581 171.440,134.770 171.000 C 134.958 170.560,135.686 168.850,136.388 167.200 C 137.470 164.658,138.686 162.422,141.717 157.400 C 141.983 156.960,142.299 156.510,142.419 156.400 C 142.540 156.290,143.075 155.570,143.608 154.800 C 144.741 153.164,146.571 151.062,149.500 148.032 L 151.600 145.860 151.600 137.534 L 151.600 129.207 150.139 127.303 C 149.336 126.257,148.211 124.410,147.639 123.200 L 146.600 121.000 146.602 109.400 L 146.604 97.800 147.833 95.198 C 148.508 93.767,150.068 91.508,151.299 90.178 C 152.972 88.372,153.756 87.109,154.402 85.180 C 157.272 76.609,163.252 68.365,170.708 62.700 C 172.084 61.655,173.309 60.800,173.432 60.800 C 173.555 60.800,174.408 60.295,175.328 59.677 C 182.124 55.113,191.541 52.956,203.100 53.316 C 207.491 53.453,210.400 53.395,210.400 53.172 C 210.400 52.967,209.950 52.800,209.400 52.800 C 208.850 52.800,208.400 52.620,208.400 52.400 C 208.400 52.180,208.040 52.000,207.600 52.000 C 207.160 52.000,206.800 51.820,206.800 51.600 C 206.800 51.380,206.451 51.200,206.024 51.200 C 205.597 51.200,205.136 51.020,205.000 50.800 C 204.864 50.580,204.313 50.400,203.776 50.400 C 203.239 50.400,202.800 50.220,202.800 50.000 C 202.800 49.780,202.350 49.600,201.800 49.600 C 201.250 49.600,200.800 49.420,200.800 49.200 C 200.800 48.980,200.350 48.800,199.800 48.800 C 199.250 48.800,198.800 48.620,198.800 48.400 C 198.800 48.180,198.271 48.000,197.624 48.000 C 196.977 48.000,196.336 47.820,196.200 47.600 C 196.064 47.380,195.524 47.200,195.000 47.200 C 194.476 47.200,193.936 47.020,193.800 46.800 C 193.664 46.580,193.034 46.400,192.400 46.400 C 191.766 46.400,191.136 46.220,191.000 46.000 C 190.864 45.780,190.234 45.600,189.600 45.600 C 188.966 45.600,188.336 45.420,188.200 45.200 C 188.064 44.980,187.243 44.800,186.376 44.800 C 185.509 44.800,184.800 44.620,184.800 44.400 C 184.800 44.180,183.936 44.000,182.880 44.000 C 181.824 44.000,180.789 43.836,180.580 43.635 C 180.371 43.435,179.120 43.171,177.800 43.049 C 176.480 42.927,174.770 42.730,174.000 42.611 C 172.241 42.339,152.412 41.978,151.600 42.203 M111.520 58.962 C 115.624 61.098,115.910 66.554,112.031 68.734 C 108.293 70.835,104.000 68.304,104.000 64.000 C 104.000 60.043,108.195 57.232,111.520 58.962 M242.400 77.351 C 242.400 77.708,242.580 78.000,242.800 78.000 C 243.020 78.000,243.200 78.265,243.200 78.588 C 243.200 78.912,243.643 80.145,244.185 81.329 C 246.823 87.097,247.936 92.420,248.262 100.833 L 248.520 107.465 250.249 108.382 C 253.774 110.252,256.582 113.552,257.946 117.427 C 258.772 119.774,258.800 120.476,258.800 138.916 L 258.800 157.979 259.804 159.689 C 264.818 168.234,267.968 177.455,268.982 186.559 C 269.433 190.603,270.800 193.509,270.800 190.424 C 270.800 189.777,270.980 189.136,271.200 189.000 C 271.420 188.864,271.600 188.234,271.600 187.600 C 271.600 186.966,271.761 186.348,271.958 186.226 C 272.155 186.105,272.415 185.329,272.537 184.503 C 272.659 183.676,272.960 182.010,273.206 180.800 C 273.452 179.590,273.739 177.700,273.846 176.600 C 273.952 175.500,274.240 174.196,274.486 173.702 C 275.259 172.149,275.151 142.314,274.366 140.769 C 274.190 140.422,274.003 139.198,273.950 138.048 C 273.898 136.898,273.708 135.867,273.528 135.755 C 273.347 135.644,273.200 134.753,273.200 133.776 C 273.200 132.799,273.020 132.000,272.800 132.000 C 272.580 132.000,272.400 131.291,272.400 130.424 C 272.400 129.557,272.220 128.736,272.000 128.600 C 271.780 128.464,271.600 127.733,271.600 126.976 C 271.600 126.219,271.420 125.600,271.200 125.600 C 270.980 125.600,270.800 125.071,270.800 124.424 C 270.800 123.777,270.620 123.136,270.400 123.000 C 270.180 122.864,270.000 122.324,270.000 121.800 C 270.000 121.276,269.820 120.736,269.600 120.600 C 269.380 120.464,269.200 119.913,269.200 119.376 C 269.200 118.839,269.020 118.400,268.800 118.400 C 268.580 118.400,268.400 117.860,268.400 117.200 C 268.400 116.540,268.220 116.000,268.000 116.000 C 267.780 116.000,267.600 115.561,267.600 115.024 C 267.600 114.487,267.420 113.936,267.200 113.800 C 266.980 113.664,266.800 113.203,266.800 112.776 C 266.800 112.349,266.620 112.000,266.400 112.000 C 266.180 112.000,266.000 111.640,266.000 111.200 C 266.000 110.760,265.820 110.400,265.600 110.400 C 265.380 110.400,265.200 109.950,265.200 109.400 C 265.200 108.850,265.065 108.399,264.900 108.397 C 264.541 108.393,263.600 106.456,263.600 105.720 C 263.600 105.434,263.420 105.200,263.200 105.200 C 262.980 105.200,262.800 104.840,262.800 104.400 C 262.800 103.960,262.620 103.600,262.400 103.600 C 262.180 103.600,262.000 103.280,262.000 102.888 C 262.000 102.497,261.640 101.917,261.200 101.600 C 260.760 101.283,260.400 100.703,260.400 100.312 C 260.400 99.920,260.220 99.600,260.000 99.600 C 259.780 99.600,259.600 99.240,259.600 98.800 C 259.600 98.360,259.420 98.000,259.200 98.000 C 258.980 98.000,258.800 97.775,258.801 97.500 C 258.802 97.008,255.495 91.905,254.506 90.871 C 254.228 90.581,254.000 90.184,254.000 89.990 C 254.000 89.795,253.550 89.186,253.000 88.636 C 252.450 88.086,252.000 87.492,252.000 87.316 C 252.000 87.140,251.280 86.231,250.400 85.297 C 249.520 84.363,248.800 83.458,248.800 83.288 C 248.800 82.959,244.294 78.187,243.100 77.251 C 242.495 76.777,242.400 76.790,242.400 77.351 M215.758 80.690 C 211.095 86.804,202.309 92.179,193.000 94.612 C 189.765 95.458,183.512 96.400,181.135 96.400 L 179.200 96.400 179.200 104.927 C 179.200 120.866,181.885 125.676,191.824 127.544 C 195.924 128.315,220.651 128.165,220.957 127.367 C 221.352 126.339,221.228 92.495,220.816 88.916 C 220.452 85.749,218.354 80.113,217.296 79.459 C 217.072 79.321,216.380 79.875,215.758 80.690 M84.262 102.770 C 97.601 109.012,96.045 128.562,81.866 132.868 C 74.530 135.096,66.010 131.353,62.819 124.500 C 62.589 124.005,62.177 123.127,61.905 122.548 C 61.280 121.222,61.237 113.673,61.846 112.361 C 62.092 111.833,62.537 110.860,62.835 110.200 C 66.263 102.619,76.416 99.099,84.262 102.770 M74.789 113.084 C 72.851 114.423,72.626 114.851,72.613 117.231 C 72.586 121.967,77.282 124.060,80.828 120.892 C 85.104 117.071,79.501 109.827,74.789 113.084 M189.720 143.153 C 190.646 158.354,209.457 158.416,210.295 143.220 L 210.516 139.200 199.998 139.200 L 189.479 139.200 189.720 143.153 M147.416 170.080 C 144.296 176.851,143.545 179.235,142.336 186.200 C 142.107 187.520,141.838 194.142,141.738 200.916 L 141.557 213.232 145.079 213.116 L 148.600 213.000 148.845 200.400 C 148.979 193.470,149.275 187.260,149.502 186.600 C 150.493 183.714,150.905 180.746,150.650 178.325 C 150.504 176.936,150.215 174.042,150.008 171.894 C 149.469 166.288,149.237 166.126,147.416 170.080 M250.625 167.521 C 250.499 167.918,250.219 170.123,250.002 172.421 C 249.786 174.720,249.500 177.590,249.366 178.800 C 249.188 180.424,249.360 181.891,250.025 184.400 C 250.834 187.458,250.949 189.066,251.162 200.400 L 251.400 213.000 254.926 213.116 L 258.452 213.232 258.265 200.716 C 258.163 193.832,257.889 187.210,257.657 186.000 C 257.426 184.790,257.121 183.170,256.980 182.400 C 256.364 179.033,254.618 174.147,252.209 169.056 C 251.028 166.559,250.953 166.487,250.625 167.521 M160.000 209.400 L 160.000 213.200 161.200 213.200 L 162.400 213.200 162.400 209.944 C 162.400 207.312,162.266 206.586,161.700 206.157 C 160.211 205.027,160.000 205.430,160.000 209.400 M238.300 206.157 C 237.734 206.586,237.600 207.312,237.600 209.944 L 237.600 213.200 238.800 213.200 L 240.000 213.200 240.000 209.400 C 240.000 205.430,239.789 205.027,238.300 206.157 " stroke="none" fill="#e7ebe9" fill-rule="evenodd"></path><path id="path2" d="M302.000 186.588 L 302.000 191.200 326.725 191.200 C 351.071 191.200,351.463 191.187,352.326 190.383 C 354.568 188.294,354.591 185.155,352.379 183.095 L 351.419 182.200 326.710 182.088 L 302.000 181.977 302.000 186.588 M293.319 203.680 C 291.300 204.655,290.360 208.273,291.598 210.304 C 293.448 213.338,292.097 213.197,319.300 213.199 L 343.600 213.200 343.600 208.200 L 343.600 203.200 318.900 203.227 C 302.323 203.245,293.910 203.394,293.319 203.680 M152.668 283.065 C 152.521 283.213,152.400 289.153,152.400 296.267 L 152.400 309.200 200.005 309.200 L 247.611 309.200 247.505 296.100 L 247.400 283.000 200.168 282.898 C 174.191 282.842,152.816 282.917,152.668 283.065 " stroke="none" fill="#efc956" fill-rule="evenodd"></path><path id="path3" d="M173.843 145.228 C 165.902 147.991,160.400 155.513,160.400 163.606 C 160.400 165.610,161.561 177.349,162.832 188.200 C 163.464 193.594,165.390 196.800,167.999 196.800 C 171.902 196.800,173.600 200.053,173.600 207.526 L 173.600 213.200 200.000 213.200 L 226.400 213.200 226.400 207.526 C 226.400 200.043,228.098 196.800,232.016 196.800 C 234.599 196.800,236.557 193.675,237.158 188.595 C 238.615 176.275,239.599 166.148,239.593 163.552 C 239.571 154.841,233.026 146.671,224.534 144.754 C 221.704 144.115,221.200 144.384,221.200 146.528 C 221.200 154.708,213.039 163.244,203.452 165.092 C 191.781 167.342,179.605 157.948,178.705 146.000 C 178.572 144.226,177.302 144.025,173.843 145.228 " stroke="none" fill="#bc54b4" fill-rule="evenodd"></path><path id="path4" d="M193.800 54.033 C 188.534 54.542,184.030 55.826,179.000 58.253 C 171.535 61.855,161.282 70.848,159.679 75.200 C 159.558 75.530,159.348 75.890,159.214 76.000 C 159.080 76.110,158.189 77.820,157.236 79.800 C 156.282 81.780,155.344 83.713,155.151 84.095 C 154.958 84.477,154.800 85.141,154.800 85.571 C 154.800 86.001,154.620 86.464,154.400 86.600 C 154.180 86.736,154.000 87.154,154.000 87.529 C 154.000 87.904,153.077 89.093,151.948 90.171 C 150.673 91.390,149.424 93.128,148.648 94.766 L 147.400 97.400 147.400 109.400 L 147.400 121.400 148.439 123.600 C 149.010 124.810,150.135 126.582,150.939 127.538 L 152.400 129.276 152.386 137.538 L 152.372 145.800 149.085 149.210 C 145.828 152.590,142.135 157.215,141.125 159.180 C 140.837 159.741,140.511 160.290,140.401 160.400 C 140.203 160.597,138.530 163.629,137.973 164.800 C 132.572 176.152,131.230 183.047,130.849 201.400 L 130.600 213.400 95.222 213.502 C 71.905 213.570,59.707 213.467,59.442 213.202 C 58.849 212.609,37.800 212.665,36.682 213.263 C 35.445 213.925,34.800 214.647,34.800 215.371 C 34.800 215.717,34.620 216.000,34.400 216.000 C 34.141 216.000,34.000 220.667,34.000 229.200 C 34.000 237.733,34.141 242.400,34.400 242.400 C 34.620 242.400,34.800 242.678,34.800 243.018 C 34.800 245.116,36.373 245.600,43.182 245.600 L 49.600 245.600 49.600 299.376 C 49.600 334.796,49.737 353.237,50.000 353.400 C 50.220 353.536,50.400 353.995,50.400 354.419 C 50.400 355.477,51.512 356.716,53.284 357.632 C 55.617 358.839,344.383 358.839,346.716 357.632 C 348.488 356.716,349.600 355.477,349.600 354.419 C 349.600 353.995,349.780 353.536,350.000 353.400 C 350.263 353.237,350.400 334.796,350.400 299.376 L 350.400 245.600 356.818 245.600 C 363.627 245.600,365.200 245.116,365.200 243.018 C 365.200 242.678,365.380 242.400,365.600 242.400 C 365.859 242.400,366.000 237.733,366.000 229.200 C 366.000 220.667,365.859 216.000,365.600 216.000 C 365.380 216.000,365.200 215.717,365.200 215.371 C 365.200 213.657,363.072 212.800,358.814 212.800 L 355.176 212.800 355.288 207.719 L 355.400 202.638 356.992 201.819 C 358.888 200.844,363.600 196.272,363.600 195.407 C 363.600 195.073,363.780 194.800,364.000 194.800 C 364.220 194.800,364.400 194.440,364.400 194.000 C 364.400 193.560,364.580 193.200,364.800 193.200 C 365.020 193.200,365.200 192.761,365.200 192.224 C 365.200 191.687,365.380 191.136,365.600 191.000 C 365.825 190.861,366.000 188.929,366.000 186.576 C 366.000 184.059,365.841 182.400,365.600 182.400 C 365.380 182.400,365.200 181.860,365.200 181.200 C 365.200 180.540,365.020 180.000,364.800 180.000 C 364.580 180.000,364.400 179.640,364.400 179.200 C 364.400 178.760,364.220 178.400,364.000 178.400 C 363.780 178.400,363.593 178.085,363.584 177.700 C 363.575 177.315,362.835 176.370,361.939 175.600 C 361.043 174.830,359.889 173.795,359.373 173.300 C 358.858 172.805,358.248 172.400,358.018 172.400 C 357.788 172.400,357.600 172.220,357.600 172.000 C 357.600 171.780,357.317 171.600,356.971 171.600 C 355.323 171.600,355.200 170.871,355.200 161.069 L 355.200 151.680 353.760 150.240 L 352.320 148.800 321.760 148.800 C 301.653 148.800,291.200 148.937,291.200 149.200 C 291.200 149.420,290.660 149.600,290.000 149.600 C 289.340 149.600,288.800 149.780,288.800 150.000 C 288.800 150.220,288.480 150.400,288.088 150.400 C 287.697 150.400,287.117 150.760,286.800 151.200 C 286.483 151.640,285.987 152.000,285.698 152.000 C 285.016 152.000,282.400 154.616,282.400 155.298 C 282.400 155.587,282.040 156.083,281.600 156.400 C 281.160 156.717,280.800 157.286,280.800 157.665 C 280.800 158.043,280.620 158.464,280.400 158.600 C 280.180 158.736,280.000 159.276,280.000 159.800 C 280.000 160.324,279.820 160.864,279.600 161.000 C 279.375 161.139,279.200 163.063,279.200 165.400 C 279.200 167.737,279.375 169.661,279.600 169.800 C 279.820 169.936,280.000 170.380,280.000 170.786 C 280.000 172.722,285.054 179.200,286.565 179.200 C 286.914 179.200,287.201 179.335,287.203 179.500 C 287.207 179.859,289.144 180.800,289.880 180.800 C 290.283 180.800,290.400 182.106,290.400 186.600 C 290.400 191.671,290.319 192.400,289.754 192.400 C 287.948 192.400,281.600 197.580,281.600 199.054 C 281.600 199.354,281.420 199.600,281.200 199.600 C 280.980 199.600,280.800 199.960,280.800 200.400 C 280.800 200.840,280.620 201.200,280.400 201.200 C 280.180 201.200,280.000 201.740,280.000 202.400 C 280.000 203.060,279.820 203.600,279.600 203.600 C 279.359 203.600,279.200 205.267,279.200 207.800 C 279.200 210.333,279.359 212.000,279.600 212.000 C 279.820 212.000,280.000 212.180,280.000 212.400 C 280.000 212.645,278.067 212.800,275.000 212.800 L 270.000 212.800 270.000 202.443 C 270.000 193.605,269.912 192.052,269.400 191.855 C 268.973 191.691,268.798 191.016,268.793 189.513 C 268.778 185.249,266.505 175.222,264.415 170.200 C 262.265 165.036,259.745 160.050,258.762 159.020 C 258.556 158.804,258.400 150.421,258.400 139.586 C 258.400 114.910,257.968 113.375,249.719 108.720 L 247.600 107.524 247.600 101.192 C 247.600 92.433,246.735 88.329,243.301 80.800 C 241.653 77.186,241.434 76.401,242.073 76.394 C 242.415 76.390,242.451 76.285,242.177 76.094 C 241.945 75.932,241.508 75.192,241.207 74.448 C 240.906 73.705,240.242 72.678,239.730 72.166 C 239.219 71.655,238.800 71.063,238.800 70.851 C 238.800 70.319,231.346 62.800,230.819 62.800 C 230.584 62.800,229.828 62.260,229.137 61.600 C 228.446 60.940,227.638 60.400,227.341 60.400 C 227.043 60.400,226.799 60.265,226.797 60.100 C 226.794 59.698,224.481 58.400,223.768 58.400 C 223.455 58.400,223.200 58.220,223.200 58.000 C 223.200 57.780,222.840 57.600,222.400 57.600 C 221.960 57.600,221.600 57.420,221.600 57.200 C 221.600 56.980,221.240 56.800,220.800 56.800 C 220.360 56.800,220.000 56.620,220.000 56.400 C 220.000 56.180,219.460 56.000,218.800 56.000 C 218.140 56.000,217.600 55.820,217.600 55.600 C 217.600 55.380,217.161 55.200,216.624 55.200 C 216.087 55.200,215.536 55.020,215.400 54.800 C 215.264 54.580,214.634 54.400,214.000 54.400 C 213.366 54.400,212.736 54.220,212.600 54.000 C 212.298 53.512,210.918 53.469,210.733 53.942 C 210.660 54.130,208.710 54.140,206.400 53.965 C 201.473 53.590,198.205 53.607,193.800 54.033 M107.397 59.394 C 103.156 61.259,103.554 67.603,107.987 68.796 C 114.105 70.444,116.904 61.846,111.081 59.291 C 109.710 58.689,108.952 58.710,107.397 59.394 M218.622 80.602 C 221.470 85.461,221.400 84.783,221.400 107.600 L 221.400 128.200 207.000 128.314 C 190.854 128.442,187.996 128.052,184.800 125.285 C 181.693 122.595,180.369 120.657,179.256 117.172 C 178.966 116.262,178.800 112.173,178.800 105.923 L 178.800 96.103 181.900 95.854 C 187.840 95.376,194.001 94.071,198.200 92.401 C 205.461 89.513,211.362 85.456,214.816 80.979 C 216.857 78.334,217.269 78.293,218.622 80.602 M73.600 102.051 C 59.228 105.941,57.554 125.532,71.070 131.661 C 84.536 137.767,98.093 122.831,91.049 109.649 C 87.943 103.838,79.915 100.342,73.600 102.051 M79.251 112.165 C 84.932 114.545,83.476 122.800,77.376 122.800 C 71.482 122.800,69.634 115.020,74.918 112.456 C 76.949 111.471,77.505 111.433,79.251 112.165 M210.700 139.015 C 211.020 139.117,211.200 139.965,211.200 141.368 C 211.200 158.522,189.810 160.080,189.260 142.966 L 189.118 138.532 199.659 138.694 C 205.457 138.783,210.425 138.927,210.700 139.015 M179.090 147.421 C 180.437 155.395,185.254 160.972,193.716 164.352 C 205.116 168.905,221.150 158.021,221.195 145.700 C 221.198 144.952,221.412 144.382,221.700 144.358 C 227.531 143.863,235.824 149.817,238.296 156.272 C 240.216 161.285,240.265 163.094,238.806 175.200 C 238.608 176.850,238.248 180.090,238.008 182.400 C 236.773 194.276,236.111 195.806,231.629 197.145 C 227.248 198.455,226.800 199.386,226.800 207.183 L 226.800 213.206 200.100 213.103 L 173.400 213.000 173.200 206.727 C 172.961 199.242,172.712 198.691,168.963 197.363 C 164.238 195.690,163.150 193.867,162.417 186.400 C 162.191 184.090,161.819 180.490,161.591 178.400 C 159.862 162.542,159.898 160.355,161.963 155.835 C 164.684 149.881,170.650 145.231,176.800 144.271 C 178.450 144.013,178.534 144.129,179.090 147.421 M343.800 165.200 L 343.800 170.200 318.891 170.303 C 296.271 170.397,293.888 170.345,292.970 169.744 C 289.800 167.667,290.249 162.099,293.708 160.591 C 294.780 160.124,299.155 160.043,319.400 160.114 L 343.800 160.200 343.800 165.200 M150.000 167.055 C 150.000 168.397,150.414 172.289,151.183 178.175 C 151.400 179.828,151.319 181.288,150.919 182.975 C 149.665 188.264,149.488 190.228,149.249 201.600 L 149.000 213.400 145.200 213.400 L 141.400 213.400 141.273 202.200 C 141.151 191.481,141.447 186.588,142.460 182.600 C 143.752 177.511,144.118 176.278,144.894 174.400 C 145.121 173.850,145.485 172.950,145.703 172.400 C 147.919 166.797,150.000 164.209,150.000 167.055 M251.099 166.100 C 252.220 167.511,255.154 173.953,255.973 176.800 C 256.258 177.790,256.638 178.960,256.818 179.400 C 256.998 179.840,257.253 180.830,257.385 181.600 C 257.517 182.370,257.841 184.080,258.104 185.400 C 258.414 186.954,258.585 192.309,258.591 200.600 L 258.600 213.400 254.800 213.400 L 251.000 213.400 250.740 201.400 C 250.493 189.956,250.343 188.177,249.214 183.278 C 248.827 181.602,248.828 180.088,249.219 176.078 C 249.491 173.285,249.793 169.785,249.890 168.300 C 250.064 165.624,250.333 165.135,251.099 166.100 M351.904 181.998 C 355.624 184.266,355.551 189.593,351.774 191.386 C 349.781 192.331,301.806 192.314,301.443 191.367 C 301.309 191.019,301.200 188.874,301.200 186.600 C 301.200 184.326,301.309 182.181,301.443 181.833 C 301.865 180.732,350.087 180.890,351.904 181.998 M343.912 208.100 L 343.800 213.400 319.000 213.400 C 291.099 213.400,292.827 213.589,291.177 210.355 C 290.235 208.509,290.221 208.064,291.037 206.024 C 292.389 202.646,290.919 202.814,319.112 202.807 L 344.023 202.800 343.912 208.100 M162.375 206.170 C 162.662 206.516,162.790 207.970,162.717 210.061 L 162.600 213.400 161.000 213.400 L 159.400 213.400 159.285 209.428 C 159.134 204.249,160.012 203.323,162.375 206.170 M240.715 209.235 L 240.600 213.400 239.000 213.400 L 237.400 213.400 237.285 209.916 L 237.169 206.431 238.685 205.457 C 240.714 204.152,240.848 204.401,240.715 209.235 M354.600 229.333 L 354.600 234.423 200.104 234.511 C 71.755 234.585,45.574 234.510,45.404 234.067 C 45.082 233.227,45.166 224.568,45.500 224.223 C 45.665 224.052,115.280 223.987,200.200 224.078 L 354.600 224.243 354.600 229.333 M338.167 245.443 C 338.813 245.691,339.196 344.503,338.557 346.167 C 338.236 347.003,62.515 347.155,61.680 346.320 C 60.964 345.604,60.984 245.754,61.700 245.465 C 62.420 245.174,337.410 245.152,338.167 245.443 M144.147 272.767 C 141.473 274.397,141.600 273.235,141.600 296.095 L 141.600 316.812 142.969 318.306 L 144.339 319.800 199.943 319.800 L 255.547 319.800 256.780 318.619 C 258.775 316.708,258.838 315.939,258.715 295.085 C 258.587 273.634,258.698 274.502,255.878 272.782 C 253.893 271.572,146.131 271.557,144.147 272.767 M247.626 282.814 C 248.634 283.353,248.852 308.327,247.857 309.153 C 247.460 309.483,234.569 309.576,199.757 309.502 L 152.200 309.400 152.094 296.227 C 152.012 285.955,152.100 282.983,152.494 282.733 C 153.278 282.236,246.695 282.315,247.626 282.814 " stroke="none" fill="#4c241c" fill-rule="evenodd"></path></g></svg>